<ttFont>
    <TTGlyph name=".notdef" xMin="0" yMin="0" xMax="500" yMax="700">
      <contour>
        <pt x="500" y="0" on="1"/>
        <pt x="0" y="0" on="1"/>
        <pt x="0" y="700" on="1"/>
        <pt x="500" y="700" on="1"/>
      </contour>
      <contour>
        <pt x="50" y="605" on="1"/>
        <pt x="50" y="95" on="1"/>
        <pt x="220" y="350" on="1"/>
      </contour>
      <contour>
        <pt x="250" y="305" on="1"/>
        <pt x="80" y="50" on="1"/>
        <pt x="420" y="50" on="1"/>
      </contour>
      <contour>
        <pt x="420" y="650" on="1"/>
        <pt x="80" y="650" on="1"/>
        <pt x="250" y="395" on="1"/>
      </contour>
      <contour>
        <pt x="450" y="605" on="1"/>
        <pt x="280" y="350" on="1"/>
        <pt x="450" y="95" on="1"/>
      </contour>
    </TTGlyph>
    <TTGlyph name="A" xMin="-44" yMin="0" xMax="674" yMax="686">
      <contour>
        <pt x="157" y="0" on="1"/>
        <pt x="-44" y="0" on="1"/>
        <pt x="281" y="686" on="1"/>
        <pt x="542" y="686" on="1"/>
        <pt x="674" y="0" on="1"/>
        <pt x="456" y="0" on="1"/>
        <pt x="432" y="122" on="1"/>
        <pt x="214" y="122" on="1"/>
      </contour>
      <contour>
        <pt x="371" y="475" on="1"/>
        <pt x="283" y="267" on="1"/>
        <pt x="405" y="267" on="1"/>
        <pt x="376" y="475" on="1"/>
      </contour>
    </TTGlyph>
    <TTGlyph name="AE" xMin="-53" yMin="0" xMax="1039" yMax="686">
      <contour>
        <pt x="146" y="0" on="1"/>
        <pt x="-53" y="0" on="1"/>
        <pt x="368" y="686" on="1"/>
        <pt x="1039" y="686" on="1"/>
        <pt x="997" y="528" on="1"/>
        <pt x="637" y="528" on="1"/>
        <pt x="642" y="428" on="1"/>
        <pt x="971" y="428" on="1"/>
        <pt x="950" y="275" on="1"/>
        <pt x="650" y="275" on="1"/>
        <pt x="656" y="164" on="1"/>
        <pt x="942" y="164" on="1"/>
        <pt x="942" y="0" on="1"/>
        <pt x="446" y="0" on="1"/>
        <pt x="439" y="122" on="1"/>
        <pt x="221" y="122" on="1"/>
      </contour>
      <contour>
        <pt x="428" y="475" on="1"/>
        <pt x="311" y="267" on="1"/>
        <pt x="433" y="267" on="1"/>
        <pt x="433" y="475" on="1"/>
      </contour>
    </TTGlyph>
    <TTGlyph name="Aacute" xMin="-44" yMin="0" xMax="674" yMax="895">
      <contour>
        <pt x="157" y="0" on="1"/>
        <pt x="-44" y="0" on="1"/>
        <pt x="281" y="686" on="1"/>
        <pt x="542" y="686" on="1"/>
        <pt x="674" y="0" on="1"/>
        <pt x="456" y="0" on="1"/>
        <pt x="432" y="122" on="1"/>
        <pt x="214" y="122" on="1"/>
      </contour>
      <contour>
        <pt x="371" y="475" on="1"/>
        <pt x="283" y="267" on="1"/>
        <pt x="405" y="267" on="1"/>
        <pt x="376" y="475" on="1"/>
      </contour>
      <contour>
        <pt x="474" y="750" on="1"/>
        <pt x="356" y="750" on="1"/>
        <pt x="468" y="895" on="1"/>
        <pt x="619" y="895" on="1"/>
        <pt x="620" y="892" on="1"/>
      </contour>
    </TTGlyph>
    <TTGlyph name="Acircumflex" xMin="-44" yMin="0" xMax="674" yMax="896">
      <contour>
        <pt x="157" y="0" on="1"/>
        <pt x="-44" y="0" on="1"/>
        <pt x="281" y="686" on="1"/>
        <pt x="542" y="686" on="1"/>
        <pt x="674" y="0" on="1"/>
        <pt x="456" y="0" on="1"/>
        <pt x="432" y="122" on="1"/>
        <pt x="214" y="122" on="1"/>
      </contour>
      <contour>
        <pt x="339" y="751" on="1"/>
        <pt x="211" y="751" on="1"/>
        <pt x="371" y="896" on="1"/>
        <pt x="499" y="896" on="1"/>
        <pt x="617" y="751" on="1"/>
        <pt x="487" y="751" on="1"/>
        <pt x="424" y="828" on="1"/>
      </contour>
      <contour>
        <pt x="371" y="475" on="1"/>
        <pt x="283" y="267" on="1"/>
        <pt x="405" y="267" on="1"/>
        <pt x="376" y="475" on="1"/>
      </contour>
    </TTGlyph>
    <TTGlyph name="Adieresis" xMin="-44" yMin="0" xMax="674" yMax="897">
      <contour>
        <pt x="157" y="0" on="1"/>
        <pt x="-44" y="0" on="1"/>
        <pt x="281" y="686" on="1"/>
        <pt x="542" y="686" on="1"/>
        <pt x="674" y="0" on="1"/>
        <pt x="456" y="0" on="1"/>
        <pt x="432" y="122" on="1"/>
        <pt x="214" y="122" on="1"/>
      </contour>
      <contour>
        <pt x="380" y="750" on="1"/>
        <pt x="228" y="750" on="1"/>
        <pt x="249" y="897" on="1"/>
        <pt x="401" y="897" on="1"/>
      </contour>
      <contour>
        <pt x="371" y="475" on="1"/>
        <pt x="283" y="267" on="1"/>
        <pt x="405" y="267" on="1"/>
        <pt x="376" y="475" on="1"/>
      </contour>
      <contour>
        <pt x="600" y="750" on="1"/>
        <pt x="448" y="750" on="1"/>
        <pt x="469" y="897" on="1"/>
        <pt x="621" y="897" on="1"/>
      </contour>
    </TTGlyph>
    <TTGlyph name="Agrave" xMin="-44" yMin="0" xMax="674" yMax="895">
      <contour>
        <pt x="157" y="0" on="1"/>
        <pt x="-44" y="0" on="1"/>
        <pt x="281" y="686" on="1"/>
        <pt x="542" y="686" on="1"/>
        <pt x="674" y="0" on="1"/>
        <pt x="456" y="0" on="1"/>
        <pt x="432" y="122" on="1"/>
        <pt x="214" y="122" on="1"/>
      </contour>
      <contour>
        <pt x="354" y="750" on="1"/>
        <pt x="248" y="892" on="1"/>
        <pt x="251" y="895" on="1"/>
        <pt x="402" y="895" on="1"/>
        <pt x="472" y="750" on="1"/>
      </contour>
      <contour>
        <pt x="371" y="475" on="1"/>
        <pt x="283" y="267" on="1"/>
        <pt x="405" y="267" on="1"/>
        <pt x="376" y="475" on="1"/>
      </contour>
    </TTGlyph>
    <TTGlyph name="Aring" xMin="-44" yMin="0" xMax="674" yMax="937">
      <contour>
        <pt x="157" y="0" on="1"/>
        <pt x="-44" y="0" on="1"/>
        <pt x="281" y="686" on="1"/>
        <pt x="542" y="686" on="1"/>
        <pt x="674" y="0" on="1"/>
        <pt x="456" y="0" on="1"/>
        <pt x="432" y="122" on="1"/>
        <pt x="214" y="122" on="1"/>
      </contour>
      <contour>
        <pt x="371" y="475" on="1"/>
        <pt x="283" y="267" on="1"/>
        <pt x="405" y="267" on="1"/>
        <pt x="376" y="475" on="1"/>
      </contour>
      <contour>
        <pt x="372" y="736" on="0"/>
        <pt x="322" y="785" on="0"/>
        <pt x="322" y="869" on="0"/>
        <pt x="392" y="937" on="0"/>
        <pt x="477" y="937" on="0"/>
        <pt x="526" y="888" on="0"/>
        <pt x="526" y="803" on="0"/>
        <pt x="458" y="736" on="0"/>
      </contour>
      <contour>
        <pt x="412" y="871" on="0"/>
        <pt x="389" y="848" on="0"/>
        <pt x="389" y="818" on="0"/>
        <pt x="406" y="801" on="0"/>
        <pt x="436" y="801" on="0"/>
        <pt x="460" y="821" on="0"/>
        <pt x="460" y="840" on="1"/>
        <pt x="460" y="871" on="0"/>
        <pt x="429" y="871" on="1"/>
      </contour>
    </TTGlyph>
    <TTGlyph name="Atilde" xMin="-44" yMin="0" xMax="674" yMax="889">
      <contour>
        <pt x="157" y="0" on="1"/>
        <pt x="-44" y="0" on="1"/>
        <pt x="281" y="686" on="1"/>
        <pt x="542" y="686" on="1"/>
        <pt x="674" y="0" on="1"/>
        <pt x="456" y="0" on="1"/>
        <pt x="432" y="122" on="1"/>
        <pt x="214" y="122" on="1"/>
      </contour>
      <contour>
        <pt x="269" y="746" on="1"/>
        <pt x="189" y="746" on="1"/>
        <pt x="198" y="803" on="0"/>
        <pt x="288" y="889" on="0"/>
        <pt x="349" y="889" on="1"/>
        <pt x="382" y="889" on="0"/>
        <pt x="490" y="849" on="0"/>
        <pt x="516" y="849" on="1"/>
        <pt x="553" y="849" on="0"/>
        <pt x="572" y="889" on="1"/>
        <pt x="653" y="889" on="1"/>
        <pt x="644" y="832" on="0"/>
        <pt x="554" y="746" on="0"/>
        <pt x="492" y="746" on="1"/>
        <pt x="459" y="746" on="0"/>
        <pt x="350" y="786" on="0"/>
        <pt x="325" y="786" on="1"/>
        <pt x="288" y="786" on="0"/>
      </contour>
      <contour>
        <pt x="371" y="475" on="1"/>
        <pt x="283" y="267" on="1"/>
        <pt x="405" y="267" on="1"/>
        <pt x="376" y="475" on="1"/>
      </contour>
    </TTGlyph>
    <TTGlyph name="B" xMin="16" yMin="0" xMax="646" yMax="686">
      <contour>
        <pt x="398" y="0" on="1"/>
        <pt x="16" y="0" on="1"/>
        <pt x="113" y="686" on="1"/>
        <pt x="489" y="686" on="1"/>
        <pt x="557" y="686" on="0"/>
        <pt x="646" y="602" on="0"/>
        <pt x="646" y="540" on="1"/>
        <pt x="646" y="399" on="0"/>
        <pt x="508" y="358" on="1"/>
        <pt x="507" y="354" on="1"/>
        <pt x="616" y="327" on="0"/>
        <pt x="616" y="218" on="1"/>
        <pt x="616" y="132" on="0"/>
        <pt x="495" y="0" on="0"/>
      </contour>
      <contour>
        <pt x="248" y="277" on="1"/>
        <pt x="232" y="159" on="1"/>
        <pt x="359" y="159" on="1"/>
        <pt x="380" y="159" on="0"/>
        <pt x="414" y="188" on="0"/>
        <pt x="416" y="209" on="1"/>
        <pt x="418" y="227" on="1"/>
        <pt x="418" y="234" on="1"/>
        <pt x="418" y="253" on="0"/>
        <pt x="394" y="277" on="0"/>
        <pt x="375" y="277" on="1"/>
      </contour>
      <contour>
        <pt x="285" y="540" on="1"/>
        <pt x="269" y="423" on="1"/>
        <pt x="384" y="423" on="1"/>
        <pt x="405" y="423" on="0"/>
        <pt x="439" y="452" on="0"/>
        <pt x="441" y="473" on="1"/>
        <pt x="443" y="490" on="1"/>
        <pt x="443" y="497" on="1"/>
        <pt x="443" y="516" on="0"/>
        <pt x="419" y="540" on="0"/>
        <pt x="400" y="540" on="1"/>
      </contour>
    </TTGlyph>
    <TTGlyph name="C" xMin="27" yMin="-10" xMax="679" yMax="696">
      <contour>
        <pt x="27" y="242" on="1"/>
        <pt x="27" y="257" on="0"/>
        <pt x="64" y="530" on="0"/>
        <pt x="261" y="696" on="0"/>
        <pt x="398" y="696" on="1"/>
        <pt x="426" y="696" on="1"/>
        <pt x="540" y="696" on="0"/>
        <pt x="679" y="574" on="0"/>
        <pt x="679" y="460" on="1"/>
        <pt x="679" y="430" on="0"/>
        <pt x="675" y="405" on="1"/>
        <pt x="478" y="405" on="1"/>
        <pt x="483" y="440" on="1"/>
        <pt x="484" y="443" on="0"/>
        <pt x="484" y="448" on="1"/>
        <pt x="484" y="457" on="1"/>
        <pt x="484" y="495" on="0"/>
        <pt x="436" y="540" on="0"/>
        <pt x="397" y="540" on="1"/>
        <pt x="392" y="540" on="1"/>
        <pt x="343" y="540" on="0"/>
        <pt x="284" y="484" on="0"/>
        <pt x="278" y="440" on="1"/>
        <pt x="251" y="247" on="1"/>
        <pt x="250" y="245" on="0"/>
        <pt x="250" y="240" on="1"/>
        <pt x="250" y="233" on="1"/>
        <pt x="250" y="196" on="0"/>
        <pt x="299" y="147" on="0"/>
        <pt x="337" y="147" on="1"/>
        <pt x="351" y="147" on="1"/>
        <pt x="448" y="147" on="0"/>
        <pt x="465" y="247" on="1"/>
        <pt x="470" y="280" on="1"/>
        <pt x="658" y="280" on="1"/>
        <pt x="638" y="144" on="0"/>
        <pt x="469" y="-10" on="0"/>
        <pt x="335" y="-10" on="1"/>
        <pt x="307" y="-10" on="1"/>
        <pt x="183" y="-10" on="0"/>
        <pt x="27" y="124" on="0"/>
      </contour>
    </TTGlyph>
    <TTGlyph name="Ccedilla" xMin="27" yMin="-197" xMax="679" yMax="696">
      <contour>
        <pt x="27" y="242" on="1"/>
        <pt x="27" y="257" on="0"/>
        <pt x="64" y="530" on="0"/>
        <pt x="261" y="696" on="0"/>
        <pt x="398" y="696" on="1"/>
        <pt x="426" y="696" on="1"/>
        <pt x="540" y="696" on="0"/>
        <pt x="679" y="574" on="0"/>
        <pt x="679" y="460" on="1"/>
        <pt x="679" y="430" on="0"/>
        <pt x="675" y="405" on="1"/>
        <pt x="478" y="405" on="1"/>
        <pt x="483" y="440" on="1"/>
        <pt x="484" y="443" on="0"/>
        <pt x="484" y="448" on="1"/>
        <pt x="484" y="457" on="1"/>
        <pt x="484" y="495" on="0"/>
        <pt x="436" y="540" on="0"/>
        <pt x="397" y="540" on="1"/>
        <pt x="392" y="540" on="1"/>
        <pt x="343" y="540" on="0"/>
        <pt x="284" y="484" on="0"/>
        <pt x="278" y="440" on="1"/>
        <pt x="251" y="247" on="1"/>
        <pt x="250" y="244" on="0"/>
        <pt x="250" y="240" on="1"/>
        <pt x="250" y="233" on="1"/>
        <pt x="250" y="196" on="0"/>
        <pt x="299" y="147" on="0"/>
        <pt x="337" y="147" on="1"/>
        <pt x="351" y="147" on="1"/>
        <pt x="448" y="147" on="0"/>
        <pt x="465" y="247" on="1"/>
        <pt x="470" y="280" on="1"/>
        <pt x="658" y="280" on="1"/>
        <pt x="638" y="144" on="0"/>
        <pt x="469" y="-10" on="0"/>
        <pt x="335" y="-10" on="1"/>
        <pt x="307" y="-10" on="1"/>
        <pt x="183" y="-10" on="0"/>
        <pt x="27" y="124" on="0"/>
      </contour>
      <contour>
        <pt x="155" y="-161" on="1"/>
        <pt x="195" y="-107" on="1"/>
        <pt x="201" y="-114" on="0"/>
        <pt x="241" y="-139" on="0"/>
        <pt x="275" y="-139" on="1"/>
        <pt x="320" y="-139" on="0"/>
        <pt x="320" y="-100" on="1"/>
        <pt x="320" y="-76" on="0"/>
        <pt x="286" y="-76" on="1"/>
        <pt x="268" y="-76" on="1"/>
        <pt x="276" y="-17" on="1"/>
        <pt x="297" y="-17" on="1"/>
        <pt x="407" y="-17" on="0"/>
        <pt x="407" y="-92" on="1"/>
        <pt x="407" y="-100" on="1"/>
        <pt x="407" y="-105" on="0"/>
        <pt x="406" y="-108" on="1"/>
        <pt x="401" y="-142" on="0"/>
        <pt x="377" y="-163" on="1"/>
        <pt x="338" y="-197" on="0"/>
        <pt x="196" y="-197" on="0"/>
      </contour>
    </TTGlyph>
    <TTGlyph name="D" xMin="16" yMin="0" xMax="683" yMax="686">
      <contour>
        <pt x="325" y="0" on="1"/>
        <pt x="16" y="0" on="1"/>
        <pt x="113" y="686" on="1"/>
        <pt x="422" y="686" on="1"/>
        <pt x="535" y="686" on="0"/>
        <pt x="683" y="538" on="0"/>
        <pt x="683" y="428" on="1"/>
        <pt x="683" y="407" on="0"/>
        <pt x="680" y="386" on="1"/>
        <pt x="667" y="300" on="1"/>
        <pt x="648" y="170" on="0"/>
        <pt x="466" y="0" on="0"/>
      </contour>
      <contour>
        <pt x="303" y="530" on="1"/>
        <pt x="251" y="159" on="1"/>
        <pt x="328" y="159" on="1"/>
        <pt x="377" y="159" on="0"/>
        <pt x="436" y="215" on="0"/>
        <pt x="442" y="259" on="1"/>
        <pt x="466" y="430" on="1"/>
        <pt x="467" y="443" on="1"/>
        <pt x="467" y="480" on="0"/>
        <pt x="418" y="530" on="0"/>
        <pt x="380" y="530" on="1"/>
      </contour>
    </TTGlyph>
    <TTGlyph name="E" xMin="16" yMin="0" xMax="628" yMax="686">
      <contour>
        <pt x="531" y="0" on="1"/>
        <pt x="16" y="0" on="1"/>
        <pt x="113" y="686" on="1"/>
        <pt x="628" y="686" on="1"/>
        <pt x="586" y="528" on="1"/>
        <pt x="297" y="528" on="1"/>
        <pt x="282" y="428" on="1"/>
        <pt x="560" y="428" on="1"/>
        <pt x="539" y="275" on="1"/>
        <pt x="261" y="275" on="1"/>
        <pt x="245" y="164" on="1"/>
        <pt x="531" y="164" on="1"/>
      </contour>
    </TTGlyph>
    <TTGlyph name="Eacute" xMin="16" yMin="0" xMax="628" yMax="895">
      <contour>
        <pt x="531" y="0" on="1"/>
        <pt x="16" y="0" on="1"/>
        <pt x="113" y="686" on="1"/>
        <pt x="628" y="686" on="1"/>
        <pt x="586" y="528" on="1"/>
        <pt x="297" y="528" on="1"/>
        <pt x="282" y="428" on="1"/>
        <pt x="560" y="428" on="1"/>
        <pt x="539" y="275" on="1"/>
        <pt x="261" y="275" on="1"/>
        <pt x="245" y="164" on="1"/>
        <pt x="531" y="164" on="1"/>
      </contour>
      <contour>
        <pt x="426" y="750" on="1"/>
        <pt x="308" y="750" on="1"/>
        <pt x="420" y="895" on="1"/>
        <pt x="571" y="895" on="1"/>
        <pt x="572" y="892" on="1"/>
      </contour>
    </TTGlyph>
    <TTGlyph name="Ecircumflex" xMin="16" yMin="0" xMax="628" yMax="896">
      <contour>
        <pt x="531" y="0" on="1"/>
        <pt x="16" y="0" on="1"/>
        <pt x="113" y="686" on="1"/>
        <pt x="628" y="686" on="1"/>
        <pt x="586" y="528" on="1"/>
        <pt x="297" y="528" on="1"/>
        <pt x="282" y="428" on="1"/>
        <pt x="560" y="428" on="1"/>
        <pt x="539" y="275" on="1"/>
        <pt x="261" y="275" on="1"/>
        <pt x="245" y="164" on="1"/>
        <pt x="531" y="164" on="1"/>
      </contour>
      <contour>
        <pt x="304" y="751" on="1"/>
        <pt x="176" y="751" on="1"/>
        <pt x="336" y="896" on="1"/>
        <pt x="464" y="896" on="1"/>
        <pt x="582" y="751" on="1"/>
        <pt x="452" y="751" on="1"/>
        <pt x="389" y="828" on="1"/>
      </contour>
    </TTGlyph>
    <TTGlyph name="Edieresis" xMin="16" yMin="0" xMax="628" yMax="898">
      <contour>
        <pt x="531" y="0" on="1"/>
        <pt x="16" y="0" on="1"/>
        <pt x="113" y="686" on="1"/>
        <pt x="628" y="686" on="1"/>
        <pt x="586" y="528" on="1"/>
        <pt x="297" y="528" on="1"/>
        <pt x="282" y="428" on="1"/>
        <pt x="560" y="428" on="1"/>
        <pt x="539" y="275" on="1"/>
        <pt x="261" y="275" on="1"/>
        <pt x="245" y="164" on="1"/>
        <pt x="531" y="164" on="1"/>
      </contour>
      <contour>
        <pt x="335" y="751" on="1"/>
        <pt x="183" y="751" on="1"/>
        <pt x="204" y="898" on="1"/>
        <pt x="356" y="898" on="1"/>
      </contour>
      <contour>
        <pt x="555" y="751" on="1"/>
        <pt x="403" y="751" on="1"/>
        <pt x="424" y="898" on="1"/>
        <pt x="576" y="898" on="1"/>
      </contour>
    </TTGlyph>
    <TTGlyph name="Egrave" xMin="16" yMin="0" xMax="628" yMax="896">
      <contour>
        <pt x="531" y="0" on="1"/>
        <pt x="16" y="0" on="1"/>
        <pt x="113" y="686" on="1"/>
        <pt x="628" y="686" on="1"/>
        <pt x="586" y="528" on="1"/>
        <pt x="297" y="528" on="1"/>
        <pt x="282" y="428" on="1"/>
        <pt x="560" y="428" on="1"/>
        <pt x="539" y="275" on="1"/>
        <pt x="261" y="275" on="1"/>
        <pt x="245" y="164" on="1"/>
        <pt x="531" y="164" on="1"/>
      </contour>
      <contour>
        <pt x="322" y="751" on="1"/>
        <pt x="216" y="893" on="1"/>
        <pt x="219" y="896" on="1"/>
        <pt x="370" y="896" on="1"/>
        <pt x="440" y="751" on="1"/>
      </contour>
    </TTGlyph>
    <TTGlyph name="Eth" xMin="5" yMin="0" xMax="704" yMax="686">
      <contour>
        <pt x="79" y="297" on="1"/>
        <pt x="5" y="297" on="1"/>
        <pt x="18" y="391" on="1"/>
        <pt x="92" y="391" on="1"/>
        <pt x="134" y="686" on="1"/>
        <pt x="443" y="686" on="1"/>
        <pt x="556" y="686" on="0"/>
        <pt x="704" y="538" on="0"/>
        <pt x="704" y="428" on="1"/>
        <pt x="704" y="407" on="0"/>
        <pt x="701" y="386" on="1"/>
        <pt x="688" y="300" on="1"/>
        <pt x="669" y="170" on="0"/>
        <pt x="487" y="0" on="0"/>
        <pt x="346" y="0" on="1"/>
        <pt x="37" y="0" on="1"/>
      </contour>
      <contour>
        <pt x="291" y="297" on="1"/>
        <pt x="272" y="159" on="1"/>
        <pt x="349" y="159" on="1"/>
        <pt x="398" y="159" on="0"/>
        <pt x="457" y="215" on="0"/>
        <pt x="463" y="259" on="1"/>
        <pt x="487" y="430" on="1"/>
        <pt x="488" y="443" on="1"/>
        <pt x="488" y="480" on="0"/>
        <pt x="439" y="530" on="0"/>
        <pt x="401" y="530" on="1"/>
        <pt x="324" y="530" on="1"/>
        <pt x="304" y="391" on="1"/>
        <pt x="381" y="391" on="1"/>
        <pt x="368" y="297" on="1"/>
      </contour>
    </TTGlyph>
    <TTGlyph name="Euro" xMin="19" yMin="-10" xMax="607" yMax="692">
      <contour>
        <pt x="109" y="225" on="1"/>
        <pt x="19" y="225" on="1"/>
        <pt x="32" y="317" on="1"/>
        <pt x="110" y="317" on="1"/>
        <pt x="117" y="365" on="1"/>
        <pt x="39" y="365" on="1"/>
        <pt x="52" y="457" on="1"/>
        <pt x="142" y="457" on="1"/>
        <pt x="173" y="542" on="0"/>
        <pt x="292" y="652" on="0"/>
        <pt x="413" y="692" on="0"/>
        <pt x="549" y="692" on="0"/>
        <pt x="607" y="674" on="1"/>
        <pt x="585" y="514" on="1"/>
        <pt x="542" y="532" on="0"/>
        <pt x="485" y="532" on="1"/>
        <pt x="398" y="532" on="0"/>
        <pt x="349" y="457" on="1"/>
        <pt x="486" y="457" on="1"/>
        <pt x="473" y="365" on="1"/>
        <pt x="315" y="365" on="1"/>
        <pt x="308" y="339" on="0"/>
        <pt x="308" y="317" on="1"/>
        <pt x="466" y="317" on="1"/>
        <pt x="453" y="225" on="1"/>
        <pt x="320" y="225" on="1"/>
        <pt x="350" y="156" on="0"/>
        <pt x="444" y="156" on="1"/>
        <pt x="491" y="156" on="0"/>
        <pt x="538" y="182" on="1"/>
        <pt x="515" y="15" on="1"/>
        <pt x="440" y="-10" on="0"/>
        <pt x="330" y="-10" on="0"/>
        <pt x="247" y="13" on="0"/>
        <pt x="169" y="64" on="0"/>
        <pt x="116" y="160" on="0"/>
      </contour>
    </TTGlyph>
    <TTGlyph name="F" xMin="16" yMin="0" xMax="609" yMax="686">
      <contour>
        <pt x="221" y="0" on="1"/>
        <pt x="16" y="0" on="1"/>
        <pt x="113" y="686" on="1"/>
        <pt x="609" y="686" on="1"/>
        <pt x="566" y="523" on="1"/>
        <pt x="295" y="523" on="1"/>
        <pt x="279" y="411" on="1"/>
        <pt x="531" y="411" on="1"/>
        <pt x="509" y="257" on="1"/>
        <pt x="257" y="257" on="1"/>
      </contour>
    </TTGlyph>
    <TTGlyph name="G" xMin="28" yMin="-10" xMax="680" yMax="696">
      <contour>
        <pt x="680" y="479" on="1"/>
        <pt x="680" y="460" on="0"/>
        <pt x="677" y="439" on="1"/>
        <pt x="483" y="439" on="1"/>
        <pt x="484" y="442" on="0"/>
        <pt x="484" y="449" on="1"/>
        <pt x="484" y="459" on="1"/>
        <pt x="484" y="500" on="0"/>
        <pt x="436" y="540" on="0"/>
        <pt x="397" y="540" on="1"/>
        <pt x="392" y="540" on="1"/>
        <pt x="345" y="540" on="0"/>
        <pt x="284" y="484" on="0"/>
        <pt x="278" y="440" on="1"/>
        <pt x="251" y="247" on="1"/>
        <pt x="250" y="244" on="0"/>
        <pt x="250" y="240" on="1"/>
        <pt x="250" y="233" on="1"/>
        <pt x="250" y="196" on="0"/>
        <pt x="299" y="147" on="0"/>
        <pt x="337" y="147" on="1"/>
        <pt x="355" y="147" on="1"/>
        <pt x="397" y="147" on="0"/>
        <pt x="449" y="200" on="0"/>
        <pt x="456" y="248" on="1"/>
        <pt x="340" y="248" on="1"/>
        <pt x="359" y="384" on="1"/>
        <pt x="669" y="384" on="1"/>
        <pt x="636" y="144" on="1"/>
        <pt x="629" y="101" on="0"/>
        <pt x="625" y="48" on="0"/>
        <pt x="622" y="10" on="0"/>
        <pt x="622" y="0" on="1"/>
        <pt x="510" y="0" on="1"/>
        <pt x="493" y="73" on="1"/>
        <pt x="407" y="-10" on="0"/>
        <pt x="285" y="-10" on="1"/>
        <pt x="275" y="-10" on="1"/>
        <pt x="164" y="-10" on="0"/>
        <pt x="28" y="134" on="0"/>
        <pt x="28" y="244" on="1"/>
        <pt x="28" y="266" on="0"/>
        <pt x="31" y="290" on="1"/>
        <pt x="46" y="396" on="1"/>
        <pt x="65" y="526" on="0"/>
        <pt x="257" y="696" on="0"/>
        <pt x="407" y="696" on="1"/>
        <pt x="435" y="696" on="1"/>
        <pt x="540" y="696" on="0"/>
        <pt x="680" y="574" on="0"/>
      </contour>
    </TTGlyph>
    <TTGlyph name="H" xMin="16" yMin="0" xMax="696" yMax="686">
      <contour>
        <pt x="227" y="0" on="1"/>
        <pt x="16" y="0" on="1"/>
        <pt x="113" y="686" on="1"/>
        <pt x="323" y="686" on="1"/>
        <pt x="287" y="433" on="1"/>
        <pt x="449" y="433" on="1"/>
        <pt x="485" y="686" on="1"/>
        <pt x="696" y="686" on="1"/>
        <pt x="599" y="0" on="1"/>
        <pt x="389" y="0" on="1"/>
        <pt x="427" y="267" on="1"/>
        <pt x="265" y="267" on="1"/>
      </contour>
    </TTGlyph>
    <TTGlyph name="I" xMin="-5" yMin="0" xMax="466" yMax="686">
      <contour>
        <pt x="369" y="0" on="1"/>
        <pt x="-5" y="0" on="1"/>
        <pt x="16" y="148" on="1"/>
        <pt x="97" y="148" on="1"/>
        <pt x="152" y="539" on="1"/>
        <pt x="71" y="539" on="1"/>
        <pt x="92" y="686" on="1"/>
        <pt x="466" y="686" on="1"/>
        <pt x="445" y="539" on="1"/>
        <pt x="364" y="539" on="1"/>
        <pt x="309" y="148" on="1"/>
        <pt x="390" y="148" on="1"/>
      </contour>
    </TTGlyph>
    <TTGlyph name="Iacute" xMin="-5" yMin="0" xMax="488" yMax="895">
      <contour>
        <pt x="369" y="0" on="1"/>
        <pt x="-5" y="0" on="1"/>
        <pt x="16" y="148" on="1"/>
        <pt x="97" y="148" on="1"/>
        <pt x="152" y="539" on="1"/>
        <pt x="71" y="539" on="1"/>
        <pt x="92" y="686" on="1"/>
        <pt x="466" y="686" on="1"/>
        <pt x="445" y="539" on="1"/>
        <pt x="364" y="539" on="1"/>
        <pt x="309" y="148" on="1"/>
        <pt x="390" y="148" on="1"/>
      </contour>
      <contour>
        <pt x="342" y="750" on="1"/>
        <pt x="224" y="750" on="1"/>
        <pt x="336" y="895" on="1"/>
        <pt x="487" y="895" on="1"/>
        <pt x="488" y="892" on="1"/>
      </contour>
    </TTGlyph>
    <TTGlyph name="Icircumflex" xMin="-5" yMin="0" xMax="487" yMax="895">
      <contour>
        <pt x="369" y="0" on="1"/>
        <pt x="-5" y="0" on="1"/>
        <pt x="16" y="148" on="1"/>
        <pt x="97" y="148" on="1"/>
        <pt x="152" y="539" on="1"/>
        <pt x="71" y="539" on="1"/>
        <pt x="92" y="686" on="1"/>
        <pt x="466" y="686" on="1"/>
        <pt x="445" y="539" on="1"/>
        <pt x="364" y="539" on="1"/>
        <pt x="309" y="148" on="1"/>
        <pt x="390" y="148" on="1"/>
      </contour>
      <contour>
        <pt x="209" y="750" on="1"/>
        <pt x="81" y="750" on="1"/>
        <pt x="241" y="895" on="1"/>
        <pt x="369" y="895" on="1"/>
        <pt x="487" y="750" on="1"/>
        <pt x="357" y="750" on="1"/>
        <pt x="294" y="827" on="1"/>
      </contour>
    </TTGlyph>
    <TTGlyph name="Idieresis" xMin="-5" yMin="0" xMax="491" yMax="897">
      <contour>
        <pt x="369" y="0" on="1"/>
        <pt x="-5" y="0" on="1"/>
        <pt x="16" y="148" on="1"/>
        <pt x="97" y="148" on="1"/>
        <pt x="152" y="539" on="1"/>
        <pt x="71" y="539" on="1"/>
        <pt x="92" y="686" on="1"/>
        <pt x="466" y="686" on="1"/>
        <pt x="445" y="539" on="1"/>
        <pt x="364" y="539" on="1"/>
        <pt x="309" y="148" on="1"/>
        <pt x="390" y="148" on="1"/>
      </contour>
      <contour>
        <pt x="250" y="750" on="1"/>
        <pt x="98" y="750" on="1"/>
        <pt x="119" y="897" on="1"/>
        <pt x="271" y="897" on="1"/>
      </contour>
      <contour>
        <pt x="470" y="750" on="1"/>
        <pt x="318" y="750" on="1"/>
        <pt x="339" y="897" on="1"/>
        <pt x="491" y="897" on="1"/>
      </contour>
    </TTGlyph>
    <TTGlyph name="Igrave" xMin="-5" yMin="0" xMax="466" yMax="895">
      <contour>
        <pt x="369" y="0" on="1"/>
        <pt x="-5" y="0" on="1"/>
        <pt x="16" y="148" on="1"/>
        <pt x="97" y="148" on="1"/>
        <pt x="152" y="539" on="1"/>
        <pt x="71" y="539" on="1"/>
        <pt x="92" y="686" on="1"/>
        <pt x="466" y="686" on="1"/>
        <pt x="445" y="539" on="1"/>
        <pt x="364" y="539" on="1"/>
        <pt x="309" y="148" on="1"/>
        <pt x="390" y="148" on="1"/>
      </contour>
      <contour>
        <pt x="220" y="750" on="1"/>
        <pt x="114" y="892" on="1"/>
        <pt x="117" y="895" on="1"/>
        <pt x="268" y="895" on="1"/>
        <pt x="338" y="750" on="1"/>
      </contour>
    </TTGlyph>
    <TTGlyph name="J" xMin="-9" yMin="-10" xMax="544" yMax="686">
      <contour>
        <pt x="-9" y="147" on="1"/>
        <pt x="-9" y="158" on="1"/>
        <pt x="-9" y="177" on="0"/>
        <pt x="3" y="248" on="1"/>
        <pt x="195" y="248" on="1"/>
        <pt x="190" y="216" on="1"/>
        <pt x="185" y="188" on="0"/>
        <pt x="185" y="161" on="0"/>
        <pt x="206" y="140" on="0"/>
        <pt x="239" y="140" on="0"/>
        <pt x="266" y="165" on="0"/>
        <pt x="269" y="186" on="1"/>
        <pt x="339" y="686" on="1"/>
        <pt x="544" y="686" on="1"/>
        <pt x="473" y="180" on="1"/>
        <pt x="459" y="89" on="0"/>
        <pt x="320" y="-10" on="0"/>
        <pt x="217" y="-10" on="1"/>
        <pt x="186" y="-10" on="1"/>
        <pt x="93" y="-10" on="0"/>
        <pt x="-9" y="72" on="0"/>
      </contour>
    </TTGlyph>
    <TTGlyph name="K" xMin="16" yMin="0" xMax="745" yMax="686">
      <contour>
        <pt x="220" y="0" on="1"/>
        <pt x="16" y="0" on="1"/>
        <pt x="113" y="686" on="1"/>
        <pt x="317" y="686" on="1"/>
        <pt x="279" y="415" on="1"/>
        <pt x="513" y="686" on="1"/>
        <pt x="745" y="686" on="1"/>
        <pt x="497" y="411" on="1"/>
        <pt x="654" y="0" on="1"/>
        <pt x="419" y="0" on="1"/>
        <pt x="335" y="248" on="1"/>
        <pt x="242" y="152" on="1"/>
      </contour>
    </TTGlyph>
    <TTGlyph name="L" xMin="16" yMin="0" xMax="497" yMax="686">
      <contour>
        <pt x="497" y="0" on="1"/>
        <pt x="16" y="0" on="1"/>
        <pt x="113" y="686" on="1"/>
        <pt x="325" y="686" on="1"/>
        <pt x="252" y="168" on="1"/>
        <pt x="497" y="168" on="1"/>
      </contour>
    </TTGlyph>
    <TTGlyph name="Lslash" xMin="2" yMin="0" xMax="506" yMax="686">
      <contour>
        <pt x="72" y="288" on="1"/>
        <pt x="2" y="255" on="1"/>
        <pt x="17" y="360" on="1"/>
        <pt x="87" y="393" on="1"/>
        <pt x="128" y="686" on="1"/>
        <pt x="340" y="686" on="1"/>
        <pt x="313" y="499" on="1"/>
        <pt x="411" y="544" on="1"/>
        <pt x="396" y="439" on="1"/>
        <pt x="299" y="394" on="1"/>
        <pt x="267" y="168" on="1"/>
        <pt x="506" y="168" on="1"/>
        <pt x="506" y="0" on="1"/>
        <pt x="31" y="0" on="1"/>
      </contour>
    </TTGlyph>
    <TTGlyph name="M" xMin="16" yMin="0" xMax="1003" yMax="686">
      <contour>
        <pt x="207" y="0" on="1"/>
        <pt x="16" y="0" on="1"/>
        <pt x="113" y="686" on="1"/>
        <pt x="457" y="686" on="1"/>
        <pt x="504" y="320" on="1"/>
        <pt x="508" y="320" on="1"/>
        <pt x="657" y="686" on="1"/>
        <pt x="1003" y="686" on="1"/>
        <pt x="906" y="0" on="1"/>
        <pt x="696" y="0" on="1"/>
        <pt x="758" y="440" on="1"/>
        <pt x="754" y="440" on="1"/>
        <pt x="572" y="0" on="1"/>
        <pt x="331" y="0" on="1"/>
        <pt x="274" y="440" on="1"/>
        <pt x="269" y="440" on="1"/>
      </contour>
    </TTGlyph>
    <TTGlyph name="N" xMin="16" yMin="0" xMax="695" yMax="686">
      <contour>
        <pt x="209" y="0" on="1"/>
        <pt x="16" y="0" on="1"/>
        <pt x="113" y="686" on="1"/>
        <pt x="289" y="686" on="1"/>
        <pt x="429" y="431" on="1"/>
        <pt x="457" y="375" on="1"/>
        <pt x="501" y="686" on="1"/>
        <pt x="695" y="686" on="1"/>
        <pt x="598" y="0" on="1"/>
        <pt x="418" y="0" on="1"/>
        <pt x="282" y="246" on="1"/>
        <pt x="271" y="268" on="0"/>
        <pt x="265" y="278" on="1"/>
        <pt x="252" y="304" on="1"/>
      </contour>
    </TTGlyph>
    <TTGlyph name="Ntilde" xMin="16" yMin="0" xMax="695" yMax="889">
      <contour>
        <pt x="209" y="0" on="1"/>
        <pt x="16" y="0" on="1"/>
        <pt x="113" y="686" on="1"/>
        <pt x="289" y="686" on="1"/>
        <pt x="429" y="431" on="1"/>
        <pt x="457" y="375" on="1"/>
        <pt x="501" y="686" on="1"/>
        <pt x="695" y="686" on="1"/>
        <pt x="598" y="0" on="1"/>
        <pt x="418" y="0" on="1"/>
        <pt x="282" y="246" on="1"/>
        <pt x="271" y="268" on="0"/>
        <pt x="265" y="278" on="1"/>
        <pt x="252" y="304" on="1"/>
      </contour>
      <contour>
        <pt x="273" y="746" on="1"/>
        <pt x="193" y="746" on="1"/>
        <pt x="202" y="803" on="0"/>
        <pt x="292" y="889" on="0"/>
        <pt x="353" y="889" on="1"/>
        <pt x="386" y="889" on="0"/>
        <pt x="494" y="849" on="0"/>
        <pt x="520" y="849" on="1"/>
        <pt x="557" y="849" on="0"/>
        <pt x="576" y="889" on="1"/>
        <pt x="657" y="889" on="1"/>
        <pt x="648" y="832" on="0"/>
        <pt x="558" y="746" on="0"/>
        <pt x="496" y="746" on="1"/>
        <pt x="463" y="746" on="0"/>
        <pt x="354" y="786" on="0"/>
        <pt x="329" y="786" on="1"/>
        <pt x="292" y="786" on="0"/>
      </contour>
    </TTGlyph>
    <TTGlyph name="O" xMin="28" yMin="-10" xMax="705" yMax="694">
      <contour>
        <pt x="28" y="248" on="1"/>
        <pt x="28" y="261" on="0"/>
        <pt x="65" y="522" on="0"/>
        <pt x="252" y="694" on="0"/>
        <pt x="388" y="694" on="1"/>
        <pt x="444" y="694" on="1"/>
        <pt x="557" y="694" on="0"/>
        <pt x="705" y="546" on="0"/>
        <pt x="705" y="436" on="1"/>
        <pt x="705" y="423" on="0"/>
        <pt x="668" y="161" on="0"/>
        <pt x="482" y="-10" on="0"/>
        <pt x="345" y="-10" on="1"/>
        <pt x="289" y="-10" on="1"/>
        <pt x="176" y="-10" on="0"/>
        <pt x="28" y="138" on="0"/>
      </contour>
      <contour>
        <pt x="250" y="240" on="1"/>
        <pt x="250" y="233" on="1"/>
        <pt x="250" y="196" on="0"/>
        <pt x="299" y="147" on="0"/>
        <pt x="337" y="147" on="1"/>
        <pt x="342" y="147" on="1"/>
        <pt x="391" y="147" on="0"/>
        <pt x="450" y="203" on="0"/>
        <pt x="456" y="247" on="1"/>
        <pt x="483" y="440" on="1"/>
        <pt x="484" y="443" on="0"/>
        <pt x="484" y="454" on="1"/>
        <pt x="484" y="490" on="0"/>
        <pt x="435" y="540" on="0"/>
        <pt x="397" y="540" on="1"/>
        <pt x="392" y="540" on="1"/>
        <pt x="343" y="540" on="0"/>
        <pt x="284" y="484" on="0"/>
        <pt x="278" y="440" on="1"/>
        <pt x="251" y="247" on="1"/>
        <pt x="250" y="245" on="0"/>
      </contour>
    </TTGlyph>
    <TTGlyph name="OE" xMin="28" yMin="0" xMax="1032" yMax="686">
      <contour>
        <pt x="28" y="248" on="1"/>
        <pt x="28" y="261" on="0"/>
        <pt x="46" y="394" on="1"/>
        <pt x="65" y="519" on="0"/>
        <pt x="252" y="686" on="0"/>
        <pt x="388" y="686" on="1"/>
        <pt x="1032" y="686" on="1"/>
        <pt x="990" y="528" on="1"/>
        <pt x="701" y="528" on="1"/>
        <pt x="686" y="428" on="1"/>
        <pt x="964" y="428" on="1"/>
        <pt x="943" y="275" on="1"/>
        <pt x="665" y="275" on="1"/>
        <pt x="649" y="164" on="1"/>
        <pt x="935" y="164" on="1"/>
        <pt x="935" y="0" on="1"/>
        <pt x="289" y="0" on="1"/>
        <pt x="176" y="0" on="0"/>
        <pt x="28" y="142" on="0"/>
      </contour>
      <contour>
        <pt x="250" y="243" on="1"/>
        <pt x="250" y="206" on="0"/>
        <pt x="299" y="157" on="0"/>
        <pt x="337" y="157" on="1"/>
        <pt x="342" y="157" on="1"/>
        <pt x="391" y="157" on="0"/>
        <pt x="450" y="213" on="0"/>
        <pt x="456" y="257" on="1"/>
        <pt x="483" y="432" on="1"/>
        <pt x="484" y="435" on="0"/>
        <pt x="484" y="446" on="1"/>
        <pt x="484" y="483" on="0"/>
        <pt x="435" y="532" on="0"/>
        <pt x="397" y="532" on="1"/>
        <pt x="392" y="532" on="1"/>
        <pt x="343" y="532" on="0"/>
        <pt x="284" y="476" on="0"/>
        <pt x="278" y="432" on="1"/>
        <pt x="251" y="257" on="1"/>
        <pt x="250" y="254" on="0"/>
      </contour>
    </TTGlyph>
    <TTGlyph name="Oacute" xMin="28" yMin="-10" xMax="705" yMax="895">
      <contour>
        <pt x="28" y="248" on="1"/>
        <pt x="28" y="261" on="0"/>
        <pt x="65" y="522" on="0"/>
        <pt x="252" y="694" on="0"/>
        <pt x="388" y="694" on="1"/>
        <pt x="444" y="694" on="1"/>
        <pt x="557" y="694" on="0"/>
        <pt x="705" y="546" on="0"/>
        <pt x="705" y="436" on="1"/>
        <pt x="705" y="423" on="0"/>
        <pt x="668" y="161" on="0"/>
        <pt x="482" y="-10" on="0"/>
        <pt x="345" y="-10" on="1"/>
        <pt x="289" y="-10" on="1"/>
        <pt x="176" y="-10" on="0"/>
        <pt x="28" y="138" on="0"/>
      </contour>
      <contour>
        <pt x="250" y="240" on="1"/>
        <pt x="250" y="233" on="1"/>
        <pt x="250" y="196" on="0"/>
        <pt x="299" y="147" on="0"/>
        <pt x="337" y="147" on="1"/>
        <pt x="342" y="147" on="1"/>
        <pt x="391" y="147" on="0"/>
        <pt x="450" y="203" on="0"/>
        <pt x="456" y="247" on="1"/>
        <pt x="483" y="440" on="1"/>
        <pt x="484" y="443" on="0"/>
        <pt x="484" y="454" on="1"/>
        <pt x="484" y="490" on="0"/>
        <pt x="435" y="540" on="0"/>
        <pt x="397" y="540" on="1"/>
        <pt x="392" y="540" on="1"/>
        <pt x="343" y="540" on="0"/>
        <pt x="284" y="484" on="0"/>
        <pt x="278" y="440" on="1"/>
        <pt x="251" y="247" on="1"/>
        <pt x="250" y="244" on="0"/>
      </contour>
      <contour>
        <pt x="488" y="750" on="1"/>
        <pt x="370" y="750" on="1"/>
        <pt x="482" y="895" on="1"/>
        <pt x="633" y="895" on="1"/>
        <pt x="634" y="892" on="1"/>
      </contour>
    </TTGlyph>
    <TTGlyph name="Ocircumflex" xMin="28" yMin="-10" xMax="705" yMax="895">
      <contour>
        <pt x="28" y="248" on="1"/>
        <pt x="28" y="261" on="0"/>
        <pt x="65" y="522" on="0"/>
        <pt x="252" y="694" on="0"/>
        <pt x="388" y="694" on="1"/>
        <pt x="444" y="694" on="1"/>
        <pt x="557" y="694" on="0"/>
        <pt x="705" y="546" on="0"/>
        <pt x="705" y="436" on="1"/>
        <pt x="705" y="423" on="0"/>
        <pt x="668" y="161" on="0"/>
        <pt x="482" y="-10" on="0"/>
        <pt x="345" y="-10" on="1"/>
        <pt x="289" y="-10" on="1"/>
        <pt x="176" y="-10" on="0"/>
        <pt x="28" y="138" on="0"/>
      </contour>
      <contour>
        <pt x="350" y="750" on="1"/>
        <pt x="222" y="750" on="1"/>
        <pt x="382" y="895" on="1"/>
        <pt x="510" y="895" on="1"/>
        <pt x="628" y="750" on="1"/>
        <pt x="498" y="750" on="1"/>
        <pt x="435" y="827" on="1"/>
      </contour>
      <contour>
        <pt x="250" y="240" on="1"/>
        <pt x="250" y="233" on="1"/>
        <pt x="250" y="196" on="0"/>
        <pt x="299" y="147" on="0"/>
        <pt x="337" y="147" on="1"/>
        <pt x="342" y="147" on="1"/>
        <pt x="391" y="147" on="0"/>
        <pt x="450" y="203" on="0"/>
        <pt x="456" y="247" on="1"/>
        <pt x="483" y="440" on="1"/>
        <pt x="484" y="443" on="0"/>
        <pt x="484" y="454" on="1"/>
        <pt x="484" y="490" on="0"/>
        <pt x="435" y="540" on="0"/>
        <pt x="397" y="540" on="1"/>
        <pt x="392" y="540" on="1"/>
        <pt x="343" y="540" on="0"/>
        <pt x="284" y="484" on="0"/>
        <pt x="278" y="440" on="1"/>
        <pt x="251" y="247" on="1"/>
        <pt x="250" y="244" on="0"/>
      </contour>
    </TTGlyph>
    <TTGlyph name="Odieresis" xMin="28" yMin="-10" xMax="705" yMax="897">
      <contour>
        <pt x="28" y="248" on="1"/>
        <pt x="28" y="261" on="0"/>
        <pt x="65" y="522" on="0"/>
        <pt x="252" y="694" on="0"/>
        <pt x="388" y="694" on="1"/>
        <pt x="444" y="694" on="1"/>
        <pt x="557" y="694" on="0"/>
        <pt x="705" y="546" on="0"/>
        <pt x="705" y="436" on="1"/>
        <pt x="705" y="423" on="0"/>
        <pt x="668" y="161" on="0"/>
        <pt x="482" y="-10" on="0"/>
        <pt x="345" y="-10" on="1"/>
        <pt x="289" y="-10" on="1"/>
        <pt x="176" y="-10" on="0"/>
        <pt x="28" y="138" on="0"/>
      </contour>
      <contour>
        <pt x="395" y="750" on="1"/>
        <pt x="243" y="750" on="1"/>
        <pt x="264" y="897" on="1"/>
        <pt x="416" y="897" on="1"/>
      </contour>
      <contour>
        <pt x="250" y="240" on="1"/>
        <pt x="250" y="233" on="1"/>
        <pt x="250" y="196" on="0"/>
        <pt x="299" y="147" on="0"/>
        <pt x="337" y="147" on="1"/>
        <pt x="342" y="147" on="1"/>
        <pt x="391" y="147" on="0"/>
        <pt x="450" y="203" on="0"/>
        <pt x="456" y="247" on="1"/>
        <pt x="483" y="440" on="1"/>
        <pt x="484" y="443" on="0"/>
        <pt x="484" y="454" on="1"/>
        <pt x="484" y="490" on="0"/>
        <pt x="435" y="540" on="0"/>
        <pt x="397" y="540" on="1"/>
        <pt x="392" y="540" on="1"/>
        <pt x="343" y="540" on="0"/>
        <pt x="284" y="484" on="0"/>
        <pt x="278" y="440" on="1"/>
        <pt x="251" y="247" on="1"/>
        <pt x="250" y="244" on="0"/>
      </contour>
      <contour>
        <pt x="615" y="750" on="1"/>
        <pt x="463" y="750" on="1"/>
        <pt x="484" y="897" on="1"/>
        <pt x="636" y="897" on="1"/>
      </contour>
    </TTGlyph>
    <TTGlyph name="Ograve" xMin="28" yMin="-10" xMax="705" yMax="895">
      <contour>
        <pt x="28" y="248" on="1"/>
        <pt x="28" y="261" on="0"/>
        <pt x="65" y="522" on="0"/>
        <pt x="252" y="694" on="0"/>
        <pt x="388" y="694" on="1"/>
        <pt x="444" y="694" on="1"/>
        <pt x="557" y="694" on="0"/>
        <pt x="705" y="546" on="0"/>
        <pt x="705" y="436" on="1"/>
        <pt x="705" y="423" on="0"/>
        <pt x="668" y="161" on="0"/>
        <pt x="482" y="-10" on="0"/>
        <pt x="345" y="-10" on="1"/>
        <pt x="289" y="-10" on="1"/>
        <pt x="176" y="-10" on="0"/>
        <pt x="28" y="138" on="0"/>
      </contour>
      <contour>
        <pt x="250" y="240" on="1"/>
        <pt x="250" y="233" on="1"/>
        <pt x="250" y="196" on="0"/>
        <pt x="299" y="147" on="0"/>
        <pt x="337" y="147" on="1"/>
        <pt x="342" y="147" on="1"/>
        <pt x="391" y="147" on="0"/>
        <pt x="450" y="203" on="0"/>
        <pt x="456" y="247" on="1"/>
        <pt x="483" y="440" on="1"/>
        <pt x="484" y="443" on="0"/>
        <pt x="484" y="454" on="1"/>
        <pt x="484" y="490" on="0"/>
        <pt x="435" y="540" on="0"/>
        <pt x="397" y="540" on="1"/>
        <pt x="392" y="540" on="1"/>
        <pt x="343" y="540" on="0"/>
        <pt x="284" y="484" on="0"/>
        <pt x="278" y="440" on="1"/>
        <pt x="251" y="247" on="1"/>
        <pt x="250" y="244" on="0"/>
      </contour>
      <contour>
        <pt x="357" y="750" on="1"/>
        <pt x="251" y="892" on="1"/>
        <pt x="254" y="895" on="1"/>
        <pt x="405" y="895" on="1"/>
        <pt x="475" y="750" on="1"/>
      </contour>
    </TTGlyph>
    <TTGlyph name="Oslash" xMin="4" yMin="-65" xMax="726" yMax="754">
      <contour>
        <pt x="111" y="-65" on="1"/>
        <pt x="4" y="-65" on="1"/>
        <pt x="101" y="64" on="1"/>
        <pt x="28" y="137" on="0"/>
        <pt x="28" y="248" on="1"/>
        <pt x="28" y="261" on="0"/>
        <pt x="65" y="522" on="0"/>
        <pt x="252" y="694" on="0"/>
        <pt x="388" y="694" on="1"/>
        <pt x="444" y="694" on="1"/>
        <pt x="502" y="694" on="0"/>
        <pt x="556" y="671" on="1"/>
        <pt x="618" y="754" on="1"/>
        <pt x="726" y="754" on="1"/>
        <pt x="628" y="623" on="1"/>
        <pt x="705" y="548" on="0"/>
        <pt x="705" y="436" on="1"/>
        <pt x="705" y="423" on="0"/>
        <pt x="668" y="161" on="0"/>
        <pt x="482" y="-10" on="0"/>
        <pt x="345" y="-10" on="1"/>
        <pt x="289" y="-10" on="1"/>
        <pt x="229" y="-10" on="0"/>
        <pt x="171" y="15" on="1"/>
      </contour>
      <contour>
        <pt x="278" y="440" on="1"/>
        <pt x="254" y="268" on="1"/>
        <pt x="446" y="525" on="1"/>
        <pt x="423" y="540" on="0"/>
        <pt x="397" y="540" on="1"/>
        <pt x="392" y="540" on="1"/>
        <pt x="343" y="540" on="0"/>
        <pt x="284" y="484" on="0"/>
      </contour>
      <contour>
        <pt x="481" y="428" on="1"/>
        <pt x="283" y="164" on="1"/>
        <pt x="306" y="147" on="0"/>
        <pt x="337" y="147" on="1"/>
        <pt x="342" y="147" on="1"/>
        <pt x="391" y="147" on="0"/>
        <pt x="450" y="203" on="0"/>
        <pt x="456" y="247" on="1"/>
      </contour>
    </TTGlyph>
    <TTGlyph name="Otilde" xMin="28" yMin="-10" xMax="705" yMax="888">
      <contour>
        <pt x="28" y="248" on="1"/>
        <pt x="28" y="261" on="0"/>
        <pt x="65" y="522" on="0"/>
        <pt x="252" y="694" on="0"/>
        <pt x="388" y="694" on="1"/>
        <pt x="444" y="694" on="1"/>
        <pt x="557" y="694" on="0"/>
        <pt x="705" y="546" on="0"/>
        <pt x="705" y="436" on="1"/>
        <pt x="705" y="423" on="0"/>
        <pt x="668" y="161" on="0"/>
        <pt x="482" y="-10" on="0"/>
        <pt x="345" y="-10" on="1"/>
        <pt x="289" y="-10" on="1"/>
        <pt x="176" y="-10" on="0"/>
        <pt x="28" y="138" on="0"/>
      </contour>
      <contour>
        <pt x="290" y="745" on="1"/>
        <pt x="210" y="745" on="1"/>
        <pt x="219" y="802" on="0"/>
        <pt x="309" y="888" on="0"/>
        <pt x="370" y="888" on="1"/>
        <pt x="403" y="888" on="0"/>
        <pt x="511" y="848" on="0"/>
        <pt x="537" y="848" on="1"/>
        <pt x="574" y="848" on="0"/>
        <pt x="593" y="888" on="1"/>
        <pt x="674" y="888" on="1"/>
        <pt x="665" y="831" on="0"/>
        <pt x="575" y="745" on="0"/>
        <pt x="513" y="745" on="1"/>
        <pt x="480" y="745" on="0"/>
        <pt x="371" y="785" on="0"/>
        <pt x="346" y="785" on="1"/>
        <pt x="309" y="785" on="0"/>
      </contour>
      <contour>
        <pt x="250" y="240" on="1"/>
        <pt x="250" y="233" on="1"/>
        <pt x="250" y="196" on="0"/>
        <pt x="299" y="147" on="0"/>
        <pt x="337" y="147" on="1"/>
        <pt x="342" y="147" on="1"/>
        <pt x="391" y="147" on="0"/>
        <pt x="450" y="203" on="0"/>
        <pt x="456" y="247" on="1"/>
        <pt x="483" y="440" on="1"/>
        <pt x="484" y="443" on="0"/>
        <pt x="484" y="454" on="1"/>
        <pt x="484" y="490" on="0"/>
        <pt x="435" y="540" on="0"/>
        <pt x="397" y="540" on="1"/>
        <pt x="392" y="540" on="1"/>
        <pt x="343" y="540" on="0"/>
        <pt x="284" y="484" on="0"/>
        <pt x="278" y="440" on="1"/>
        <pt x="251" y="247" on="1"/>
        <pt x="250" y="244" on="0"/>
      </contour>
    </TTGlyph>
    <TTGlyph name="P" xMin="16" yMin="0" xMax="660" yMax="686">
      <contour>
        <pt x="226" y="0" on="1"/>
        <pt x="16" y="0" on="1"/>
        <pt x="113" y="686" on="1"/>
        <pt x="478" y="686" on="1"/>
        <pt x="557" y="686" on="0"/>
        <pt x="660" y="582" on="0"/>
        <pt x="660" y="505" on="1"/>
        <pt x="660" y="494" on="0"/>
        <pt x="655" y="454" on="1"/>
        <pt x="643" y="364" on="0"/>
        <pt x="512" y="244" on="0"/>
        <pt x="416" y="244" on="1"/>
        <pt x="261" y="244" on="1"/>
      </contour>
      <contour>
        <pt x="301" y="529" on="1"/>
        <pt x="282" y="397" on="1"/>
        <pt x="374" y="397" on="1"/>
        <pt x="404" y="397" on="0"/>
        <pt x="440" y="433" on="0"/>
        <pt x="443" y="457" on="1"/>
        <pt x="445" y="478" on="1"/>
        <pt x="445" y="499" on="0"/>
        <pt x="418" y="529" on="0"/>
        <pt x="393" y="529" on="1"/>
      </contour>
    </TTGlyph>
    <TTGlyph name="Q" xMin="28" yMin="-162" xMax="704" yMax="694">
      <contour>
        <pt x="28" y="247" on="1"/>
        <pt x="28" y="266" on="0"/>
        <pt x="61" y="521" on="0"/>
        <pt x="254" y="694" on="0"/>
        <pt x="388" y="694" on="1"/>
        <pt x="444" y="694" on="1"/>
        <pt x="557" y="694" on="0"/>
        <pt x="704" y="548" on="0"/>
        <pt x="704" y="437" on="1"/>
        <pt x="704" y="405" on="0"/>
        <pt x="692" y="326" on="0"/>
        <pt x="687" y="290" on="1"/>
        <pt x="672" y="187" on="0"/>
        <pt x="549" y="37" on="0"/>
        <pt x="444" y="6" on="1"/>
        <pt x="457" y="-39" on="0"/>
        <pt x="564" y="-39" on="0"/>
        <pt x="632" y="-19" on="1"/>
        <pt x="645" y="-15" on="1"/>
        <pt x="630" y="-120" on="1"/>
        <pt x="607" y="-132" on="0"/>
        <pt x="577" y="-141" on="1"/>
        <pt x="514" y="-162" on="0"/>
        <pt x="443" y="-162" on="1"/>
        <pt x="340" y="-162" on="0"/>
        <pt x="237" y="-66" on="0"/>
        <pt x="232" y="-4" on="1"/>
        <pt x="140" y="14" on="0"/>
        <pt x="28" y="151" on="0"/>
      </contour>
      <contour>
        <pt x="250" y="240" on="1"/>
        <pt x="250" y="233" on="1"/>
        <pt x="250" y="196" on="0"/>
        <pt x="299" y="147" on="0"/>
        <pt x="337" y="147" on="1"/>
        <pt x="342" y="147" on="1"/>
        <pt x="391" y="147" on="0"/>
        <pt x="450" y="203" on="0"/>
        <pt x="456" y="247" on="1"/>
        <pt x="483" y="440" on="1"/>
        <pt x="484" y="443" on="0"/>
        <pt x="484" y="454" on="1"/>
        <pt x="484" y="490" on="0"/>
        <pt x="435" y="540" on="0"/>
        <pt x="397" y="540" on="1"/>
        <pt x="392" y="540" on="1"/>
        <pt x="343" y="540" on="0"/>
        <pt x="284" y="484" on="0"/>
        <pt x="278" y="440" on="1"/>
        <pt x="251" y="247" on="1"/>
        <pt x="250" y="244" on="0"/>
      </contour>
    </TTGlyph>
    <TTGlyph name="R" xMin="16" yMin="-10" xMax="665" yMax="686">
      <contour>
        <pt x="382" y="88" on="1"/>
        <pt x="390" y="179" on="1"/>
        <pt x="390" y="266" on="0"/>
        <pt x="316" y="266" on="1"/>
        <pt x="258" y="266" on="1"/>
        <pt x="221" y="0" on="1"/>
        <pt x="16" y="0" on="1"/>
        <pt x="112" y="686" on="1"/>
        <pt x="497" y="686" on="1"/>
        <pt x="567" y="686" on="0"/>
        <pt x="665" y="604" on="0"/>
        <pt x="665" y="466" on="0"/>
        <pt x="579" y="364" on="0"/>
        <pt x="518" y="354" on="1"/>
        <pt x="517" y="349" on="1"/>
        <pt x="605" y="322" on="0"/>
        <pt x="605" y="213" on="1"/>
        <pt x="598" y="122" on="1"/>
        <pt x="598" y="60" on="0"/>
        <pt x="636" y="50" on="1"/>
        <pt x="630" y="9" on="1"/>
        <pt x="581" y="-10" on="0"/>
        <pt x="446" y="-10" on="0"/>
        <pt x="382" y="36" on="0"/>
      </contour>
      <contour>
        <pt x="295" y="529" on="1"/>
        <pt x="280" y="419" on="1"/>
        <pt x="386" y="419" on="1"/>
        <pt x="410" y="419" on="0"/>
        <pt x="440" y="447" on="0"/>
        <pt x="443" y="469" on="1"/>
        <pt x="444" y="488" on="1"/>
        <pt x="444" y="506" on="0"/>
        <pt x="419" y="529" on="0"/>
        <pt x="401" y="529" on="1"/>
      </contour>
    </TTGlyph>
    <TTGlyph name="S" xMin="12" yMin="-10" xMax="640" yMax="696">
      <contour>
        <pt x="12" y="177" on="1"/>
        <pt x="12" y="196" on="0"/>
        <pt x="18" y="234" on="1"/>
        <pt x="212" y="234" on="1"/>
        <pt x="208" y="225" on="0"/>
        <pt x="208" y="212" on="1"/>
        <pt x="208" y="151" on="0"/>
        <pt x="293" y="151" on="1"/>
        <pt x="394" y="151" on="0"/>
        <pt x="394" y="199" on="1"/>
        <pt x="394" y="235" on="0"/>
        <pt x="308" y="250" on="1"/>
        <pt x="225" y="265" on="0"/>
        <pt x="149" y="300" on="1"/>
        <pt x="112" y="317" on="0"/>
        <pt x="63" y="391" on="0"/>
        <pt x="63" y="443" on="1"/>
        <pt x="63" y="565" on="0"/>
        <pt x="242" y="696" on="0"/>
        <pt x="388" y="696" on="1"/>
        <pt x="500" y="696" on="0"/>
        <pt x="640" y="606" on="0"/>
        <pt x="640" y="517" on="1"/>
        <pt x="640" y="494" on="0"/>
        <pt x="636" y="474" on="1"/>
        <pt x="444" y="474" on="1"/>
        <pt x="445" y="493" on="1"/>
        <pt x="445" y="515" on="0"/>
        <pt x="407" y="544" on="0"/>
        <pt x="327" y="544" on="0"/>
        <pt x="281" y="518" on="0"/>
        <pt x="281" y="477" on="0"/>
        <pt x="331" y="450" on="0"/>
        <pt x="405" y="436" on="0"/>
        <pt x="492" y="411" on="0"/>
        <pt x="566" y="379" on="0"/>
        <pt x="616" y="310" on="0"/>
        <pt x="616" y="209" on="0"/>
        <pt x="584" y="119" on="0"/>
        <pt x="511" y="37" on="0"/>
        <pt x="372" y="-10" on="0"/>
        <pt x="162" y="-10" on="0"/>
        <pt x="12" y="85" on="0"/>
      </contour>
    </TTGlyph>
    <TTGlyph name="Scaron" xMin="12" yMin="-10" xMax="640" yMax="895">
      <contour>
        <pt x="12" y="177" on="1"/>
        <pt x="12" y="196" on="0"/>
        <pt x="18" y="234" on="1"/>
        <pt x="212" y="234" on="1"/>
        <pt x="208" y="225" on="0"/>
        <pt x="208" y="212" on="1"/>
        <pt x="208" y="151" on="0"/>
        <pt x="293" y="151" on="1"/>
        <pt x="394" y="151" on="0"/>
        <pt x="394" y="199" on="1"/>
        <pt x="394" y="235" on="0"/>
        <pt x="308" y="250" on="1"/>
        <pt x="225" y="265" on="0"/>
        <pt x="149" y="300" on="1"/>
        <pt x="112" y="317" on="0"/>
        <pt x="63" y="391" on="0"/>
        <pt x="63" y="443" on="1"/>
        <pt x="63" y="565" on="0"/>
        <pt x="242" y="696" on="0"/>
        <pt x="388" y="696" on="1"/>
        <pt x="500" y="696" on="0"/>
        <pt x="640" y="606" on="0"/>
        <pt x="640" y="517" on="1"/>
        <pt x="640" y="494" on="0"/>
        <pt x="636" y="474" on="1"/>
        <pt x="444" y="474" on="1"/>
        <pt x="445" y="493" on="1"/>
        <pt x="445" y="515" on="0"/>
        <pt x="407" y="544" on="0"/>
        <pt x="327" y="544" on="0"/>
        <pt x="281" y="518" on="0"/>
        <pt x="281" y="477" on="0"/>
        <pt x="331" y="450" on="0"/>
        <pt x="405" y="436" on="0"/>
        <pt x="492" y="411" on="0"/>
        <pt x="566" y="379" on="0"/>
        <pt x="616" y="310" on="0"/>
        <pt x="616" y="209" on="0"/>
        <pt x="584" y="119" on="0"/>
        <pt x="511" y="37" on="0"/>
        <pt x="372" y="-10" on="0"/>
        <pt x="162" y="-10" on="0"/>
        <pt x="12" y="85" on="0"/>
      </contour>
      <contour>
        <pt x="322" y="750" on="1"/>
        <pt x="204" y="895" on="1"/>
        <pt x="334" y="895" on="1"/>
        <pt x="397" y="818" on="1"/>
        <pt x="482" y="895" on="1"/>
        <pt x="610" y="895" on="1"/>
        <pt x="450" y="750" on="1"/>
      </contour>
    </TTGlyph>
    <TTGlyph name="T" xMin="47" yMin="0" xMax="626" yMax="686">
      <contour>
        <pt x="221" y="521" on="1"/>
        <pt x="47" y="521" on="1"/>
        <pt x="70" y="686" on="1"/>
        <pt x="626" y="686" on="1"/>
        <pt x="603" y="521" on="1"/>
        <pt x="429" y="521" on="1"/>
        <pt x="355" y="0" on="1"/>
        <pt x="147" y="0" on="1"/>
      </contour>
    </TTGlyph>
    <TTGlyph name="Thorn" xMin="16" yMin="0" xMax="646" yMax="686">
      <contour>
        <pt x="225" y="0" on="1"/>
        <pt x="16" y="0" on="1"/>
        <pt x="113" y="686" on="1"/>
        <pt x="322" y="686" on="1"/>
        <pt x="307" y="583" on="1"/>
        <pt x="463" y="583" on="1"/>
        <pt x="542" y="583" on="0"/>
        <pt x="646" y="479" on="0"/>
        <pt x="646" y="402" on="1"/>
        <pt x="646" y="296" on="0"/>
        <pt x="506" y="146" on="0"/>
        <pt x="402" y="146" on="1"/>
        <pt x="246" y="146" on="1"/>
      </contour>
      <contour>
        <pt x="285" y="427" on="1"/>
        <pt x="267" y="294" on="1"/>
        <pt x="370" y="294" on="1"/>
        <pt x="390" y="294" on="0"/>
        <pt x="424" y="323" on="0"/>
        <pt x="431" y="379" on="0"/>
        <pt x="431" y="403" on="0"/>
        <pt x="407" y="427" on="0"/>
        <pt x="388" y="427" on="1"/>
      </contour>
    </TTGlyph>
    <TTGlyph name="U" xMin="39" yMin="-10" xMax="690" yMax="686">
      <contour>
        <pt x="39" y="182" on="1"/>
        <pt x="39" y="200" on="0"/>
        <pt x="42" y="218" on="1"/>
        <pt x="107" y="686" on="1"/>
        <pt x="318" y="686" on="1"/>
        <pt x="253" y="221" on="1"/>
        <pt x="252" y="218" on="0"/>
        <pt x="252" y="210" on="1"/>
        <pt x="252" y="181" on="0"/>
        <pt x="293" y="146" on="0"/>
        <pt x="324" y="146" on="1"/>
        <pt x="403" y="146" on="0"/>
        <pt x="415" y="221" on="1"/>
        <pt x="480" y="686" on="1"/>
        <pt x="690" y="686" on="1"/>
        <pt x="625" y="218" on="1"/>
        <pt x="609" y="111" on="0"/>
        <pt x="455" y="-10" on="0"/>
        <pt x="323" y="-10" on="1"/>
        <pt x="280" y="-10" on="1"/>
        <pt x="169" y="-10" on="0"/>
        <pt x="39" y="94" on="0"/>
      </contour>
    </TTGlyph>
    <TTGlyph name="Uacute" xMin="39" yMin="-10" xMax="690" yMax="895">
      <contour>
        <pt x="39" y="182" on="1"/>
        <pt x="39" y="200" on="0"/>
        <pt x="42" y="218" on="1"/>
        <pt x="107" y="686" on="1"/>
        <pt x="318" y="686" on="1"/>
        <pt x="253" y="221" on="1"/>
        <pt x="252" y="218" on="0"/>
        <pt x="252" y="210" on="1"/>
        <pt x="252" y="181" on="0"/>
        <pt x="293" y="146" on="0"/>
        <pt x="324" y="146" on="1"/>
        <pt x="403" y="146" on="0"/>
        <pt x="415" y="221" on="1"/>
        <pt x="480" y="686" on="1"/>
        <pt x="690" y="686" on="1"/>
        <pt x="625" y="218" on="1"/>
        <pt x="609" y="111" on="0"/>
        <pt x="455" y="-10" on="0"/>
        <pt x="323" y="-10" on="1"/>
        <pt x="280" y="-10" on="1"/>
        <pt x="169" y="-10" on="0"/>
        <pt x="39" y="94" on="0"/>
      </contour>
      <contour>
        <pt x="463" y="750" on="1"/>
        <pt x="345" y="750" on="1"/>
        <pt x="457" y="895" on="1"/>
        <pt x="608" y="895" on="1"/>
        <pt x="609" y="892" on="1"/>
      </contour>
    </TTGlyph>
    <TTGlyph name="Ucircumflex" xMin="39" yMin="-10" xMax="690" yMax="895">
      <contour>
        <pt x="39" y="182" on="1"/>
        <pt x="39" y="200" on="0"/>
        <pt x="42" y="218" on="1"/>
        <pt x="107" y="686" on="1"/>
        <pt x="318" y="686" on="1"/>
        <pt x="253" y="221" on="1"/>
        <pt x="252" y="218" on="0"/>
        <pt x="252" y="210" on="1"/>
        <pt x="252" y="181" on="0"/>
        <pt x="293" y="146" on="0"/>
        <pt x="324" y="146" on="1"/>
        <pt x="403" y="146" on="0"/>
        <pt x="415" y="221" on="1"/>
        <pt x="480" y="686" on="1"/>
        <pt x="690" y="686" on="1"/>
        <pt x="625" y="218" on="1"/>
        <pt x="609" y="111" on="0"/>
        <pt x="455" y="-10" on="0"/>
        <pt x="323" y="-10" on="1"/>
        <pt x="280" y="-10" on="1"/>
        <pt x="169" y="-10" on="0"/>
        <pt x="39" y="94" on="0"/>
      </contour>
      <contour>
        <pt x="331" y="750" on="1"/>
        <pt x="203" y="750" on="1"/>
        <pt x="363" y="895" on="1"/>
        <pt x="491" y="895" on="1"/>
        <pt x="609" y="750" on="1"/>
        <pt x="479" y="750" on="1"/>
        <pt x="416" y="827" on="1"/>
      </contour>
    </TTGlyph>
    <TTGlyph name="Udieresis" xMin="39" yMin="-10" xMax="690" yMax="897">
      <contour>
        <pt x="39" y="182" on="1"/>
        <pt x="39" y="200" on="0"/>
        <pt x="42" y="218" on="1"/>
        <pt x="107" y="686" on="1"/>
        <pt x="318" y="686" on="1"/>
        <pt x="253" y="221" on="1"/>
        <pt x="252" y="218" on="0"/>
        <pt x="252" y="210" on="1"/>
        <pt x="252" y="181" on="0"/>
        <pt x="293" y="146" on="0"/>
        <pt x="324" y="146" on="1"/>
        <pt x="403" y="146" on="0"/>
        <pt x="415" y="221" on="1"/>
        <pt x="480" y="686" on="1"/>
        <pt x="690" y="686" on="1"/>
        <pt x="625" y="218" on="1"/>
        <pt x="609" y="111" on="0"/>
        <pt x="455" y="-10" on="0"/>
        <pt x="323" y="-10" on="1"/>
        <pt x="280" y="-10" on="1"/>
        <pt x="169" y="-10" on="0"/>
        <pt x="39" y="94" on="0"/>
      </contour>
      <contour>
        <pt x="370" y="750" on="1"/>
        <pt x="218" y="750" on="1"/>
        <pt x="239" y="897" on="1"/>
        <pt x="391" y="897" on="1"/>
      </contour>
      <contour>
        <pt x="590" y="750" on="1"/>
        <pt x="438" y="750" on="1"/>
        <pt x="459" y="897" on="1"/>
        <pt x="611" y="897" on="1"/>
      </contour>
    </TTGlyph>
    <TTGlyph name="Ugrave" xMin="39" yMin="-10" xMax="690" yMax="895">
      <contour>
        <pt x="39" y="182" on="1"/>
        <pt x="39" y="200" on="0"/>
        <pt x="42" y="218" on="1"/>
        <pt x="107" y="686" on="1"/>
        <pt x="318" y="686" on="1"/>
        <pt x="253" y="221" on="1"/>
        <pt x="252" y="218" on="0"/>
        <pt x="252" y="210" on="1"/>
        <pt x="252" y="181" on="0"/>
        <pt x="293" y="146" on="0"/>
        <pt x="324" y="146" on="1"/>
        <pt x="403" y="146" on="0"/>
        <pt x="415" y="221" on="1"/>
        <pt x="480" y="686" on="1"/>
        <pt x="690" y="686" on="1"/>
        <pt x="625" y="218" on="1"/>
        <pt x="609" y="111" on="0"/>
        <pt x="455" y="-10" on="0"/>
        <pt x="323" y="-10" on="1"/>
        <pt x="280" y="-10" on="1"/>
        <pt x="169" y="-10" on="0"/>
        <pt x="39" y="94" on="0"/>
      </contour>
      <contour>
        <pt x="345" y="750" on="1"/>
        <pt x="239" y="892" on="1"/>
        <pt x="242" y="895" on="1"/>
        <pt x="393" y="895" on="1"/>
        <pt x="463" y="750" on="1"/>
      </contour>
    </TTGlyph>
    <TTGlyph name="V" xMin="51" yMin="0" xMax="714" yMax="686">
      <contour>
        <pt x="159" y="0" on="1"/>
        <pt x="51" y="686" on="1"/>
        <pt x="269" y="686" on="1"/>
        <pt x="329" y="260" on="1"/>
        <pt x="333" y="260" on="1"/>
        <pt x="512" y="686" on="1"/>
        <pt x="714" y="686" on="1"/>
        <pt x="409" y="0" on="1"/>
      </contour>
    </TTGlyph>
    <TTGlyph name="W" xMin="53" yMin="0" xMax="1078" yMax="686">
      <contour>
        <pt x="143" y="0" on="1"/>
        <pt x="53" y="686" on="1"/>
        <pt x="270" y="686" on="1"/>
        <pt x="313" y="305" on="1"/>
        <pt x="317" y="305" on="1"/>
        <pt x="469" y="686" on="1"/>
        <pt x="684" y="686" on="1"/>
        <pt x="726" y="305" on="1"/>
        <pt x="730" y="305" on="1"/>
        <pt x="881" y="686" on="1"/>
        <pt x="1078" y="686" on="1"/>
        <pt x="795" y="0" on="1"/>
        <pt x="557" y="0" on="1"/>
        <pt x="521" y="329" on="1"/>
        <pt x="515" y="329" on="1"/>
        <pt x="385" y="0" on="1"/>
      </contour>
    </TTGlyph>
    <TTGlyph name="X" xMin="-56" yMin="0" xMax="724" yMax="686">
      <contour>
        <pt x="169" y="0" on="1"/>
        <pt x="-56" y="0" on="1"/>
        <pt x="209" y="363" on="1"/>
        <pt x="62" y="686" on="1"/>
        <pt x="305" y="686" on="1"/>
        <pt x="375" y="511" on="1"/>
        <pt x="379" y="511" on="1"/>
        <pt x="499" y="686" on="1"/>
        <pt x="724" y="686" on="1"/>
        <pt x="484" y="362" on="1"/>
        <pt x="648" y="0" on="1"/>
        <pt x="404" y="0" on="1"/>
        <pt x="318" y="213" on="1"/>
        <pt x="314" y="213" on="1"/>
      </contour>
    </TTGlyph>
    <TTGlyph name="Y" xMin="44" yMin="0" xMax="708" yMax="686">
      <contour>
        <pt x="212" y="262" on="1"/>
        <pt x="44" y="686" on="1"/>
        <pt x="280" y="686" on="1"/>
        <pt x="351" y="461" on="1"/>
        <pt x="356" y="461" on="1"/>
        <pt x="493" y="686" on="1"/>
        <pt x="708" y="686" on="1"/>
        <pt x="421" y="262" on="1"/>
        <pt x="384" y="0" on="1"/>
        <pt x="175" y="0" on="1"/>
      </contour>
    </TTGlyph>
    <TTGlyph name="Yacute" xMin="44" yMin="0" xMax="708" yMax="895">
      <contour>
        <pt x="212" y="262" on="1"/>
        <pt x="44" y="686" on="1"/>
        <pt x="280" y="686" on="1"/>
        <pt x="351" y="461" on="1"/>
        <pt x="356" y="461" on="1"/>
        <pt x="493" y="686" on="1"/>
        <pt x="708" y="686" on="1"/>
        <pt x="421" y="262" on="1"/>
        <pt x="384" y="0" on="1"/>
        <pt x="175" y="0" on="1"/>
      </contour>
      <contour>
        <pt x="453" y="750" on="1"/>
        <pt x="335" y="750" on="1"/>
        <pt x="447" y="895" on="1"/>
        <pt x="598" y="895" on="1"/>
        <pt x="599" y="892" on="1"/>
      </contour>
    </TTGlyph>
    <TTGlyph name="Ydieresis" xMin="44" yMin="0" xMax="708" yMax="897">
      <contour>
        <pt x="212" y="262" on="1"/>
        <pt x="44" y="686" on="1"/>
        <pt x="280" y="686" on="1"/>
        <pt x="351" y="461" on="1"/>
        <pt x="356" y="461" on="1"/>
        <pt x="493" y="686" on="1"/>
        <pt x="708" y="686" on="1"/>
        <pt x="421" y="262" on="1"/>
        <pt x="384" y="0" on="1"/>
        <pt x="175" y="0" on="1"/>
      </contour>
      <contour>
        <pt x="351" y="750" on="1"/>
        <pt x="199" y="750" on="1"/>
        <pt x="220" y="897" on="1"/>
        <pt x="372" y="897" on="1"/>
      </contour>
      <contour>
        <pt x="571" y="750" on="1"/>
        <pt x="419" y="750" on="1"/>
        <pt x="440" y="897" on="1"/>
        <pt x="592" y="897" on="1"/>
      </contour>
    </TTGlyph>
    <TTGlyph name="Z" xMin="-27" yMin="0" xMax="632" yMax="686">
      <contour>
        <pt x="543" y="0" on="1"/>
        <pt x="-27" y="0" on="1"/>
        <pt x="-18" y="61" on="1"/>
        <pt x="315" y="526" on="1"/>
        <pt x="70" y="526" on="1"/>
        <pt x="93" y="686" on="1"/>
        <pt x="632" y="686" on="1"/>
        <pt x="623" y="625" on="1"/>
        <pt x="294" y="161" on="1"/>
        <pt x="566" y="161" on="1"/>
      </contour>
    </TTGlyph>
    <TTGlyph name="Zcaron" xMin="-27" yMin="0" xMax="632" yMax="895">
      <contour>
        <pt x="543" y="0" on="1"/>
        <pt x="-27" y="0" on="1"/>
        <pt x="-18" y="61" on="1"/>
        <pt x="315" y="526" on="1"/>
        <pt x="70" y="526" on="1"/>
        <pt x="93" y="686" on="1"/>
        <pt x="632" y="686" on="1"/>
        <pt x="623" y="625" on="1"/>
        <pt x="294" y="161" on="1"/>
        <pt x="566" y="161" on="1"/>
      </contour>
      <contour>
        <pt x="308" y="750" on="1"/>
        <pt x="190" y="895" on="1"/>
        <pt x="320" y="895" on="1"/>
        <pt x="383" y="818" on="1"/>
        <pt x="468" y="895" on="1"/>
        <pt x="596" y="895" on="1"/>
        <pt x="436" y="750" on="1"/>
      </contour>
    </TTGlyph>
    <TTGlyph name="a" xMin="17" yMin="-10" xMax="591" yMax="521">
      <contour>
        <pt x="17" y="193" on="1"/>
        <pt x="17" y="311" on="0"/>
        <pt x="72" y="410" on="1"/>
        <pt x="100" y="460" on="0"/>
        <pt x="196" y="521" on="0"/>
        <pt x="247" y="521" on="1"/>
        <pt x="349" y="521" on="0"/>
        <pt x="393" y="450" on="1"/>
        <pt x="398" y="450" on="1"/>
        <pt x="432" y="511" on="1"/>
        <pt x="581" y="511" on="1"/>
        <pt x="564" y="410" on="0"/>
        <pt x="528" y="153" on="0"/>
        <pt x="528" y="137" on="1"/>
        <pt x="528" y="110" on="0"/>
        <pt x="554" y="110" on="1"/>
        <pt x="571" y="110" on="0"/>
        <pt x="591" y="123" on="1"/>
        <pt x="576" y="13" on="1"/>
        <pt x="532" y="-10" on="0"/>
        <pt x="419" y="-10" on="0"/>
        <pt x="348" y="22" on="0"/>
        <pt x="337" y="68" on="1"/>
        <pt x="310" y="34" on="0"/>
        <pt x="229" y="-10" on="0"/>
        <pt x="188" y="-10" on="1"/>
        <pt x="100" y="-10" on="0"/>
        <pt x="17" y="102" on="0"/>
      </contour>
      <contour>
        <pt x="213" y="170" on="1"/>
        <pt x="213" y="144" on="0"/>
        <pt x="243" y="111" on="0"/>
        <pt x="297" y="111" on="0"/>
        <pt x="334" y="150" on="0"/>
        <pt x="338" y="181" on="1"/>
        <pt x="348" y="253" on="1"/>
        <pt x="359" y="334" on="0"/>
        <pt x="359" y="338" on="1"/>
        <pt x="359" y="366" on="0"/>
        <pt x="330" y="396" on="0"/>
        <pt x="279" y="396" on="0"/>
        <pt x="238" y="356" on="0"/>
        <pt x="234" y="326" on="1"/>
        <pt x="213" y="178" on="0"/>
      </contour>
    </TTGlyph>
    <TTGlyph name="aacute" xMin="17" yMin="-10" xMax="591" yMax="720">
      <contour>
        <pt x="17" y="193" on="1"/>
        <pt x="17" y="311" on="0"/>
        <pt x="72" y="410" on="1"/>
        <pt x="100" y="460" on="0"/>
        <pt x="196" y="521" on="0"/>
        <pt x="247" y="521" on="1"/>
        <pt x="349" y="521" on="0"/>
        <pt x="393" y="450" on="1"/>
        <pt x="398" y="450" on="1"/>
        <pt x="432" y="511" on="1"/>
        <pt x="581" y="511" on="1"/>
        <pt x="564" y="410" on="0"/>
        <pt x="528" y="153" on="0"/>
        <pt x="528" y="137" on="1"/>
        <pt x="528" y="110" on="0"/>
        <pt x="554" y="110" on="1"/>
        <pt x="571" y="110" on="0"/>
        <pt x="591" y="123" on="1"/>
        <pt x="576" y="13" on="1"/>
        <pt x="532" y="-10" on="0"/>
        <pt x="419" y="-10" on="0"/>
        <pt x="348" y="22" on="0"/>
        <pt x="337" y="68" on="1"/>
        <pt x="310" y="34" on="0"/>
        <pt x="229" y="-10" on="0"/>
        <pt x="188" y="-10" on="1"/>
        <pt x="100" y="-10" on="0"/>
        <pt x="17" y="102" on="0"/>
      </contour>
      <contour>
        <pt x="213" y="170" on="1"/>
        <pt x="213" y="144" on="0"/>
        <pt x="243" y="111" on="0"/>
        <pt x="297" y="111" on="0"/>
        <pt x="334" y="150" on="0"/>
        <pt x="338" y="181" on="1"/>
        <pt x="348" y="253" on="1"/>
        <pt x="359" y="334" on="0"/>
        <pt x="359" y="338" on="1"/>
        <pt x="359" y="366" on="0"/>
        <pt x="330" y="396" on="0"/>
        <pt x="279" y="396" on="0"/>
        <pt x="238" y="356" on="0"/>
        <pt x="234" y="326" on="1"/>
        <pt x="213" y="178" on="0"/>
      </contour>
      <contour>
        <pt x="382" y="575" on="1"/>
        <pt x="264" y="575" on="1"/>
        <pt x="376" y="720" on="1"/>
        <pt x="527" y="720" on="1"/>
        <pt x="528" y="717" on="1"/>
      </contour>
    </TTGlyph>
    <TTGlyph name="acircumflex" xMin="17" yMin="-10" xMax="591" yMax="720">
      <contour>
        <pt x="17" y="193" on="1"/>
        <pt x="17" y="311" on="0"/>
        <pt x="72" y="410" on="1"/>
        <pt x="100" y="460" on="0"/>
        <pt x="196" y="521" on="0"/>
        <pt x="247" y="521" on="1"/>
        <pt x="349" y="521" on="0"/>
        <pt x="393" y="450" on="1"/>
        <pt x="398" y="450" on="1"/>
        <pt x="432" y="511" on="1"/>
        <pt x="581" y="511" on="1"/>
        <pt x="564" y="410" on="0"/>
        <pt x="528" y="153" on="0"/>
        <pt x="528" y="137" on="1"/>
        <pt x="528" y="110" on="0"/>
        <pt x="554" y="110" on="1"/>
        <pt x="571" y="110" on="0"/>
        <pt x="591" y="123" on="1"/>
        <pt x="576" y="13" on="1"/>
        <pt x="532" y="-10" on="0"/>
        <pt x="419" y="-10" on="0"/>
        <pt x="348" y="22" on="0"/>
        <pt x="337" y="68" on="1"/>
        <pt x="310" y="34" on="0"/>
        <pt x="229" y="-10" on="0"/>
        <pt x="188" y="-10" on="1"/>
        <pt x="100" y="-10" on="0"/>
        <pt x="17" y="102" on="0"/>
      </contour>
      <contour>
        <pt x="276" y="575" on="1"/>
        <pt x="148" y="575" on="1"/>
        <pt x="308" y="720" on="1"/>
        <pt x="436" y="720" on="1"/>
        <pt x="554" y="575" on="1"/>
        <pt x="424" y="575" on="1"/>
        <pt x="361" y="652" on="1"/>
      </contour>
      <contour>
        <pt x="213" y="170" on="1"/>
        <pt x="213" y="144" on="0"/>
        <pt x="243" y="111" on="0"/>
        <pt x="297" y="111" on="0"/>
        <pt x="334" y="150" on="0"/>
        <pt x="338" y="181" on="1"/>
        <pt x="348" y="253" on="1"/>
        <pt x="359" y="334" on="0"/>
        <pt x="359" y="338" on="1"/>
        <pt x="359" y="366" on="0"/>
        <pt x="330" y="396" on="0"/>
        <pt x="279" y="396" on="0"/>
        <pt x="238" y="356" on="0"/>
        <pt x="234" y="326" on="1"/>
        <pt x="213" y="178" on="0"/>
      </contour>
    </TTGlyph>
    <TTGlyph name="acute" xMin="31" yMin="575" xMax="295" yMax="720">
      <contour>
        <pt x="149" y="575" on="1"/>
        <pt x="31" y="575" on="1"/>
        <pt x="143" y="720" on="1"/>
        <pt x="294" y="720" on="1"/>
        <pt x="295" y="717" on="1"/>
      </contour>
    </TTGlyph>
    <TTGlyph name="adieresis" xMin="17" yMin="-10" xMax="591" yMax="720">
      <contour>
        <pt x="17" y="193" on="1"/>
        <pt x="17" y="311" on="0"/>
        <pt x="72" y="410" on="1"/>
        <pt x="100" y="460" on="0"/>
        <pt x="196" y="521" on="0"/>
        <pt x="247" y="521" on="1"/>
        <pt x="349" y="521" on="0"/>
        <pt x="393" y="450" on="1"/>
        <pt x="398" y="450" on="1"/>
        <pt x="432" y="511" on="1"/>
        <pt x="581" y="511" on="1"/>
        <pt x="564" y="410" on="0"/>
        <pt x="528" y="153" on="0"/>
        <pt x="528" y="137" on="1"/>
        <pt x="528" y="110" on="0"/>
        <pt x="554" y="110" on="1"/>
        <pt x="571" y="110" on="0"/>
        <pt x="591" y="123" on="1"/>
        <pt x="576" y="13" on="1"/>
        <pt x="532" y="-10" on="0"/>
        <pt x="419" y="-10" on="0"/>
        <pt x="348" y="22" on="0"/>
        <pt x="337" y="68" on="1"/>
        <pt x="310" y="34" on="0"/>
        <pt x="229" y="-10" on="0"/>
        <pt x="188" y="-10" on="1"/>
        <pt x="100" y="-10" on="0"/>
        <pt x="17" y="102" on="0"/>
      </contour>
      <contour>
        <pt x="328" y="573" on="1"/>
        <pt x="176" y="573" on="1"/>
        <pt x="197" y="720" on="1"/>
        <pt x="349" y="720" on="1"/>
      </contour>
      <contour>
        <pt x="213" y="170" on="1"/>
        <pt x="213" y="144" on="0"/>
        <pt x="243" y="111" on="0"/>
        <pt x="297" y="111" on="0"/>
        <pt x="334" y="150" on="0"/>
        <pt x="338" y="181" on="1"/>
        <pt x="348" y="253" on="1"/>
        <pt x="359" y="334" on="0"/>
        <pt x="359" y="338" on="1"/>
        <pt x="359" y="366" on="0"/>
        <pt x="330" y="396" on="0"/>
        <pt x="279" y="396" on="0"/>
        <pt x="238" y="356" on="0"/>
        <pt x="234" y="326" on="1"/>
        <pt x="213" y="178" on="0"/>
      </contour>
      <contour>
        <pt x="548" y="573" on="1"/>
        <pt x="396" y="573" on="1"/>
        <pt x="417" y="720" on="1"/>
        <pt x="569" y="720" on="1"/>
      </contour>
    </TTGlyph>
    <TTGlyph name="ae" xMin="1" yMin="-10" xMax="898" yMax="521">
      <contour>
        <pt x="362" y="316" on="1"/>
        <pt x="367" y="356" on="1"/>
        <pt x="367" y="379" on="0"/>
        <pt x="335" y="405" on="0"/>
        <pt x="286" y="405" on="0"/>
        <pt x="241" y="378" on="0"/>
        <pt x="239" y="358" on="1"/>
        <pt x="238" y="354" on="1"/>
        <pt x="48" y="354" on="1"/>
        <pt x="48" y="424" on="0"/>
        <pt x="197" y="521" on="0"/>
        <pt x="311" y="521" on="1"/>
        <pt x="344" y="521" on="1"/>
        <pt x="442" y="521" on="0"/>
        <pt x="500" y="487" on="1"/>
        <pt x="569" y="521" on="0"/>
        <pt x="656" y="521" on="1"/>
        <pt x="681" y="521" on="1"/>
        <pt x="786" y="521" on="0"/>
        <pt x="898" y="417" on="0"/>
        <pt x="898" y="330" on="1"/>
        <pt x="898" y="320" on="1"/>
        <pt x="896" y="303" on="1"/>
        <pt x="895" y="288" on="0"/>
        <pt x="887" y="229" on="1"/>
        <pt x="554" y="229" on="1"/>
        <pt x="547" y="181" on="1"/>
        <pt x="546" y="178" on="0"/>
        <pt x="546" y="170" on="1"/>
        <pt x="546" y="142" on="0"/>
        <pt x="584" y="111" on="0"/>
        <pt x="649" y="111" on="0"/>
        <pt x="693" y="154" on="0"/>
        <pt x="698" y="192" on="1"/>
        <pt x="881" y="192" on="1"/>
        <pt x="869" y="105" on="0"/>
        <pt x="718" y="-10" on="0"/>
        <pt x="603" y="-10" on="1"/>
        <pt x="588" y="-10" on="1"/>
        <pt x="463" y="-10" on="0"/>
        <pt x="395" y="58" on="1"/>
        <pt x="308" y="-10" on="0"/>
        <pt x="175" y="-10" on="1"/>
        <pt x="1" y="-10" on="0"/>
        <pt x="1" y="114" on="1"/>
        <pt x="1" y="254" on="0"/>
        <pt x="142" y="293" on="1"/>
        <pt x="225" y="316" on="0"/>
      </contour>
      <contour>
        <pt x="211" y="149" on="1"/>
        <pt x="211" y="111" on="0"/>
        <pt x="265" y="111" on="1"/>
        <pt x="293" y="111" on="0"/>
        <pt x="338" y="150" on="0"/>
        <pt x="343" y="181" on="1"/>
        <pt x="349" y="225" on="1"/>
        <pt x="211" y="225" on="0"/>
      </contour>
      <contour>
        <pt x="705" y="326" on="1"/>
        <pt x="706" y="339" on="1"/>
        <pt x="706" y="365" on="0"/>
        <pt x="673" y="400" on="0"/>
        <pt x="617" y="400" on="0"/>
        <pt x="572" y="360" on="0"/>
        <pt x="568" y="330" on="1"/>
        <pt x="566" y="316" on="1"/>
        <pt x="704" y="316" on="1"/>
        <pt x="704" y="323" on="0"/>
      </contour>
    </TTGlyph>
    <TTGlyph name="agrave" xMin="17" yMin="-10" xMax="591" yMax="720">
      <contour>
        <pt x="17" y="193" on="1"/>
        <pt x="17" y="311" on="0"/>
        <pt x="72" y="410" on="1"/>
        <pt x="100" y="460" on="0"/>
        <pt x="196" y="521" on="0"/>
        <pt x="247" y="521" on="1"/>
        <pt x="349" y="521" on="0"/>
        <pt x="393" y="450" on="1"/>
        <pt x="398" y="450" on="1"/>
        <pt x="432" y="511" on="1"/>
        <pt x="581" y="511" on="1"/>
        <pt x="564" y="410" on="0"/>
        <pt x="528" y="153" on="0"/>
        <pt x="528" y="137" on="1"/>
        <pt x="528" y="110" on="0"/>
        <pt x="554" y="110" on="1"/>
        <pt x="571" y="110" on="0"/>
        <pt x="591" y="123" on="1"/>
        <pt x="576" y="13" on="1"/>
        <pt x="532" y="-10" on="0"/>
        <pt x="419" y="-10" on="0"/>
        <pt x="348" y="22" on="0"/>
        <pt x="337" y="68" on="1"/>
        <pt x="310" y="34" on="0"/>
        <pt x="229" y="-10" on="0"/>
        <pt x="188" y="-10" on="1"/>
        <pt x="100" y="-10" on="0"/>
        <pt x="17" y="102" on="0"/>
      </contour>
      <contour>
        <pt x="291" y="575" on="1"/>
        <pt x="185" y="717" on="1"/>
        <pt x="188" y="720" on="1"/>
        <pt x="339" y="720" on="1"/>
        <pt x="409" y="575" on="1"/>
      </contour>
      <contour>
        <pt x="213" y="170" on="1"/>
        <pt x="213" y="144" on="0"/>
        <pt x="243" y="111" on="0"/>
        <pt x="297" y="111" on="0"/>
        <pt x="334" y="150" on="0"/>
        <pt x="338" y="181" on="1"/>
        <pt x="348" y="253" on="1"/>
        <pt x="359" y="334" on="0"/>
        <pt x="359" y="338" on="1"/>
        <pt x="359" y="366" on="0"/>
        <pt x="330" y="396" on="0"/>
        <pt x="279" y="396" on="0"/>
        <pt x="238" y="356" on="0"/>
        <pt x="234" y="326" on="1"/>
        <pt x="213" y="178" on="0"/>
      </contour>
    </TTGlyph>
    <TTGlyph name="ampersand" xMin="12" yMin="0" xMax="717" yMax="696">
      <contour>
        <pt x="12" y="166" on="1"/>
        <pt x="12" y="322" on="0"/>
        <pt x="160" y="358" on="1"/>
        <pt x="77" y="386" on="0"/>
        <pt x="77" y="583" on="0"/>
        <pt x="233" y="696" on="0"/>
        <pt x="351" y="696" on="1"/>
        <pt x="377" y="696" on="0"/>
        <pt x="401" y="693" on="1"/>
        <pt x="380" y="543" on="1"/>
        <pt x="365" y="548" on="0"/>
        <pt x="352" y="548" on="1"/>
        <pt x="312" y="548" on="0"/>
        <pt x="269" y="510" on="0"/>
        <pt x="269" y="482" on="1"/>
        <pt x="269" y="421" on="0"/>
        <pt x="325" y="421" on="1"/>
        <pt x="446" y="421" on="1"/>
        <pt x="516" y="540" on="1"/>
        <pt x="653" y="540" on="1"/>
        <pt x="637" y="421" on="1"/>
        <pt x="717" y="421" on="1"/>
        <pt x="697" y="279" on="1"/>
        <pt x="617" y="279" on="1"/>
        <pt x="578" y="0" on="1"/>
        <pt x="259" y="0" on="1"/>
        <pt x="189" y="0" on="0"/>
        <pt x="84" y="28" on="0"/>
        <pt x="12" y="105" on="0"/>
      </contour>
      <contour>
        <pt x="252" y="279" on="0"/>
        <pt x="214" y="229" on="0"/>
        <pt x="214" y="168" on="0"/>
        <pt x="257" y="138" on="0"/>
        <pt x="290" y="138" on="1"/>
        <pt x="399" y="138" on="1"/>
        <pt x="419" y="279" on="1"/>
        <pt x="305" y="279" on="1"/>
      </contour>
    </TTGlyph>
    <TTGlyph name="approxequal" xMin="-9" yMin="45" xMax="616" yMax="482">
      <contour>
        <pt x="-9" y="45" on="1"/>
        <pt x="8" y="171" on="1"/>
        <pt x="30" y="192" on="0"/>
        <pt x="59" y="210" on="1"/>
        <pt x="125" y="249" on="0"/>
        <pt x="225" y="249" on="0"/>
        <pt x="367" y="183" on="0"/>
        <pt x="472" y="183" on="0"/>
        <pt x="534" y="222" on="1"/>
        <pt x="562" y="238" on="0"/>
        <pt x="585" y="261" on="1"/>
        <pt x="567" y="135" on="1"/>
        <pt x="544" y="112" on="0"/>
        <pt x="516" y="96" on="1"/>
        <pt x="454" y="57" on="0"/>
        <pt x="351" y="57" on="0"/>
        <pt x="210" y="123" on="0"/>
        <pt x="108" y="123" on="0"/>
        <pt x="42" y="84" on="1"/>
        <pt x="14" y="66" on="0"/>
      </contour>
      <contour>
        <pt x="22" y="266" on="1"/>
        <pt x="40" y="392" on="1"/>
        <pt x="62" y="413" on="0"/>
        <pt x="91" y="431" on="1"/>
        <pt x="157" y="470" on="0"/>
        <pt x="256" y="470" on="0"/>
        <pt x="397" y="404" on="0"/>
        <pt x="503" y="404" on="0"/>
        <pt x="565" y="443" on="1"/>
        <pt x="594" y="460" on="0"/>
        <pt x="616" y="482" on="1"/>
        <pt x="599" y="356" on="1"/>
        <pt x="576" y="334" on="0"/>
        <pt x="548" y="317" on="1"/>
        <pt x="486" y="278" on="0"/>
        <pt x="382" y="278" on="0"/>
        <pt x="240" y="344" on="0"/>
        <pt x="139" y="344" on="0"/>
        <pt x="73" y="305" on="1"/>
        <pt x="44" y="287" on="0"/>
      </contour>
    </TTGlyph>
    <TTGlyph name="aring" xMin="17" yMin="-10" xMax="591" yMax="760">
      <contour>
        <pt x="17" y="193" on="1"/>
        <pt x="17" y="311" on="0"/>
        <pt x="72" y="410" on="1"/>
        <pt x="100" y="460" on="0"/>
        <pt x="196" y="521" on="0"/>
        <pt x="247" y="521" on="1"/>
        <pt x="349" y="521" on="0"/>
        <pt x="393" y="450" on="1"/>
        <pt x="398" y="450" on="1"/>
        <pt x="432" y="511" on="1"/>
        <pt x="581" y="511" on="1"/>
        <pt x="564" y="410" on="0"/>
        <pt x="528" y="153" on="0"/>
        <pt x="528" y="137" on="1"/>
        <pt x="528" y="110" on="0"/>
        <pt x="554" y="110" on="1"/>
        <pt x="571" y="110" on="0"/>
        <pt x="591" y="123" on="1"/>
        <pt x="576" y="13" on="1"/>
        <pt x="532" y="-10" on="0"/>
        <pt x="419" y="-10" on="0"/>
        <pt x="348" y="22" on="0"/>
        <pt x="337" y="68" on="1"/>
        <pt x="310" y="34" on="0"/>
        <pt x="229" y="-10" on="0"/>
        <pt x="188" y="-10" on="1"/>
        <pt x="100" y="-10" on="0"/>
        <pt x="17" y="102" on="0"/>
      </contour>
      <contour>
        <pt x="213" y="170" on="1"/>
        <pt x="213" y="144" on="0"/>
        <pt x="243" y="111" on="0"/>
        <pt x="297" y="111" on="0"/>
        <pt x="334" y="150" on="0"/>
        <pt x="338" y="181" on="1"/>
        <pt x="348" y="253" on="1"/>
        <pt x="359" y="334" on="0"/>
        <pt x="359" y="338" on="1"/>
        <pt x="359" y="366" on="0"/>
        <pt x="330" y="396" on="0"/>
        <pt x="279" y="396" on="0"/>
        <pt x="238" y="356" on="0"/>
        <pt x="234" y="326" on="1"/>
        <pt x="213" y="178" on="0"/>
      </contour>
      <contour>
        <pt x="318" y="559" on="0"/>
        <pt x="268" y="608" on="0"/>
        <pt x="268" y="692" on="0"/>
        <pt x="338" y="760" on="0"/>
        <pt x="423" y="760" on="0"/>
        <pt x="472" y="711" on="0"/>
        <pt x="472" y="626" on="0"/>
        <pt x="404" y="559" on="0"/>
      </contour>
      <contour>
        <pt x="358" y="694" on="0"/>
        <pt x="335" y="671" on="0"/>
        <pt x="335" y="641" on="0"/>
        <pt x="352" y="624" on="0"/>
        <pt x="382" y="624" on="0"/>
        <pt x="406" y="644" on="0"/>
        <pt x="406" y="663" on="1"/>
        <pt x="406" y="694" on="0"/>
        <pt x="375" y="694" on="1"/>
      </contour>
    </TTGlyph>
    <TTGlyph name="asciicircum" xMin="-2" yMin="0" xMax="530" yMax="511">
      <contour>
        <pt x="137" y="0" on="1"/>
        <pt x="-2" y="0" on="1"/>
        <pt x="265" y="511" on="1"/>
        <pt x="404" y="511" on="1"/>
        <pt x="530" y="0" on="1"/>
        <pt x="392" y="0" on="1"/>
        <pt x="314" y="350" on="1"/>
      </contour>
    </TTGlyph>
    <TTGlyph name="asciitilde" xMin="29" yMin="190" xMax="624" yMax="406">
      <contour>
        <pt x="29" y="190" on="1"/>
        <pt x="47" y="316" on="1"/>
        <pt x="70" y="337" on="0"/>
        <pt x="98" y="355" on="1"/>
        <pt x="164" y="394" on="0"/>
        <pt x="264" y="394" on="0"/>
        <pt x="406" y="328" on="0"/>
        <pt x="511" y="328" on="0"/>
        <pt x="573" y="367" on="1"/>
        <pt x="602" y="384" on="0"/>
        <pt x="624" y="406" on="1"/>
        <pt x="606" y="280" on="1"/>
        <pt x="584" y="258" on="0"/>
        <pt x="555" y="241" on="1"/>
        <pt x="493" y="202" on="0"/>
        <pt x="389" y="202" on="0"/>
        <pt x="247" y="268" on="0"/>
        <pt x="146" y="268" on="0"/>
        <pt x="80" y="229" on="1"/>
        <pt x="52" y="211" on="0"/>
      </contour>
    </TTGlyph>
    <TTGlyph name="asterisk" xMin="53" yMin="265" xMax="507" yMax="686">
      <contour>
        <pt x="195" y="448" on="1"/>
        <pt x="53" y="483" on="1"/>
        <pt x="107" y="593" on="1"/>
        <pt x="239" y="533" on="1"/>
        <pt x="247" y="686" on="1"/>
        <pt x="367" y="686" on="1"/>
        <pt x="331" y="533" on="1"/>
        <pt x="487" y="593" on="1"/>
        <pt x="507" y="483" on="1"/>
        <pt x="352" y="448" on="1"/>
        <pt x="436" y="335" on="1"/>
        <pt x="326" y="265" on="1"/>
        <pt x="265" y="396" on="1"/>
        <pt x="169" y="265" on="1"/>
        <pt x="79" y="335" on="1"/>
      </contour>
    </TTGlyph>
    <TTGlyph name="at" xMin="23" yMin="-153" xMax="888" yMax="697">
      <contour>
        <pt x="23" y="167" on="1"/>
        <pt x="23" y="213" on="0"/>
        <pt x="30" y="262" on="1"/>
        <pt x="46" y="377" on="0"/>
        <pt x="139" y="549" on="0"/>
        <pt x="208" y="599" on="1"/>
        <pt x="342" y="697" on="0"/>
        <pt x="693" y="697" on="0"/>
        <pt x="888" y="548" on="0"/>
        <pt x="888" y="395" on="1"/>
        <pt x="888" y="292" on="0"/>
        <pt x="835" y="138" on="0"/>
        <pt x="793" y="98" on="1"/>
        <pt x="713" y="22" on="0"/>
        <pt x="525" y="22" on="0"/>
        <pt x="504" y="99" on="1"/>
        <pt x="428" y="23" on="0"/>
        <pt x="339" y="23" on="1"/>
        <pt x="274" y="23" on="0"/>
        <pt x="187" y="82" on="0"/>
        <pt x="187" y="203" on="0"/>
        <pt x="235" y="276" on="0"/>
        <pt x="283" y="295" on="1"/>
        <pt x="369" y="329" on="0"/>
        <pt x="527" y="329" on="1"/>
        <pt x="529" y="343" on="1"/>
        <pt x="531" y="359" on="0"/>
        <pt x="531" y="366" on="1"/>
        <pt x="531" y="388" on="0"/>
        <pt x="501" y="412" on="0"/>
        <pt x="455" y="412" on="0"/>
        <pt x="413" y="387" on="0"/>
        <pt x="411" y="368" on="1"/>
        <pt x="410" y="364" on="1"/>
        <pt x="232" y="364" on="1"/>
        <pt x="232" y="429" on="0"/>
        <pt x="371" y="521" on="0"/>
        <pt x="478" y="521" on="1"/>
        <pt x="509" y="521" on="1"/>
        <pt x="610" y="521" on="0"/>
        <pt x="713" y="449" on="0"/>
        <pt x="713" y="389" on="1"/>
        <pt x="713" y="379" on="1"/>
        <pt x="713" y="372" on="0"/>
        <pt x="712" y="369" on="1"/>
        <pt x="684" y="171" on="1"/>
        <pt x="684" y="136" on="0"/>
        <pt x="712" y="136" on="1"/>
        <pt x="751" y="136" on="0"/>
        <pt x="815" y="279" on="0"/>
        <pt x="815" y="386" on="1"/>
        <pt x="815" y="513" on="0"/>
        <pt x="657" y="636" on="0"/>
        <pt x="517" y="636" on="1"/>
        <pt x="329" y="636" on="0"/>
        <pt x="96" y="398" on="0"/>
        <pt x="96" y="172" on="1"/>
        <pt x="96" y="39" on="0"/>
        <pt x="235" y="-92" on="0"/>
        <pt x="380" y="-92" on="1"/>
        <pt x="417" y="-92" on="0"/>
        <pt x="523" y="-73" on="0"/>
        <pt x="550" y="-60" on="1"/>
        <pt x="541" y="-126" on="1"/>
        <pt x="509" y="-137" on="0"/>
        <pt x="406" y="-153" on="0"/>
        <pt x="372" y="-153" on="1"/>
        <pt x="204" y="-153" on="0"/>
        <pt x="23" y="5" on="0"/>
      </contour>
      <contour>
        <pt x="385" y="172" on="1"/>
        <pt x="385" y="136" on="0"/>
        <pt x="435" y="136" on="1"/>
        <pt x="461" y="136" on="0"/>
        <pt x="505" y="174" on="0"/>
        <pt x="509" y="202" on="1"/>
        <pt x="514" y="243" on="1"/>
        <pt x="385" y="243" on="0"/>
      </contour>
    </TTGlyph>
    <TTGlyph name="atilde" xMin="17" yMin="-10" xMax="591" yMax="720">
      <contour>
        <pt x="17" y="193" on="1"/>
        <pt x="17" y="311" on="0"/>
        <pt x="72" y="410" on="1"/>
        <pt x="100" y="460" on="0"/>
        <pt x="196" y="521" on="0"/>
        <pt x="247" y="521" on="1"/>
        <pt x="349" y="521" on="0"/>
        <pt x="393" y="450" on="1"/>
        <pt x="398" y="450" on="1"/>
        <pt x="432" y="511" on="1"/>
        <pt x="581" y="511" on="1"/>
        <pt x="564" y="410" on="0"/>
        <pt x="528" y="153" on="0"/>
        <pt x="528" y="137" on="1"/>
        <pt x="528" y="110" on="0"/>
        <pt x="554" y="110" on="1"/>
        <pt x="571" y="110" on="0"/>
        <pt x="591" y="123" on="1"/>
        <pt x="576" y="13" on="1"/>
        <pt x="532" y="-10" on="0"/>
        <pt x="419" y="-10" on="0"/>
        <pt x="348" y="22" on="0"/>
        <pt x="337" y="68" on="1"/>
        <pt x="310" y="34" on="0"/>
        <pt x="229" y="-10" on="0"/>
        <pt x="188" y="-10" on="1"/>
        <pt x="100" y="-10" on="0"/>
        <pt x="17" y="102" on="0"/>
      </contour>
      <contour>
        <pt x="202" y="577" on="1"/>
        <pt x="122" y="577" on="1"/>
        <pt x="131" y="634" on="0"/>
        <pt x="221" y="720" on="0"/>
        <pt x="282" y="720" on="1"/>
        <pt x="315" y="720" on="0"/>
        <pt x="423" y="680" on="0"/>
        <pt x="449" y="680" on="1"/>
        <pt x="486" y="680" on="0"/>
        <pt x="505" y="720" on="1"/>
        <pt x="586" y="720" on="1"/>
        <pt x="577" y="663" on="0"/>
        <pt x="487" y="577" on="0"/>
        <pt x="425" y="577" on="1"/>
        <pt x="392" y="577" on="0"/>
        <pt x="283" y="617" on="0"/>
        <pt x="258" y="617" on="1"/>
        <pt x="221" y="617" on="0"/>
      </contour>
      <contour>
        <pt x="213" y="170" on="1"/>
        <pt x="213" y="144" on="0"/>
        <pt x="243" y="111" on="0"/>
        <pt x="297" y="111" on="0"/>
        <pt x="334" y="150" on="0"/>
        <pt x="338" y="181" on="1"/>
        <pt x="348" y="253" on="1"/>
        <pt x="359" y="334" on="0"/>
        <pt x="359" y="338" on="1"/>
        <pt x="359" y="366" on="0"/>
        <pt x="330" y="396" on="0"/>
        <pt x="279" y="396" on="0"/>
        <pt x="238" y="356" on="0"/>
        <pt x="234" y="326" on="1"/>
        <pt x="213" y="178" on="0"/>
      </contour>
    </TTGlyph>
    <TTGlyph name="b" xMin="9" yMin="-10" xMax="572" yMax="720">
      <contour>
        <pt x="78" y="0" on="1"/>
        <pt x="9" y="0" on="1"/>
        <pt x="109" y="720" on="1"/>
        <pt x="307" y="720" on="1"/>
        <pt x="270" y="458" on="1"/>
        <pt x="333" y="521" on="0"/>
        <pt x="484" y="521" on="0"/>
        <pt x="572" y="421" on="0"/>
        <pt x="572" y="326" on="1"/>
        <pt x="572" y="197" on="0"/>
        <pt x="511" y="97" on="1"/>
        <pt x="481" y="48" on="0"/>
        <pt x="378" y="-10" on="0"/>
        <pt x="312" y="-10" on="1"/>
        <pt x="204" y="-10" on="0"/>
        <pt x="156" y="75" on="1"/>
      </contour>
      <contour>
        <pt x="230" y="170" on="1"/>
        <pt x="230" y="144" on="0"/>
        <pt x="260" y="111" on="0"/>
        <pt x="314" y="111" on="0"/>
        <pt x="351" y="150" on="0"/>
        <pt x="355" y="181" on="1"/>
        <pt x="365" y="253" on="1"/>
        <pt x="376" y="334" on="0"/>
        <pt x="376" y="338" on="1"/>
        <pt x="376" y="366" on="0"/>
        <pt x="347" y="396" on="0"/>
        <pt x="296" y="396" on="0"/>
        <pt x="255" y="356" on="0"/>
        <pt x="251" y="326" on="1"/>
        <pt x="230" y="178" on="0"/>
      </contour>
    </TTGlyph>
    <TTGlyph name="backslash" xMin="68" yMin="-171" xMax="568" yMax="686">
      <contour>
        <pt x="436" y="-171" on="1"/>
        <pt x="68" y="686" on="1"/>
        <pt x="199" y="686" on="1"/>
        <pt x="568" y="-171" on="1"/>
      </contour>
    </TTGlyph>
    <TTGlyph name="bar" xMin="81" yMin="-199" xMax="201" yMax="720">
      <contour>
        <pt x="201" y="-199" on="1"/>
        <pt x="81" y="-199" on="1"/>
        <pt x="81" y="720" on="1"/>
        <pt x="201" y="720" on="1"/>
      </contour>
    </TTGlyph>
    <TTGlyph name="braceleft" xMin="11" yMin="-159" xMax="375" yMax="686">
      <contour>
        <pt x="11" y="224" on="1"/>
        <pt x="22" y="303" on="1"/>
        <pt x="51" y="303" on="0"/>
        <pt x="104" y="332" on="0"/>
        <pt x="107" y="360" on="1"/>
        <pt x="137" y="574" on="1"/>
        <pt x="145" y="628" on="0"/>
        <pt x="237" y="686" on="0"/>
        <pt x="294" y="686" on="1"/>
        <pt x="375" y="686" on="1"/>
        <pt x="365" y="618" on="1"/>
        <pt x="293" y="618" on="0"/>
        <pt x="284" y="577" on="1"/>
        <pt x="245" y="371" on="1"/>
        <pt x="226" y="268" on="0"/>
        <pt x="129" y="268" on="1"/>
        <pt x="128" y="259" on="1"/>
        <pt x="215" y="259" on="0"/>
        <pt x="215" y="175" on="1"/>
        <pt x="215" y="152" on="0"/>
        <pt x="196" y="-40" on="0"/>
        <pt x="196" y="-54" on="1"/>
        <pt x="196" y="-91" on="0"/>
        <pt x="266" y="-91" on="1"/>
        <pt x="256" y="-159" on="1"/>
        <pt x="175" y="-159" on="1"/>
        <pt x="123" y="-159" on="0"/>
        <pt x="49" y="-110" on="0"/>
        <pt x="49" y="-63" on="1"/>
        <pt x="49" y="-45" on="0"/>
        <pt x="81" y="164" on="0"/>
        <pt x="81" y="201" on="0"/>
        <pt x="41" y="224" on="0"/>
      </contour>
    </TTGlyph>
    <TTGlyph name="braceright" xMin="-41" yMin="-159" xMax="322" yMax="686">
      <contour>
        <pt x="118" y="351" on="1"/>
        <pt x="138" y="580" on="1"/>
        <pt x="138" y="618" on="0"/>
        <pt x="67" y="618" on="1"/>
        <pt x="77" y="686" on="1"/>
        <pt x="158" y="686" on="1"/>
        <pt x="210" y="686" on="0"/>
        <pt x="284" y="637" on="0"/>
        <pt x="284" y="590" on="1"/>
        <pt x="284" y="588" on="0"/>
        <pt x="276" y="522" on="1"/>
        <pt x="260" y="418" on="1"/>
        <pt x="252" y="352" on="1"/>
        <pt x="252" y="328" on="0"/>
        <pt x="293" y="303" on="0"/>
        <pt x="322" y="303" on="1"/>
        <pt x="310" y="224" on="1"/>
        <pt x="280" y="224" on="0"/>
        <pt x="229" y="197" on="0"/>
        <pt x="226" y="169" on="1"/>
        <pt x="196" y="-47" on="1"/>
        <pt x="188" y="-101" on="0"/>
        <pt x="96" y="-159" on="0"/>
        <pt x="39" y="-159" on="1"/>
        <pt x="-41" y="-159" on="1"/>
        <pt x="-31" y="-91" on="1"/>
        <pt x="41" y="-91" on="0"/>
        <pt x="50" y="-49" on="1"/>
        <pt x="88" y="156" on="1"/>
        <pt x="107" y="259" on="0"/>
        <pt x="204" y="259" on="1"/>
        <pt x="205" y="268" on="1"/>
        <pt x="118" y="268" on="0"/>
      </contour>
    </TTGlyph>
    <TTGlyph name="bracketleft" xMin="-7" yMin="-161" xMax="349" yMax="686">
      <contour>
        <pt x="230" y="-161" on="1"/>
        <pt x="-7" y="-161" on="1"/>
        <pt x="112" y="686" on="1"/>
        <pt x="349" y="686" on="1"/>
        <pt x="337" y="603" on="1"/>
        <pt x="249" y="603" on="1"/>
        <pt x="154" y="-78" on="1"/>
        <pt x="242" y="-78" on="1"/>
      </contour>
    </TTGlyph>
    <TTGlyph name="bracketright" xMin="-40" yMin="-161" xMax="316" yMax="686">
      <contour>
        <pt x="197" y="-161" on="1"/>
        <pt x="-40" y="-161" on="1"/>
        <pt x="-28" y="-78" on="1"/>
        <pt x="60" y="-78" on="1"/>
        <pt x="155" y="603" on="1"/>
        <pt x="67" y="603" on="1"/>
        <pt x="79" y="686" on="1"/>
        <pt x="316" y="686" on="1"/>
      </contour>
    </TTGlyph>
    <TTGlyph name="breve" xMin="68" yMin="613" xMax="453" yMax="737">
      <contour>
        <pt x="68" y="737" on="1"/>
        <pt x="164" y="737" on="1"/>
        <pt x="164" y="731" on="0"/>
        <pt x="189" y="714" on="0"/>
        <pt x="235" y="699" on="0"/>
        <pt x="285" y="699" on="0"/>
        <pt x="332" y="714" on="0"/>
        <pt x="358" y="731" on="0"/>
        <pt x="358" y="737" on="1"/>
        <pt x="453" y="737" on="1"/>
        <pt x="453" y="693" on="0"/>
        <pt x="337" y="613" on="0"/>
        <pt x="183" y="613" on="0"/>
        <pt x="68" y="693" on="0"/>
      </contour>
    </TTGlyph>
    <TTGlyph name="brokenbar" xMin="19" yMin="0" xMax="266" yMax="686">
      <contour>
        <pt x="169" y="0" on="1"/>
        <pt x="19" y="0" on="1"/>
        <pt x="58" y="274" on="1"/>
        <pt x="208" y="274" on="1"/>
      </contour>
      <contour>
        <pt x="227" y="412" on="1"/>
        <pt x="77" y="412" on="1"/>
        <pt x="116" y="686" on="1"/>
        <pt x="266" y="686" on="1"/>
      </contour>
    </TTGlyph>
    <TTGlyph name="bullet" xMin="134" yMin="171" xMax="481" yMax="514">
      <contour>
        <pt x="134" y="317" on="1"/>
        <pt x="134" y="397" on="0"/>
        <pt x="252" y="514" on="0"/>
        <pt x="396" y="514" on="0"/>
        <pt x="481" y="430" on="0"/>
        <pt x="481" y="367" on="1"/>
        <pt x="481" y="280" on="0"/>
        <pt x="356" y="171" on="0"/>
        <pt x="218" y="171" on="0"/>
        <pt x="134" y="254" on="0"/>
      </contour>
    </TTGlyph>
    <TTGlyph name="c" xMin="16" yMin="-10" xMax="549" yMax="521">
      <contour>
        <pt x="378" y="304" on="1"/>
        <pt x="381" y="339" on="1"/>
        <pt x="381" y="365" on="0"/>
        <pt x="348" y="400" on="0"/>
        <pt x="288" y="400" on="0"/>
        <pt x="247" y="361" on="0"/>
        <pt x="240" y="311" on="0"/>
        <pt x="232" y="256" on="1"/>
        <pt x="221" y="195" on="0"/>
        <pt x="221" y="144" on="0"/>
        <pt x="256" y="111" on="0"/>
        <pt x="288" y="111" on="1"/>
        <pt x="335" y="111" on="0"/>
        <pt x="357" y="146" on="1"/>
        <pt x="368" y="162" on="0"/>
        <pt x="371" y="181" on="1"/>
        <pt x="375" y="207" on="1"/>
        <pt x="533" y="207" on="1"/>
        <pt x="517" y="104" on="0"/>
        <pt x="374" y="-10" on="0"/>
        <pt x="143" y="-10" on="0"/>
        <pt x="16" y="110" on="0"/>
        <pt x="16" y="198" on="1"/>
        <pt x="16" y="337" on="0"/>
        <pt x="180" y="521" on="0"/>
        <pt x="326" y="521" on="1"/>
        <pt x="392" y="521" on="0"/>
        <pt x="486" y="486" on="0"/>
        <pt x="508" y="456" on="1"/>
        <pt x="549" y="403" on="0"/>
        <pt x="549" y="340" on="1"/>
        <pt x="549" y="322" on="0"/>
        <pt x="546" y="304" on="1"/>
      </contour>
    </TTGlyph>
    <TTGlyph name="caron" xMin="75" yMin="575" xMax="481" yMax="720">
      <contour>
        <pt x="193" y="575" on="1"/>
        <pt x="75" y="720" on="1"/>
        <pt x="205" y="720" on="1"/>
        <pt x="268" y="643" on="1"/>
        <pt x="353" y="720" on="1"/>
        <pt x="481" y="720" on="1"/>
        <pt x="321" y="575" on="1"/>
      </contour>
    </TTGlyph>
    <TTGlyph name="ccedilla" xMin="16" yMin="-197" xMax="549" yMax="521">
      <contour>
        <pt x="378" y="304" on="1"/>
        <pt x="381" y="339" on="1"/>
        <pt x="381" y="365" on="0"/>
        <pt x="348" y="400" on="0"/>
        <pt x="288" y="400" on="0"/>
        <pt x="247" y="361" on="0"/>
        <pt x="240" y="311" on="0"/>
        <pt x="232" y="256" on="1"/>
        <pt x="221" y="195" on="0"/>
        <pt x="221" y="144" on="0"/>
        <pt x="256" y="111" on="0"/>
        <pt x="288" y="111" on="1"/>
        <pt x="335" y="111" on="0"/>
        <pt x="357" y="146" on="1"/>
        <pt x="368" y="162" on="0"/>
        <pt x="371" y="181" on="1"/>
        <pt x="375" y="207" on="1"/>
        <pt x="533" y="207" on="1"/>
        <pt x="517" y="104" on="0"/>
        <pt x="374" y="-10" on="0"/>
        <pt x="143" y="-10" on="0"/>
        <pt x="16" y="110" on="0"/>
        <pt x="16" y="198" on="1"/>
        <pt x="16" y="337" on="0"/>
        <pt x="180" y="521" on="0"/>
        <pt x="326" y="521" on="1"/>
        <pt x="392" y="521" on="0"/>
        <pt x="486" y="486" on="0"/>
        <pt x="508" y="456" on="1"/>
        <pt x="549" y="403" on="0"/>
        <pt x="549" y="340" on="1"/>
        <pt x="549" y="322" on="0"/>
        <pt x="546" y="304" on="1"/>
      </contour>
      <contour>
        <pt x="107" y="-161" on="1"/>
        <pt x="147" y="-107" on="1"/>
        <pt x="153" y="-114" on="0"/>
        <pt x="193" y="-139" on="0"/>
        <pt x="227" y="-139" on="1"/>
        <pt x="272" y="-139" on="0"/>
        <pt x="272" y="-100" on="1"/>
        <pt x="272" y="-76" on="0"/>
        <pt x="238" y="-76" on="1"/>
        <pt x="220" y="-76" on="1"/>
        <pt x="228" y="-17" on="1"/>
        <pt x="249" y="-17" on="1"/>
        <pt x="359" y="-17" on="0"/>
        <pt x="359" y="-92" on="1"/>
        <pt x="359" y="-100" on="1"/>
        <pt x="359" y="-105" on="0"/>
        <pt x="358" y="-108" on="1"/>
        <pt x="353" y="-142" on="0"/>
        <pt x="329" y="-163" on="1"/>
        <pt x="290" y="-197" on="0"/>
        <pt x="147" y="-197" on="0"/>
      </contour>
    </TTGlyph>
    <TTGlyph name="cedilla" xMin="39" yMin="-197" xMax="291" yMax="-17">
      <contour>
        <pt x="39" y="-161" on="1"/>
        <pt x="79" y="-107" on="1"/>
        <pt x="85" y="-114" on="0"/>
        <pt x="125" y="-139" on="0"/>
        <pt x="159" y="-139" on="1"/>
        <pt x="204" y="-139" on="0"/>
        <pt x="204" y="-100" on="1"/>
        <pt x="204" y="-76" on="0"/>
        <pt x="170" y="-76" on="1"/>
        <pt x="152" y="-76" on="1"/>
        <pt x="160" y="-17" on="1"/>
        <pt x="181" y="-17" on="1"/>
        <pt x="291" y="-17" on="0"/>
        <pt x="291" y="-92" on="1"/>
        <pt x="291" y="-100" on="1"/>
        <pt x="291" y="-105" on="0"/>
        <pt x="290" y="-108" on="1"/>
        <pt x="285" y="-142" on="0"/>
        <pt x="261" y="-163" on="1"/>
        <pt x="222" y="-197" on="0"/>
        <pt x="80" y="-197" on="0"/>
      </contour>
    </TTGlyph>
    <TTGlyph name="cent" xMin="35" yMin="-10" xMax="568" yMax="694">
      <contour>
        <pt x="397" y="390" on="1"/>
        <pt x="400" y="425" on="1"/>
        <pt x="400" y="451" on="0"/>
        <pt x="367" y="486" on="0"/>
        <pt x="307" y="486" on="0"/>
        <pt x="266" y="447" on="0"/>
        <pt x="259" y="397" on="0"/>
        <pt x="251" y="342" on="1"/>
        <pt x="240" y="281" on="0"/>
        <pt x="240" y="230" on="0"/>
        <pt x="275" y="197" on="0"/>
        <pt x="307" y="197" on="1"/>
        <pt x="354" y="197" on="0"/>
        <pt x="376" y="232" on="1"/>
        <pt x="387" y="248" on="0"/>
        <pt x="390" y="267" on="1"/>
        <pt x="394" y="293" on="1"/>
        <pt x="552" y="293" on="1"/>
        <pt x="538" y="199" on="0"/>
        <pt x="416" y="88" on="0"/>
        <pt x="322" y="78" on="1"/>
        <pt x="322" y="-10" on="1"/>
        <pt x="191" y="-10" on="1"/>
        <pt x="218" y="81" on="1"/>
        <pt x="129" y="96" on="0"/>
        <pt x="35" y="210" on="0"/>
        <pt x="35" y="284" on="1"/>
        <pt x="35" y="408" on="0"/>
        <pt x="168" y="586" on="0"/>
        <pt x="290" y="603" on="1"/>
        <pt x="290" y="694" on="1"/>
        <pt x="419" y="694" on="1"/>
        <pt x="395" y="604" on="1"/>
        <pt x="491" y="591" on="0"/>
        <pt x="568" y="488" on="0"/>
        <pt x="568" y="426" on="1"/>
        <pt x="568" y="408" on="0"/>
        <pt x="565" y="390" on="1"/>
      </contour>
    </TTGlyph>
    <TTGlyph name="circumflex" xMin="54" yMin="575" xMax="460" yMax="720">
      <contour>
        <pt x="182" y="575" on="1"/>
        <pt x="54" y="575" on="1"/>
        <pt x="214" y="720" on="1"/>
        <pt x="342" y="720" on="1"/>
        <pt x="460" y="575" on="1"/>
        <pt x="330" y="575" on="1"/>
        <pt x="267" y="652" on="1"/>
      </contour>
    </TTGlyph>
    <TTGlyph name="colon" xMin="18" yMin="0" xMax="280" yMax="511">
      <contour>
        <pt x="209" y="0" on="1"/>
        <pt x="18" y="0" on="1"/>
        <pt x="43" y="183" on="1"/>
        <pt x="234" y="183" on="1"/>
      </contour>
      <contour>
        <pt x="255" y="328" on="1"/>
        <pt x="64" y="328" on="1"/>
        <pt x="89" y="511" on="1"/>
        <pt x="280" y="511" on="1"/>
      </contour>
    </TTGlyph>
    <TTGlyph name="comma" xMin="7" yMin="-165" xMax="224" yMax="183">
      <contour>
        <pt x="91" y="0" on="1"/>
        <pt x="7" y="0" on="1"/>
        <pt x="33" y="183" on="1"/>
        <pt x="224" y="183" on="1"/>
        <pt x="201" y="22" on="1"/>
        <pt x="125" y="-165" on="1"/>
        <pt x="31" y="-165" on="1"/>
      </contour>
    </TTGlyph>
    <TTGlyph name="copyright" xMin="41" yMin="-10" xMax="749" yMax="696">
      <contour>
        <pt x="247" y="-10" on="0"/>
        <pt x="41" y="196" on="0"/>
        <pt x="41" y="490" on="0"/>
        <pt x="247" y="696" on="0"/>
        <pt x="541" y="696" on="0"/>
        <pt x="749" y="490" on="0"/>
        <pt x="749" y="197" on="0"/>
        <pt x="542" y="-10" on="0"/>
      </contour>
      <contour>
        <pt x="267" y="632" on="0"/>
        <pt x="117" y="475" on="0"/>
        <pt x="117" y="212" on="0"/>
        <pt x="267" y="55" on="0"/>
        <pt x="521" y="55" on="0"/>
        <pt x="673" y="212" on="0"/>
        <pt x="673" y="475" on="0"/>
        <pt x="521" y="632" on="0"/>
      </contour>
      <contour>
        <pt x="202" y="311" on="1"/>
        <pt x="202" y="375" on="1"/>
        <pt x="202" y="454" on="0"/>
        <pt x="311" y="555" on="0"/>
        <pt x="388" y="555" on="1"/>
        <pt x="404" y="555" on="1"/>
        <pt x="481" y="555" on="0"/>
        <pt x="578" y="465" on="0"/>
        <pt x="578" y="380" on="1"/>
        <pt x="460" y="380" on="1"/>
        <pt x="460" y="401" on="1"/>
        <pt x="460" y="428" on="0"/>
        <pt x="425" y="461" on="0"/>
        <pt x="372" y="461" on="0"/>
        <pt x="337" y="426" on="0"/>
        <pt x="337" y="401" on="1"/>
        <pt x="337" y="285" on="1"/>
        <pt x="337" y="260" on="0"/>
        <pt x="372" y="225" on="0"/>
        <pt x="397" y="225" on="1"/>
        <pt x="406" y="225" on="1"/>
        <pt x="432" y="225" on="0"/>
        <pt x="466" y="257" on="0"/>
        <pt x="466" y="285" on="1"/>
        <pt x="466" y="305" on="1"/>
        <pt x="578" y="305" on="1"/>
        <pt x="578" y="226" on="0"/>
        <pt x="483" y="131" on="0"/>
        <pt x="409" y="131" on="1"/>
        <pt x="392" y="131" on="1"/>
        <pt x="310" y="131" on="0"/>
        <pt x="202" y="227" on="0"/>
      </contour>
    </TTGlyph>
    <TTGlyph name="currency" xMin="22" yMin="80" xMax="600" yMax="603">
      <contour>
        <pt x="75" y="80" on="1"/>
        <pt x="22" y="141" on="1"/>
        <pt x="88" y="199" on="1"/>
        <pt x="59" y="237" on="0"/>
        <pt x="59" y="351" on="0"/>
        <pt x="97" y="451" on="0"/>
        <pt x="128" y="479" on="1"/>
        <pt x="78" y="537" on="1"/>
        <pt x="150" y="600" on="1"/>
        <pt x="199" y="543" on="1"/>
        <pt x="253" y="587" on="0"/>
        <pt x="345" y="587" on="1"/>
        <pt x="386" y="587" on="0"/>
        <pt x="457" y="563" on="0"/>
        <pt x="475" y="545" on="1"/>
        <pt x="541" y="603" on="1"/>
        <pt x="600" y="535" on="1"/>
        <pt x="536" y="479" on="1"/>
        <pt x="561" y="446" on="0"/>
        <pt x="561" y="329" on="0"/>
        <pt x="526" y="229" on="0"/>
        <pt x="494" y="197" on="1"/>
        <pt x="542" y="141" on="1"/>
        <pt x="474" y="81" on="1"/>
        <pt x="424" y="139" on="1"/>
        <pt x="370" y="91" on="0"/>
        <pt x="184" y="91" on="0"/>
        <pt x="140" y="137" on="1"/>
      </contour>
      <contour>
        <pt x="269" y="477" on="0"/>
        <pt x="180" y="381" on="0"/>
        <pt x="180" y="266" on="0"/>
        <pt x="241" y="201" on="0"/>
        <pt x="353" y="201" on="0"/>
        <pt x="440" y="298" on="0"/>
        <pt x="440" y="411" on="0"/>
        <pt x="380" y="477" on="0"/>
      </contour>
    </TTGlyph>
    <TTGlyph name="d" xMin="18" yMin="-10" xMax="611" yMax="720">
      <contour>
        <pt x="18" y="193" on="1"/>
        <pt x="18" y="348" on="0"/>
        <pt x="158" y="521" on="0"/>
        <pt x="347" y="521" on="0"/>
        <pt x="376" y="458" on="1"/>
        <pt x="413" y="720" on="1"/>
        <pt x="611" y="720" on="1"/>
        <pt x="571" y="442" on="1"/>
        <pt x="531" y="175" on="0"/>
        <pt x="531" y="110" on="0"/>
        <pt x="556" y="110" on="1"/>
        <pt x="573" y="110" on="0"/>
        <pt x="593" y="123" on="1"/>
        <pt x="578" y="13" on="1"/>
        <pt x="534" y="-10" on="0"/>
        <pt x="442" y="-10" on="0"/>
        <pt x="395" y="-1" on="0"/>
        <pt x="350" y="31" on="0"/>
        <pt x="342" y="59" on="1"/>
        <pt x="312" y="27" on="0"/>
        <pt x="247" y="-10" on="0"/>
        <pt x="197" y="-10" on="1"/>
        <pt x="114" y="-10" on="0"/>
        <pt x="18" y="93" on="0"/>
      </contour>
      <contour>
        <pt x="212" y="170" on="1"/>
        <pt x="212" y="144" on="0"/>
        <pt x="242" y="111" on="0"/>
        <pt x="296" y="111" on="0"/>
        <pt x="333" y="150" on="0"/>
        <pt x="337" y="181" on="1"/>
        <pt x="347" y="253" on="1"/>
        <pt x="358" y="334" on="0"/>
        <pt x="358" y="338" on="1"/>
        <pt x="358" y="366" on="0"/>
        <pt x="329" y="396" on="0"/>
        <pt x="278" y="396" on="0"/>
        <pt x="237" y="356" on="0"/>
        <pt x="233" y="326" on="1"/>
        <pt x="212" y="178" on="0"/>
      </contour>
    </TTGlyph>
    <TTGlyph name="dagger" xMin="35" yMin="-161" xMax="574" yMax="686">
      <contour>
        <pt x="246" y="388" on="1"/>
        <pt x="35" y="368" on="1"/>
        <pt x="55" y="510" on="1"/>
        <pt x="260" y="490" on="1"/>
        <pt x="268" y="686" on="1"/>
        <pt x="411" y="686" on="1"/>
        <pt x="363" y="490" on="1"/>
        <pt x="574" y="510" on="1"/>
        <pt x="554" y="368" on="1"/>
        <pt x="349" y="388" on="1"/>
        <pt x="292" y="-161" on="1"/>
        <pt x="149" y="-161" on="1"/>
      </contour>
    </TTGlyph>
    <TTGlyph name="daggerdbl" xMin="-5" yMin="-175" xMax="585" yMax="686">
      <contour>
        <pt x="206" y="22" on="1"/>
        <pt x="-5" y="2" on="1"/>
        <pt x="15" y="144" on="1"/>
        <pt x="219" y="124" on="1"/>
        <pt x="219" y="257" on="1"/>
        <pt x="257" y="388" on="1"/>
        <pt x="46" y="368" on="1"/>
        <pt x="66" y="510" on="1"/>
        <pt x="274" y="490" on="1"/>
        <pt x="274" y="686" on="1"/>
        <pt x="422" y="686" on="1"/>
        <pt x="374" y="490" on="1"/>
        <pt x="585" y="510" on="1"/>
        <pt x="565" y="368" on="1"/>
        <pt x="362" y="388" on="1"/>
        <pt x="362" y="257" on="1"/>
        <pt x="323" y="124" on="1"/>
        <pt x="534" y="144" on="1"/>
        <pt x="514" y="2" on="1"/>
        <pt x="305" y="22" on="1"/>
        <pt x="305" y="-175" on="1"/>
        <pt x="158" y="-175" on="1"/>
      </contour>
    </TTGlyph>
    <TTGlyph name="degree" xMin="61" yMin="396" xMax="364" yMax="696">
      <contour>
        <pt x="134" y="396" on="0"/>
        <pt x="61" y="470" on="0"/>
        <pt x="61" y="593" on="0"/>
        <pt x="166" y="696" on="0"/>
        <pt x="290" y="696" on="0"/>
        <pt x="364" y="621" on="0"/>
        <pt x="364" y="501" on="0"/>
        <pt x="260" y="396" on="0"/>
      </contour>
      <contour>
        <pt x="193" y="607" on="0"/>
        <pt x="148" y="565" on="0"/>
        <pt x="148" y="515" on="0"/>
        <pt x="179" y="483" on="0"/>
        <pt x="231" y="483" on="0"/>
        <pt x="274" y="525" on="0"/>
        <pt x="274" y="577" on="0"/>
        <pt x="243" y="607" on="0"/>
      </contour>
    </TTGlyph>
    <TTGlyph name="dieresis" xMin="26" yMin="603" xMax="419" yMax="750">
      <contour>
        <pt x="178" y="603" on="1"/>
        <pt x="26" y="603" on="1"/>
        <pt x="47" y="750" on="1"/>
        <pt x="199" y="750" on="1"/>
      </contour>
      <contour>
        <pt x="398" y="603" on="1"/>
        <pt x="246" y="603" on="1"/>
        <pt x="267" y="750" on="1"/>
        <pt x="419" y="750" on="1"/>
      </contour>
    </TTGlyph>
    <TTGlyph name="divide" xMin="38" yMin="17" xMax="568" yMax="496">
      <contour>
        <pt x="550" y="193" on="1"/>
        <pt x="38" y="193" on="1"/>
        <pt x="56" y="321" on="1"/>
        <pt x="568" y="321" on="1"/>
      </contour>
      <contour>
        <pt x="334" y="17" on="1"/>
        <pt x="207" y="17" on="1"/>
        <pt x="225" y="144" on="1"/>
        <pt x="352" y="144" on="1"/>
      </contour>
      <contour>
        <pt x="383" y="369" on="1"/>
        <pt x="256" y="369" on="1"/>
        <pt x="274" y="496" on="1"/>
        <pt x="401" y="496" on="1"/>
      </contour>
    </TTGlyph>
    <TTGlyph name="dollar" xMin="16" yMin="-66" xMax="583" yMax="757">
      <contour>
        <pt x="407" y="475" on="1"/>
        <pt x="407" y="477" on="0"/>
        <pt x="408" y="505" on="0"/>
        <pt x="375" y="534" on="0"/>
        <pt x="341" y="534" on="1"/>
        <pt x="260" y="534" on="0"/>
        <pt x="260" y="490" on="1"/>
        <pt x="260" y="455" on="0"/>
        <pt x="338" y="438" on="1"/>
        <pt x="413" y="421" on="0"/>
        <pt x="484" y="385" on="1"/>
        <pt x="517" y="368" on="0"/>
        <pt x="562" y="299" on="0"/>
        <pt x="562" y="252" on="1"/>
        <pt x="562" y="21" on="0"/>
        <pt x="301" y="21" on="1"/>
        <pt x="304" y="-66" on="1"/>
        <pt x="176" y="-66" on="1"/>
        <pt x="203" y="22" on="1"/>
        <pt x="120" y="31" on="0"/>
        <pt x="16" y="119" on="0"/>
        <pt x="16" y="194" on="1"/>
        <pt x="16" y="232" on="0"/>
        <pt x="22" y="246" on="1"/>
        <pt x="197" y="246" on="1"/>
        <pt x="193" y="230" on="0"/>
        <pt x="193" y="223" on="1"/>
        <pt x="193" y="169" on="0"/>
        <pt x="269" y="169" on="1"/>
        <pt x="360" y="169" on="0"/>
        <pt x="360" y="213" on="1"/>
        <pt x="360" y="234" on="0"/>
        <pt x="299" y="261" on="0"/>
        <pt x="212" y="285" on="0"/>
        <pt x="124" y="321" on="0"/>
        <pt x="63" y="401" on="0"/>
        <pt x="63" y="461" on="1"/>
        <pt x="63" y="544" on="0"/>
        <pt x="189" y="663" on="0"/>
        <pt x="294" y="671" on="1"/>
        <pt x="291" y="757" on="1"/>
        <pt x="419" y="757" on="1"/>
        <pt x="393" y="674" on="1"/>
        <pt x="478" y="668" on="0"/>
        <pt x="583" y="584" on="0"/>
        <pt x="583" y="511" on="1"/>
        <pt x="583" y="496" on="0"/>
        <pt x="580" y="469" on="1"/>
        <pt x="407" y="469" on="1"/>
      </contour>
    </TTGlyph>
    <TTGlyph name="dotaccent" xMin="73" yMin="604" xMax="207" yMax="736">
      <contour>
        <pt x="105" y="604" on="0"/>
        <pt x="73" y="636" on="0"/>
        <pt x="73" y="691" on="0"/>
        <pt x="118" y="736" on="0"/>
        <pt x="175" y="736" on="0"/>
        <pt x="207" y="703" on="0"/>
        <pt x="207" y="649" on="0"/>
        <pt x="160" y="604" on="0"/>
      </contour>
    </TTGlyph>
    <TTGlyph name="dotlessi" xMin="9" yMin="0" xMax="277" yMax="511">
      <contour>
        <pt x="206" y="0" on="1"/>
        <pt x="9" y="0" on="1"/>
        <pt x="80" y="511" on="1"/>
        <pt x="277" y="511" on="1"/>
      </contour>
    </TTGlyph>
    <TTGlyph name="e" xMin="16" yMin="-10" xMax="574" yMax="521">
      <contour>
        <pt x="16" y="200" on="1"/>
        <pt x="16" y="348" on="0"/>
        <pt x="191" y="521" on="0"/>
        <pt x="332" y="521" on="1"/>
        <pt x="357" y="521" on="1"/>
        <pt x="462" y="521" on="0"/>
        <pt x="574" y="417" on="0"/>
        <pt x="574" y="330" on="1"/>
        <pt x="574" y="320" on="1"/>
        <pt x="572" y="303" on="1"/>
        <pt x="571" y="288" on="0"/>
        <pt x="563" y="229" on="1"/>
        <pt x="230" y="229" on="1"/>
        <pt x="226" y="204" on="1"/>
        <pt x="222" y="187" on="0"/>
        <pt x="222" y="142" on="0"/>
        <pt x="260" y="111" on="0"/>
        <pt x="325" y="111" on="0"/>
        <pt x="369" y="154" on="0"/>
        <pt x="374" y="192" on="1"/>
        <pt x="557" y="192" on="1"/>
        <pt x="545" y="105" on="0"/>
        <pt x="394" y="-10" on="0"/>
        <pt x="279" y="-10" on="1"/>
        <pt x="264" y="-10" on="1"/>
        <pt x="154" y="-10" on="0"/>
        <pt x="16" y="102" on="0"/>
      </contour>
      <contour>
        <pt x="381" y="323" on="1"/>
        <pt x="382" y="339" on="1"/>
        <pt x="382" y="365" on="0"/>
        <pt x="349" y="400" on="0"/>
        <pt x="294" y="400" on="0"/>
        <pt x="248" y="359" on="0"/>
        <pt x="244" y="330" on="1"/>
        <pt x="242" y="316" on="1"/>
        <pt x="380" y="316" on="1"/>
        <pt x="380" y="320" on="0"/>
      </contour>
    </TTGlyph>
    <TTGlyph name="eacute" xMin="16" yMin="-10" xMax="574" yMax="720">
      <contour>
        <pt x="16" y="200" on="1"/>
        <pt x="16" y="348" on="0"/>
        <pt x="191" y="521" on="0"/>
        <pt x="332" y="521" on="1"/>
        <pt x="357" y="521" on="1"/>
        <pt x="462" y="521" on="0"/>
        <pt x="574" y="417" on="0"/>
        <pt x="574" y="330" on="1"/>
        <pt x="574" y="320" on="1"/>
        <pt x="572" y="303" on="1"/>
        <pt x="571" y="288" on="0"/>
        <pt x="563" y="229" on="1"/>
        <pt x="230" y="229" on="1"/>
        <pt x="226" y="204" on="1"/>
        <pt x="222" y="187" on="0"/>
        <pt x="222" y="142" on="0"/>
        <pt x="260" y="111" on="0"/>
        <pt x="325" y="111" on="0"/>
        <pt x="369" y="154" on="0"/>
        <pt x="374" y="192" on="1"/>
        <pt x="557" y="192" on="1"/>
        <pt x="545" y="105" on="0"/>
        <pt x="394" y="-10" on="0"/>
        <pt x="279" y="-10" on="1"/>
        <pt x="264" y="-10" on="1"/>
        <pt x="154" y="-10" on="0"/>
        <pt x="16" y="102" on="0"/>
      </contour>
      <contour>
        <pt x="381" y="323" on="1"/>
        <pt x="382" y="339" on="1"/>
        <pt x="382" y="365" on="0"/>
        <pt x="349" y="400" on="0"/>
        <pt x="294" y="400" on="0"/>
        <pt x="248" y="359" on="0"/>
        <pt x="244" y="330" on="1"/>
        <pt x="242" y="316" on="1"/>
        <pt x="380" y="316" on="1"/>
        <pt x="380" y="320" on="0"/>
      </contour>
      <contour>
        <pt x="403" y="575" on="1"/>
        <pt x="285" y="575" on="1"/>
        <pt x="397" y="720" on="1"/>
        <pt x="548" y="720" on="1"/>
        <pt x="549" y="717" on="1"/>
      </contour>
    </TTGlyph>
    <TTGlyph name="ecircumflex" xMin="16" yMin="-10" xMax="574" yMax="720">
      <contour>
        <pt x="16" y="200" on="1"/>
        <pt x="16" y="348" on="0"/>
        <pt x="191" y="521" on="0"/>
        <pt x="332" y="521" on="1"/>
        <pt x="357" y="521" on="1"/>
        <pt x="462" y="521" on="0"/>
        <pt x="574" y="417" on="0"/>
        <pt x="574" y="330" on="1"/>
        <pt x="574" y="320" on="1"/>
        <pt x="572" y="303" on="1"/>
        <pt x="571" y="288" on="0"/>
        <pt x="563" y="229" on="1"/>
        <pt x="230" y="229" on="1"/>
        <pt x="226" y="204" on="1"/>
        <pt x="222" y="187" on="0"/>
        <pt x="222" y="142" on="0"/>
        <pt x="260" y="111" on="0"/>
        <pt x="325" y="111" on="0"/>
        <pt x="369" y="154" on="0"/>
        <pt x="374" y="192" on="1"/>
        <pt x="557" y="192" on="1"/>
        <pt x="545" y="105" on="0"/>
        <pt x="394" y="-10" on="0"/>
        <pt x="279" y="-10" on="1"/>
        <pt x="264" y="-10" on="1"/>
        <pt x="154" y="-10" on="0"/>
        <pt x="16" y="102" on="0"/>
      </contour>
      <contour>
        <pt x="286" y="575" on="1"/>
        <pt x="158" y="575" on="1"/>
        <pt x="318" y="720" on="1"/>
        <pt x="446" y="720" on="1"/>
        <pt x="564" y="575" on="1"/>
        <pt x="434" y="575" on="1"/>
        <pt x="371" y="652" on="1"/>
      </contour>
      <contour>
        <pt x="381" y="323" on="1"/>
        <pt x="382" y="339" on="1"/>
        <pt x="382" y="365" on="0"/>
        <pt x="349" y="400" on="0"/>
        <pt x="294" y="400" on="0"/>
        <pt x="248" y="359" on="0"/>
        <pt x="244" y="330" on="1"/>
        <pt x="242" y="316" on="1"/>
        <pt x="380" y="316" on="1"/>
        <pt x="380" y="320" on="0"/>
      </contour>
    </TTGlyph>
    <TTGlyph name="edieresis" xMin="16" yMin="-10" xMax="574" yMax="720">
      <contour>
        <pt x="16" y="200" on="1"/>
        <pt x="16" y="348" on="0"/>
        <pt x="191" y="521" on="0"/>
        <pt x="332" y="521" on="1"/>
        <pt x="357" y="521" on="1"/>
        <pt x="462" y="521" on="0"/>
        <pt x="574" y="417" on="0"/>
        <pt x="574" y="330" on="1"/>
        <pt x="574" y="320" on="1"/>
        <pt x="572" y="303" on="1"/>
        <pt x="571" y="288" on="0"/>
        <pt x="563" y="229" on="1"/>
        <pt x="230" y="229" on="1"/>
        <pt x="226" y="204" on="1"/>
        <pt x="222" y="187" on="0"/>
        <pt x="222" y="142" on="0"/>
        <pt x="260" y="111" on="0"/>
        <pt x="325" y="111" on="0"/>
        <pt x="369" y="154" on="0"/>
        <pt x="374" y="192" on="1"/>
        <pt x="557" y="192" on="1"/>
        <pt x="545" y="105" on="0"/>
        <pt x="394" y="-10" on="0"/>
        <pt x="279" y="-10" on="1"/>
        <pt x="264" y="-10" on="1"/>
        <pt x="154" y="-10" on="0"/>
        <pt x="16" y="102" on="0"/>
      </contour>
      <contour>
        <pt x="316" y="573" on="1"/>
        <pt x="164" y="573" on="1"/>
        <pt x="185" y="720" on="1"/>
        <pt x="337" y="720" on="1"/>
      </contour>
      <contour>
        <pt x="381" y="323" on="1"/>
        <pt x="382" y="339" on="1"/>
        <pt x="382" y="365" on="0"/>
        <pt x="349" y="400" on="0"/>
        <pt x="294" y="400" on="0"/>
        <pt x="248" y="359" on="0"/>
        <pt x="244" y="330" on="1"/>
        <pt x="242" y="316" on="1"/>
        <pt x="380" y="316" on="1"/>
        <pt x="380" y="320" on="0"/>
      </contour>
      <contour>
        <pt x="536" y="573" on="1"/>
        <pt x="384" y="573" on="1"/>
        <pt x="405" y="720" on="1"/>
        <pt x="557" y="720" on="1"/>
      </contour>
    </TTGlyph>
    <TTGlyph name="egrave" xMin="16" yMin="-10" xMax="574" yMax="720">
      <contour>
        <pt x="16" y="200" on="1"/>
        <pt x="16" y="348" on="0"/>
        <pt x="191" y="521" on="0"/>
        <pt x="332" y="521" on="1"/>
        <pt x="357" y="521" on="1"/>
        <pt x="462" y="521" on="0"/>
        <pt x="574" y="417" on="0"/>
        <pt x="574" y="330" on="1"/>
        <pt x="574" y="320" on="1"/>
        <pt x="572" y="303" on="1"/>
        <pt x="571" y="288" on="0"/>
        <pt x="563" y="229" on="1"/>
        <pt x="230" y="229" on="1"/>
        <pt x="226" y="204" on="1"/>
        <pt x="222" y="187" on="0"/>
        <pt x="222" y="142" on="0"/>
        <pt x="260" y="111" on="0"/>
        <pt x="325" y="111" on="0"/>
        <pt x="369" y="154" on="0"/>
        <pt x="374" y="192" on="1"/>
        <pt x="557" y="192" on="1"/>
        <pt x="545" y="105" on="0"/>
        <pt x="394" y="-10" on="0"/>
        <pt x="279" y="-10" on="1"/>
        <pt x="264" y="-10" on="1"/>
        <pt x="154" y="-10" on="0"/>
        <pt x="16" y="102" on="0"/>
      </contour>
      <contour>
        <pt x="289" y="575" on="1"/>
        <pt x="183" y="717" on="1"/>
        <pt x="186" y="720" on="1"/>
        <pt x="337" y="720" on="1"/>
        <pt x="407" y="575" on="1"/>
      </contour>
      <contour>
        <pt x="381" y="323" on="1"/>
        <pt x="382" y="339" on="1"/>
        <pt x="382" y="365" on="0"/>
        <pt x="349" y="400" on="0"/>
        <pt x="294" y="400" on="0"/>
        <pt x="248" y="359" on="0"/>
        <pt x="244" y="330" on="1"/>
        <pt x="242" y="316" on="1"/>
        <pt x="380" y="316" on="1"/>
        <pt x="380" y="320" on="0"/>
      </contour>
    </TTGlyph>
    <TTGlyph name="eight" xMin="21" yMin="-10" xMax="584" yMax="696">
      <contour>
        <pt x="152" y="-10" on="0"/>
        <pt x="21" y="79" on="0"/>
        <pt x="21" y="230" on="0"/>
        <pt x="85" y="314" on="0"/>
        <pt x="146" y="347" on="1"/>
        <pt x="147" y="351" on="1"/>
        <pt x="117" y="376" on="0"/>
        <pt x="87" y="425" on="0"/>
        <pt x="87" y="464" on="1"/>
        <pt x="87" y="571" on="0"/>
        <pt x="249" y="696" on="0"/>
        <pt x="460" y="696" on="0"/>
        <pt x="584" y="605" on="0"/>
        <pt x="584" y="524" on="1"/>
        <pt x="584" y="479" on="0"/>
        <pt x="553" y="409" on="0"/>
        <pt x="515" y="372" on="0"/>
        <pt x="484" y="351" on="1"/>
        <pt x="483" y="347" on="1"/>
        <pt x="524" y="320" on="0"/>
        <pt x="564" y="262" on="0"/>
        <pt x="564" y="177" on="0"/>
        <pt x="534" y="102" on="0"/>
        <pt x="469" y="32" on="0"/>
        <pt x="346" y="-10" on="0"/>
        <pt x="264" y="-10" on="1"/>
      </contour>
      <contour>
        <pt x="221" y="182" on="1"/>
        <pt x="221" y="156" on="0"/>
        <pt x="255" y="122" on="0"/>
        <pt x="313" y="122" on="0"/>
        <pt x="358" y="162" on="0"/>
        <pt x="363" y="192" on="1"/>
        <pt x="368" y="225" on="1"/>
        <pt x="368" y="234" on="1"/>
        <pt x="368" y="261" on="0"/>
        <pt x="334" y="295" on="0"/>
        <pt x="277" y="295" on="0"/>
        <pt x="232" y="255" on="0"/>
        <pt x="227" y="225" on="1"/>
        <pt x="222" y="192" on="1"/>
        <pt x="221" y="190" on="0"/>
      </contour>
      <contour>
        <pt x="261" y="462" on="1"/>
        <pt x="261" y="436" on="0"/>
        <pt x="296" y="403" on="0"/>
        <pt x="352" y="403" on="0"/>
        <pt x="399" y="444" on="0"/>
        <pt x="403" y="473" on="1"/>
        <pt x="406" y="496" on="1"/>
        <pt x="406" y="505" on="1"/>
        <pt x="406" y="532" on="0"/>
        <pt x="372" y="566" on="0"/>
        <pt x="316" y="566" on="0"/>
        <pt x="269" y="525" on="0"/>
        <pt x="265" y="496" on="1"/>
        <pt x="262" y="473" on="1"/>
        <pt x="261" y="470" on="0"/>
      </contour>
    </TTGlyph>
    <TTGlyph name="ellipsis" xMin="8" yMin="0" xMax="890" yMax="183">
      <contour>
        <pt x="199" y="0" on="1"/>
        <pt x="8" y="0" on="1"/>
        <pt x="33" y="183" on="1"/>
        <pt x="224" y="183" on="1"/>
      </contour>
      <contour>
        <pt x="532" y="0" on="1"/>
        <pt x="341" y="0" on="1"/>
        <pt x="366" y="183" on="1"/>
        <pt x="557" y="183" on="1"/>
      </contour>
      <contour>
        <pt x="865" y="0" on="1"/>
        <pt x="674" y="0" on="1"/>
        <pt x="699" y="183" on="1"/>
        <pt x="890" y="183" on="1"/>
      </contour>
    </TTGlyph>
    <TTGlyph name="emdash" xMin="38" yMin="196" xMax="970" yMax="354">
      <contour>
        <pt x="947" y="196" on="1"/>
        <pt x="38" y="196" on="1"/>
        <pt x="60" y="354" on="1"/>
        <pt x="970" y="354" on="1"/>
      </contour>
    </TTGlyph>
    <TTGlyph name="endash" xMin="35" yMin="196" xMax="557" yMax="354">
      <contour>
        <pt x="534" y="196" on="1"/>
        <pt x="35" y="196" on="1"/>
        <pt x="57" y="354" on="1"/>
        <pt x="557" y="354" on="1"/>
      </contour>
    </TTGlyph>
    <TTGlyph name="equal" xMin="22" yMin="81" xMax="583" yMax="429">
      <contour>
        <pt x="534" y="81" on="1"/>
        <pt x="22" y="81" on="1"/>
        <pt x="40" y="209" on="1"/>
        <pt x="552" y="209" on="1"/>
      </contour>
      <contour>
        <pt x="565" y="301" on="1"/>
        <pt x="53" y="301" on="1"/>
        <pt x="71" y="429" on="1"/>
        <pt x="583" y="429" on="1"/>
      </contour>
    </TTGlyph>
    <TTGlyph name="eth" xMin="15" yMin="-10" xMax="586" yMax="739">
      <contour>
        <pt x="15" y="207" on="1"/>
        <pt x="15" y="226" on="0"/>
        <pt x="18" y="245" on="1"/>
        <pt x="21" y="266" on="1"/>
        <pt x="35" y="366" on="0"/>
        <pt x="188" y="498" on="0"/>
        <pt x="292" y="510" on="1"/>
        <pt x="290" y="539" on="0"/>
        <pt x="265" y="580" on="1"/>
        <pt x="194" y="549" on="1"/>
        <pt x="143" y="600" on="1"/>
        <pt x="223" y="635" on="1"/>
        <pt x="188" y="670" on="0"/>
        <pt x="148" y="685" on="1"/>
        <pt x="150" y="689" on="1"/>
        <pt x="270" y="739" on="1"/>
        <pt x="319" y="722" on="0"/>
        <pt x="358" y="695" on="1"/>
        <pt x="434" y="728" on="1"/>
        <pt x="481" y="677" on="1"/>
        <pt x="418" y="649" on="1"/>
        <pt x="495" y="581" on="0"/>
        <pt x="586" y="403" on="0"/>
        <pt x="586" y="311" on="1"/>
        <pt x="586" y="288" on="0"/>
        <pt x="583" y="266" on="1"/>
        <pt x="580" y="245" on="1"/>
        <pt x="564" y="132" on="0"/>
        <pt x="394" y="-10" on="0"/>
        <pt x="279" y="-10" on="1"/>
        <pt x="247" y="-10" on="1"/>
        <pt x="142" y="-10" on="0"/>
        <pt x="15" y="109" on="0"/>
      </contour>
      <contour>
        <pt x="220" y="170" on="1"/>
        <pt x="220" y="144" on="0"/>
        <pt x="254" y="111" on="0"/>
        <pt x="307" y="111" on="0"/>
        <pt x="354" y="152" on="0"/>
        <pt x="359" y="181" on="1"/>
        <pt x="380" y="330" on="1"/>
        <pt x="380" y="339" on="1"/>
        <pt x="380" y="365" on="0"/>
        <pt x="346" y="400" on="0"/>
        <pt x="290" y="400" on="0"/>
        <pt x="246" y="360" on="0"/>
        <pt x="242" y="330" on="1"/>
        <pt x="221" y="181" on="1"/>
        <pt x="220" y="178" on="0"/>
      </contour>
    </TTGlyph>
    <TTGlyph name="exclam" xMin="25" yMin="0" xMax="336" yMax="686">
      <contour>
        <pt x="216" y="0" on="1"/>
        <pt x="25" y="0" on="1"/>
        <pt x="51" y="183" on="1"/>
        <pt x="242" y="183" on="1"/>
      </contour>
      <contour>
        <pt x="215" y="231" on="1"/>
        <pt x="88" y="231" on="1"/>
        <pt x="88" y="686" on="1"/>
        <pt x="336" y="686" on="1"/>
      </contour>
    </TTGlyph>
    <TTGlyph name="exclamdown" xMin="-37" yMin="-177" xMax="274" yMax="511">
      <contour>
        <pt x="210" y="-177" on="1"/>
        <pt x="-37" y="-177" on="1"/>
        <pt x="83" y="278" on="1"/>
        <pt x="210" y="278" on="1"/>
      </contour>
      <contour>
        <pt x="248" y="328" on="1"/>
        <pt x="57" y="328" on="1"/>
        <pt x="83" y="511" on="1"/>
        <pt x="274" y="511" on="1"/>
      </contour>
    </TTGlyph>
    <TTGlyph name="f" xMin="-94" yMin="-187" xMax="464" yMax="728">
      <contour>
        <pt x="-94" y="-165" on="1"/>
        <pt x="-78" y="-53" on="1"/>
        <pt x="-51" y="-65" on="0"/>
        <pt x="-18" y="-65" on="1"/>
        <pt x="37" y="-65" on="0"/>
        <pt x="49" y="4" on="1"/>
        <pt x="100" y="369" on="1"/>
        <pt x="36" y="369" on="1"/>
        <pt x="56" y="511" on="1"/>
        <pt x="120" y="511" on="1"/>
        <pt x="129" y="577" on="1"/>
        <pt x="151" y="728" on="0"/>
        <pt x="334" y="728" on="1"/>
        <pt x="421" y="728" on="0"/>
        <pt x="464" y="706" on="1"/>
        <pt x="449" y="596" on="1"/>
        <pt x="415" y="606" on="0"/>
        <pt x="375" y="606" on="0"/>
        <pt x="355" y="602" on="0"/>
        <pt x="341" y="589" on="0"/>
        <pt x="332" y="580" on="0"/>
        <pt x="326" y="556" on="0"/>
        <pt x="323" y="547" on="0"/>
        <pt x="319" y="515" on="0"/>
        <pt x="318" y="511" on="1"/>
        <pt x="438" y="511" on="1"/>
        <pt x="418" y="369" on="1"/>
        <pt x="298" y="369" on="1"/>
        <pt x="243" y="-26" on="1"/>
        <pt x="231" y="-106" on="0"/>
        <pt x="121" y="-187" on="0"/>
        <pt x="-50" y="-187" on="0"/>
      </contour>
    </TTGlyph>
    <TTGlyph name="five" xMin="17" yMin="-10" xMax="583" yMax="686">
      <contour>
        <pt x="246" y="414" on="1"/>
        <pt x="308" y="459" on="0"/>
        <pt x="470" y="459" on="0"/>
        <pt x="573" y="359" on="0"/>
        <pt x="573" y="269" on="1"/>
        <pt x="573" y="148" on="0"/>
        <pt x="402" y="-10" on="0"/>
        <pt x="277" y="-10" on="1"/>
        <pt x="247" y="-10" on="1"/>
        <pt x="139" y="-10" on="0"/>
        <pt x="17" y="103" on="0"/>
        <pt x="17" y="191" on="1"/>
        <pt x="17" y="208" on="1"/>
        <pt x="17" y="214" on="0"/>
        <pt x="19" y="224" on="1"/>
        <pt x="195" y="224" on="1"/>
        <pt x="194" y="221" on="0"/>
        <pt x="194" y="213" on="1"/>
        <pt x="194" y="184" on="0"/>
        <pt x="234" y="144" on="0"/>
        <pt x="264" y="144" on="1"/>
        <pt x="281" y="144" on="1"/>
        <pt x="317" y="144" on="0"/>
        <pt x="375" y="199" on="0"/>
        <pt x="375" y="246" on="1"/>
        <pt x="375" y="275" on="0"/>
        <pt x="335" y="315" on="0"/>
        <pt x="305" y="315" on="1"/>
        <pt x="291" y="315" on="1"/>
        <pt x="256" y="315" on="0"/>
        <pt x="230" y="292" on="1"/>
        <pt x="217" y="282" on="0"/>
        <pt x="215" y="281" on="1"/>
        <pt x="61" y="303" on="1"/>
        <pt x="143" y="686" on="1"/>
        <pt x="583" y="686" on="1"/>
        <pt x="560" y="516" on="1"/>
        <pt x="269" y="516" on="1"/>
      </contour>
    </TTGlyph>
    <TTGlyph name="florin" xMin="-94" yMin="-184" xMax="464" yMax="728">
      <contour>
        <pt x="-94" y="-162" on="1"/>
        <pt x="-79" y="-52" on="1"/>
        <pt x="-49" y="-62" on="0"/>
        <pt x="-2" y="-62" on="0"/>
        <pt x="20" y="-57" on="0"/>
        <pt x="43" y="-30" on="0"/>
        <pt x="47" y="-4" on="1"/>
        <pt x="100" y="369" on="1"/>
        <pt x="36" y="369" on="1"/>
        <pt x="56" y="511" on="1"/>
        <pt x="120" y="511" on="1"/>
        <pt x="129" y="577" on="1"/>
        <pt x="151" y="728" on="0"/>
        <pt x="333" y="728" on="1"/>
        <pt x="410" y="728" on="0"/>
        <pt x="464" y="706" on="1"/>
        <pt x="449" y="596" on="1"/>
        <pt x="423" y="606" on="0"/>
        <pt x="372" y="606" on="0"/>
        <pt x="350" y="601" on="0"/>
        <pt x="327" y="574" on="0"/>
        <pt x="323" y="548" on="1"/>
        <pt x="318" y="511" on="1"/>
        <pt x="438" y="511" on="1"/>
        <pt x="418" y="369" on="1"/>
        <pt x="298" y="369" on="1"/>
        <pt x="241" y="-33" on="1"/>
        <pt x="219" y="-184" on="0"/>
        <pt x="37" y="-184" on="1"/>
        <pt x="-40" y="-184" on="0"/>
      </contour>
    </TTGlyph>
    <TTGlyph name="four" xMin="3" yMin="0" xMax="588" yMax="696">
      <contour>
        <pt x="282" y="151" on="1"/>
        <pt x="3" y="151" on="1"/>
        <pt x="23" y="300" on="1"/>
        <pt x="73" y="374" on="0"/>
        <pt x="212" y="628" on="0"/>
        <pt x="234" y="696" on="1"/>
        <pt x="411" y="696" on="1"/>
        <pt x="391" y="622" on="0"/>
        <pt x="220" y="366" on="0"/>
        <pt x="152" y="298" on="1"/>
        <pt x="302" y="298" on="1"/>
        <pt x="317" y="400" on="1"/>
        <pt x="348" y="437" on="0"/>
        <pt x="438" y="587" on="0"/>
        <pt x="454" y="630" on="1"/>
        <pt x="537" y="630" on="1"/>
        <pt x="490" y="298" on="1"/>
        <pt x="588" y="298" on="1"/>
        <pt x="568" y="151" on="1"/>
        <pt x="470" y="151" on="1"/>
        <pt x="449" y="0" on="1"/>
        <pt x="261" y="0" on="1"/>
      </contour>
    </TTGlyph>
    <TTGlyph name="fraction" xMin="-51" yMin="0" xMax="551" yMax="686">
      <contour>
        <pt x="38" y="0" on="1"/>
        <pt x="-51" y="0" on="1"/>
        <pt x="465" y="686" on="1"/>
        <pt x="551" y="686" on="1"/>
      </contour>
    </TTGlyph>
    <TTGlyph name="g" xMin="-3" yMin="-186" xMax="579" yMax="521">
      <contour>
        <pt x="-3" y="-19" on="1"/>
        <pt x="196" y="-19" on="1"/>
        <pt x="196" y="-35" on="0"/>
        <pt x="224" y="-63" on="0"/>
        <pt x="252" y="-63" on="1"/>
        <pt x="300" y="-63" on="0"/>
        <pt x="312" y="7" on="1"/>
        <pt x="321" y="82" on="1"/>
        <pt x="261" y="19" on="0"/>
        <pt x="98" y="19" on="0"/>
        <pt x="18" y="131" on="0"/>
        <pt x="18" y="216" on="1"/>
        <pt x="18" y="329" on="0"/>
        <pt x="78" y="420" on="1"/>
        <pt x="107" y="466" on="0"/>
        <pt x="209" y="521" on="0"/>
        <pt x="275" y="521" on="1"/>
        <pt x="384" y="521" on="0"/>
        <pt x="430" y="436" on="1"/>
        <pt x="509" y="511" on="1"/>
        <pt x="579" y="511" on="1"/>
        <pt x="513" y="40" on="1"/>
        <pt x="498" y="-72" on="0"/>
        <pt x="352" y="-186" on="0"/>
        <pt x="245" y="-186" on="1"/>
        <pt x="177" y="-186" on="0"/>
        <pt x="72" y="-158" on="0"/>
        <pt x="-3" y="-80" on="0"/>
      </contour>
      <contour>
        <pt x="214" y="203" on="1"/>
        <pt x="214" y="177" on="0"/>
        <pt x="244" y="144" on="0"/>
        <pt x="298" y="144" on="0"/>
        <pt x="335" y="183" on="0"/>
        <pt x="339" y="214" on="1"/>
        <pt x="340" y="220" on="0"/>
        <pt x="345" y="262" on="0"/>
        <pt x="347" y="272" on="1"/>
        <pt x="356" y="342" on="1"/>
        <pt x="356" y="370" on="0"/>
        <pt x="327" y="400" on="0"/>
        <pt x="276" y="400" on="0"/>
        <pt x="236" y="361" on="0"/>
        <pt x="231" y="330" on="1"/>
        <pt x="222" y="270" on="1"/>
        <pt x="214" y="208" on="0"/>
      </contour>
    </TTGlyph>
    <TTGlyph name="germandbls" xMin="36" yMin="-66" xMax="638" yMax="728">
      <contour>
        <pt x="98" y="369" on="1"/>
        <pt x="36" y="369" on="1"/>
        <pt x="56" y="511" on="1"/>
        <pt x="118" y="511" on="1"/>
        <pt x="137" y="618" on="0"/>
        <pt x="305" y="728" on="0"/>
        <pt x="410" y="728" on="1"/>
        <pt x="540" y="728" on="0"/>
        <pt x="602" y="662" on="1"/>
        <pt x="638" y="624" on="0"/>
        <pt x="638" y="513" on="0"/>
        <pt x="574" y="415" on="0"/>
        <pt x="521" y="395" on="1"/>
        <pt x="521" y="390" on="1"/>
        <pt x="566" y="373" on="0"/>
        <pt x="618" y="293" on="0"/>
        <pt x="618" y="242" on="1"/>
        <pt x="618" y="134" on="0"/>
        <pt x="466" y="0" on="0"/>
        <pt x="343" y="0" on="1"/>
        <pt x="280" y="0" on="1"/>
        <pt x="301" y="148" on="1"/>
        <pt x="329" y="148" on="1"/>
        <pt x="365" y="148" on="0"/>
        <pt x="423" y="208" on="0"/>
        <pt x="423" y="279" on="0"/>
        <pt x="384" y="321" on="0"/>
        <pt x="353" y="321" on="1"/>
        <pt x="325" y="321" on="1"/>
        <pt x="342" y="443" on="1"/>
        <pt x="369" y="443" on="1"/>
        <pt x="398" y="443" on="0"/>
        <pt x="444" y="489" on="0"/>
        <pt x="444" y="546" on="0"/>
        <pt x="413" y="579" on="0"/>
        <pt x="362" y="579" on="0"/>
        <pt x="320" y="540" on="0"/>
        <pt x="316" y="511" on="1"/>
        <pt x="235" y="-66" on="1"/>
        <pt x="37" y="-66" on="1"/>
      </contour>
    </TTGlyph>
    <TTGlyph name="grave" xMin="51" yMin="575" xMax="275" yMax="720">
      <contour>
        <pt x="157" y="575" on="1"/>
        <pt x="51" y="717" on="1"/>
        <pt x="54" y="720" on="1"/>
        <pt x="205" y="720" on="1"/>
        <pt x="275" y="575" on="1"/>
      </contour>
    </TTGlyph>
    <TTGlyph name="greater" xMin="19" yMin="-11" xMax="575" yMax="521">
      <contour>
        <pt x="556" y="185" on="1"/>
        <pt x="19" y="-11" on="1"/>
        <pt x="39" y="127" on="1"/>
        <pt x="404" y="254" on="1"/>
        <pt x="74" y="382" on="1"/>
        <pt x="94" y="521" on="1"/>
        <pt x="575" y="324" on="1"/>
      </contour>
    </TTGlyph>
    <TTGlyph name="greaterequal" xMin="12" yMin="0" xMax="578" yMax="520">
      <contour>
        <pt x="523" y="0" on="1"/>
        <pt x="12" y="0" on="1"/>
        <pt x="30" y="128" on="1"/>
        <pt x="541" y="128" on="1"/>
      </contour>
      <contour>
        <pt x="558" y="264" on="1"/>
        <pt x="33" y="148" on="1"/>
        <pt x="52" y="286" on="1"/>
        <pt x="407" y="333" on="1"/>
        <pt x="66" y="381" on="1"/>
        <pt x="85" y="520" on="1"/>
        <pt x="578" y="403" on="1"/>
      </contour>
    </TTGlyph>
    <TTGlyph name="guillemotleft" xMin="37" yMin="163" xMax="436" yMax="511">
      <contour>
        <pt x="132" y="163" on="1"/>
        <pt x="37" y="337" on="1"/>
        <pt x="181" y="511" on="1"/>
        <pt x="255" y="511" on="1"/>
        <pt x="146" y="337" on="1"/>
        <pt x="206" y="163" on="1"/>
      </contour>
      <contour>
        <pt x="313" y="163" on="1"/>
        <pt x="218" y="337" on="1"/>
        <pt x="362" y="511" on="1"/>
        <pt x="436" y="511" on="1"/>
        <pt x="327" y="337" on="1"/>
        <pt x="387" y="163" on="1"/>
      </contour>
    </TTGlyph>
    <TTGlyph name="guillemotright" xMin="19" yMin="163" xMax="419" yMax="511">
      <contour>
        <pt x="93" y="163" on="1"/>
        <pt x="19" y="163" on="1"/>
        <pt x="129" y="337" on="1"/>
        <pt x="68" y="511" on="1"/>
        <pt x="142" y="511" on="1"/>
        <pt x="238" y="337" on="1"/>
      </contour>
      <contour>
        <pt x="274" y="163" on="1"/>
        <pt x="200" y="163" on="1"/>
        <pt x="310" y="337" on="1"/>
        <pt x="249" y="511" on="1"/>
        <pt x="323" y="511" on="1"/>
        <pt x="419" y="337" on="1"/>
      </contour>
    </TTGlyph>
    <TTGlyph name="guilsinglleft" xMin="37" yMin="163" xMax="255" yMax="511">
      <contour>
        <pt x="132" y="163" on="1"/>
        <pt x="37" y="337" on="1"/>
        <pt x="181" y="511" on="1"/>
        <pt x="255" y="511" on="1"/>
        <pt x="146" y="337" on="1"/>
        <pt x="206" y="163" on="1"/>
      </contour>
    </TTGlyph>
    <TTGlyph name="guilsinglright" xMin="19" yMin="163" xMax="238" yMax="511">
      <contour>
        <pt x="93" y="163" on="1"/>
        <pt x="19" y="163" on="1"/>
        <pt x="129" y="337" on="1"/>
        <pt x="68" y="511" on="1"/>
        <pt x="142" y="511" on="1"/>
        <pt x="238" y="337" on="1"/>
      </contour>
    </TTGlyph>
    <TTGlyph name="h" xMin="9" yMin="0" xMax="563" yMax="720">
      <contour>
        <pt x="312" y="0" on="1"/>
        <pt x="358" y="326" on="1"/>
        <pt x="358" y="333" on="1"/>
        <pt x="358" y="353" on="0"/>
        <pt x="334" y="380" on="0"/>
        <pt x="287" y="380" on="0"/>
        <pt x="255" y="346" on="0"/>
        <pt x="251" y="320" on="1"/>
        <pt x="206" y="0" on="1"/>
        <pt x="9" y="0" on="1"/>
        <pt x="109" y="720" on="1"/>
        <pt x="307" y="720" on="1"/>
        <pt x="269" y="451" on="1"/>
        <pt x="281" y="468" on="0"/>
        <pt x="305" y="486" on="1"/>
        <pt x="356" y="521" on="0"/>
        <pt x="465" y="521" on="0"/>
        <pt x="527" y="492" on="0"/>
        <pt x="540" y="469" on="1"/>
        <pt x="563" y="428" on="0"/>
        <pt x="563" y="392" on="1"/>
        <pt x="563" y="380" on="1"/>
        <pt x="563" y="380" on="0"/>
        <pt x="510" y="0" on="1"/>
      </contour>
    </TTGlyph>
    <TTGlyph name="hungarumlaut" xMin="31" yMin="575" xMax="522" yMax="720">
      <contour>
        <pt x="149" y="575" on="1"/>
        <pt x="31" y="575" on="1"/>
        <pt x="143" y="720" on="1"/>
        <pt x="294" y="720" on="1"/>
        <pt x="295" y="717" on="1"/>
      </contour>
      <contour>
        <pt x="376" y="575" on="1"/>
        <pt x="258" y="575" on="1"/>
        <pt x="370" y="720" on="1"/>
        <pt x="521" y="720" on="1"/>
        <pt x="522" y="717" on="1"/>
      </contour>
    </TTGlyph>
    <TTGlyph name="hyphen" xMin="35" yMin="196" xMax="311" yMax="354">
      <contour>
        <pt x="288" y="196" on="1"/>
        <pt x="35" y="196" on="1"/>
        <pt x="57" y="354" on="1"/>
        <pt x="311" y="354" on="1"/>
      </contour>
    </TTGlyph>
    <TTGlyph name="i" xMin="9" yMin="0" xMax="306" yMax="720">
      <contour>
        <pt x="205" y="0" on="1"/>
        <pt x="9" y="0" on="1"/>
        <pt x="80" y="511" on="1"/>
        <pt x="277" y="511" on="1"/>
      </contour>
      <contour>
        <pt x="286" y="577" on="1"/>
        <pt x="89" y="577" on="1"/>
        <pt x="109" y="720" on="1"/>
        <pt x="306" y="720" on="1"/>
      </contour>
    </TTGlyph>
    <TTGlyph name="iacute" xMin="9" yMin="0" xMax="356" yMax="720">
      <contour>
        <pt x="206" y="0" on="1"/>
        <pt x="9" y="0" on="1"/>
        <pt x="80" y="511" on="1"/>
        <pt x="277" y="511" on="1"/>
      </contour>
      <contour>
        <pt x="210" y="575" on="1"/>
        <pt x="92" y="575" on="1"/>
        <pt x="204" y="720" on="1"/>
        <pt x="355" y="720" on="1"/>
        <pt x="356" y="717" on="1"/>
      </contour>
    </TTGlyph>
    <TTGlyph name="icircumflex" xMin="-18" yMin="0" xMax="388" yMax="720">
      <contour>
        <pt x="110" y="575" on="1"/>
        <pt x="-18" y="575" on="1"/>
        <pt x="142" y="720" on="1"/>
        <pt x="270" y="720" on="1"/>
        <pt x="388" y="575" on="1"/>
        <pt x="258" y="575" on="1"/>
        <pt x="195" y="652" on="1"/>
      </contour>
      <contour>
        <pt x="206" y="0" on="1"/>
        <pt x="9" y="0" on="1"/>
        <pt x="80" y="511" on="1"/>
        <pt x="277" y="511" on="1"/>
      </contour>
    </TTGlyph>
    <TTGlyph name="idieresis" xMin="1" yMin="0" xMax="394" yMax="720">
      <contour>
        <pt x="153" y="573" on="1"/>
        <pt x="1" y="573" on="1"/>
        <pt x="22" y="720" on="1"/>
        <pt x="174" y="720" on="1"/>
      </contour>
      <contour>
        <pt x="206" y="0" on="1"/>
        <pt x="9" y="0" on="1"/>
        <pt x="80" y="511" on="1"/>
        <pt x="277" y="511" on="1"/>
      </contour>
      <contour>
        <pt x="373" y="573" on="1"/>
        <pt x="221" y="573" on="1"/>
        <pt x="242" y="720" on="1"/>
        <pt x="394" y="720" on="1"/>
      </contour>
    </TTGlyph>
    <TTGlyph name="igrave" xMin="9" yMin="0" xMax="277" yMax="720">
      <contour>
        <pt x="206" y="0" on="1"/>
        <pt x="9" y="0" on="1"/>
        <pt x="80" y="511" on="1"/>
        <pt x="277" y="511" on="1"/>
      </contour>
      <contour>
        <pt x="154" y="575" on="1"/>
        <pt x="48" y="717" on="1"/>
        <pt x="51" y="720" on="1"/>
        <pt x="202" y="720" on="1"/>
        <pt x="272" y="575" on="1"/>
      </contour>
    </TTGlyph>
    <TTGlyph name="infinity" xMin="35" yMin="91" xMax="785" yMax="476">
      <contour>
        <pt x="35" y="250" on="1"/>
        <pt x="35" y="347" on="0"/>
        <pt x="166" y="476" on="0"/>
        <pt x="255" y="476" on="1"/>
        <pt x="314" y="476" on="0"/>
        <pt x="396" y="424" on="0"/>
        <pt x="429" y="368" on="1"/>
        <pt x="457" y="396" on="0"/>
        <pt x="478" y="413" on="0"/>
        <pt x="509" y="439" on="0"/>
        <pt x="535" y="453" on="0"/>
        <pt x="552" y="461" on="1"/>
        <pt x="585" y="476" on="0"/>
        <pt x="627" y="476" on="1"/>
        <pt x="695" y="476" on="0"/>
        <pt x="785" y="393" on="0"/>
        <pt x="785" y="322" on="1"/>
        <pt x="785" y="306" on="1"/>
        <pt x="785" y="300" on="0"/>
        <pt x="783" y="290" on="1"/>
        <pt x="772" y="199" on="0"/>
        <pt x="646" y="91" on="0"/>
        <pt x="572" y="91" on="1"/>
        <pt x="458" y="91" on="0"/>
        <pt x="396" y="204" on="1"/>
        <pt x="344" y="148" on="0"/>
        <pt x="248" y="91" on="0"/>
        <pt x="123" y="91" on="0"/>
        <pt x="35" y="178" on="0"/>
      </contour>
      <contour>
        <pt x="201" y="378" on="0"/>
        <pt x="138" y="319" on="0"/>
        <pt x="138" y="236" on="0"/>
        <pt x="181" y="190" on="0"/>
        <pt x="214" y="190" on="1"/>
        <pt x="274" y="190" on="0"/>
        <pt x="354" y="277" on="1"/>
        <pt x="337" y="311" on="0"/>
        <pt x="324" y="330" on="1"/>
        <pt x="292" y="378" on="0"/>
        <pt x="239" y="378" on="1"/>
      </contour>
      <contour>
        <pt x="468" y="285" on="1"/>
        <pt x="500" y="228" on="0"/>
        <pt x="552" y="190" on="0"/>
        <pt x="629" y="190" on="0"/>
        <pt x="680" y="264" on="0"/>
        <pt x="680" y="335" on="0"/>
        <pt x="642" y="378" on="0"/>
        <pt x="583" y="378" on="0"/>
        <pt x="528" y="346" on="0"/>
        <pt x="500" y="318" on="0"/>
        <pt x="474" y="291" on="1"/>
        <pt x="470" y="288" on="0"/>
      </contour>
    </TTGlyph>
    <TTGlyph name="integral" xMin="-57" yMin="-250" xMax="364" yMax="751">
      <contour>
        <pt x="23" y="-250" on="1"/>
        <pt x="-57" y="-250" on="1"/>
        <pt x="-47" y="-182" on="1"/>
        <pt x="37" y="-182" on="0"/>
        <pt x="42" y="-141" on="1"/>
        <pt x="76" y="190" on="1"/>
        <pt x="120" y="596" on="0"/>
        <pt x="134" y="693" on="0"/>
        <pt x="226" y="751" on="0"/>
        <pt x="283" y="751" on="1"/>
        <pt x="364" y="751" on="1"/>
        <pt x="354" y="683" on="1"/>
        <pt x="269" y="683" on="0"/>
        <pt x="264" y="642" on="1"/>
        <pt x="230" y="311" on="1"/>
        <pt x="185" y="-99" on="0"/>
        <pt x="172" y="-192" on="0"/>
        <pt x="80" y="-250" on="0"/>
      </contour>
    </TTGlyph>
    <TTGlyph name="j" xMin="-132" yMin="-187" xMax="308" yMax="720">
      <contour>
        <pt x="-132" y="-165" on="1"/>
        <pt x="-116" y="-53" on="1"/>
        <pt x="-90" y="-65" on="0"/>
        <pt x="-56" y="-65" on="1"/>
        <pt x="0" y="-65" on="0"/>
        <pt x="9" y="4" on="1"/>
        <pt x="80" y="511" on="1"/>
        <pt x="279" y="511" on="1"/>
        <pt x="203" y="-26" on="1"/>
        <pt x="191" y="-105" on="0"/>
        <pt x="83" y="-187" on="0"/>
        <pt x="-78" y="-187" on="0"/>
      </contour>
      <contour>
        <pt x="288" y="577" on="1"/>
        <pt x="89" y="577" on="1"/>
        <pt x="109" y="720" on="1"/>
        <pt x="308" y="720" on="1"/>
      </contour>
    </TTGlyph>
    <TTGlyph name="k" xMin="9" yMin="0" xMax="634" yMax="720">
      <contour>
        <pt x="206" y="0" on="1"/>
        <pt x="9" y="0" on="1"/>
        <pt x="109" y="720" on="1"/>
        <pt x="307" y="720" on="1"/>
        <pt x="251" y="321" on="1"/>
        <pt x="408" y="511" on="1"/>
        <pt x="634" y="511" on="1"/>
        <pt x="422" y="280" on="1"/>
        <pt x="565" y="0" on="1"/>
        <pt x="332" y="0" on="1"/>
        <pt x="262" y="145" on="1"/>
        <pt x="222" y="114" on="1"/>
      </contour>
    </TTGlyph>
    <TTGlyph name="l" xMin="9" yMin="0" xMax="307" yMax="720">
      <contour>
        <pt x="206" y="0" on="1"/>
        <pt x="9" y="0" on="1"/>
        <pt x="109" y="720" on="1"/>
        <pt x="307" y="720" on="1"/>
      </contour>
    </TTGlyph>
    <TTGlyph name="less" xMin="30" yMin="-11" xMax="586" yMax="521">
      <contour>
        <pt x="511" y="-11" on="1"/>
        <pt x="30" y="185" on="1"/>
        <pt x="49" y="324" on="1"/>
        <pt x="586" y="521" on="1"/>
        <pt x="566" y="382" on="1"/>
        <pt x="200" y="254" on="1"/>
        <pt x="531" y="127" on="1"/>
      </contour>
    </TTGlyph>
    <TTGlyph name="lessequal" xMin="10" yMin="0" xMax="594" yMax="520">
      <contour>
        <pt x="521" y="0" on="1"/>
        <pt x="10" y="0" on="1"/>
        <pt x="28" y="128" on="1"/>
        <pt x="539" y="128" on="1"/>
      </contour>
      <contour>
        <pt x="542" y="148" on="1"/>
        <pt x="49" y="264" on="1"/>
        <pt x="69" y="403" on="1"/>
        <pt x="594" y="520" on="1"/>
        <pt x="575" y="381" on="1"/>
        <pt x="220" y="333" on="1"/>
        <pt x="561" y="286" on="1"/>
      </contour>
    </TTGlyph>
    <TTGlyph name="logicalnot" xMin="37" yMin="158" xMax="596" yMax="484">
      <contour>
        <pt x="425" y="334" on="1"/>
        <pt x="37" y="334" on="1"/>
        <pt x="58" y="484" on="1"/>
        <pt x="596" y="484" on="1"/>
        <pt x="551" y="158" on="1"/>
        <pt x="401" y="158" on="1"/>
      </contour>
    </TTGlyph>
    <TTGlyph name="lozenge" xMin="33" yMin="0" xMax="516" yMax="686">
      <contour>
        <pt x="156" y="0" on="1"/>
        <pt x="33" y="343" on="1"/>
        <pt x="253" y="686" on="1"/>
        <pt x="392" y="686" on="1"/>
        <pt x="516" y="343" on="1"/>
        <pt x="295" y="0" on="1"/>
      </contour>
      <contour>
        <pt x="307" y="565" on="1"/>
        <pt x="169" y="343" on="1"/>
        <pt x="244" y="121" on="1"/>
        <pt x="382" y="343" on="1"/>
      </contour>
    </TTGlyph>
    <TTGlyph name="lslash" xMin="11" yMin="0" xMax="365" yMax="720">
      <contour>
        <pt x="73" y="285" on="1"/>
        <pt x="11" y="255" on="1"/>
        <pt x="25" y="360" on="1"/>
        <pt x="88" y="389" on="1"/>
        <pt x="134" y="720" on="1"/>
        <pt x="332" y="720" on="1"/>
        <pt x="299" y="488" on="1"/>
        <pt x="365" y="519" on="1"/>
        <pt x="350" y="414" on="1"/>
        <pt x="285" y="384" on="1"/>
        <pt x="231" y="0" on="1"/>
        <pt x="34" y="0" on="1"/>
      </contour>
    </TTGlyph>
    <TTGlyph name="m" xMin="8" yMin="0" xMax="835" yMax="521">
      <contour>
        <pt x="298" y="0" on="1"/>
        <pt x="344" y="329" on="0"/>
        <pt x="344" y="354" on="0"/>
        <pt x="321" y="379" on="0"/>
        <pt x="281" y="379" on="0"/>
        <pt x="250" y="349" on="0"/>
        <pt x="247" y="324" on="1"/>
        <pt x="202" y="0" on="1"/>
        <pt x="8" y="0" on="1"/>
        <pt x="80" y="511" on="1"/>
        <pt x="228" y="511" on="1"/>
        <pt x="238" y="437" on="1"/>
        <pt x="258" y="466" on="0"/>
        <pt x="344" y="521" on="0"/>
        <pt x="402" y="521" on="1"/>
        <pt x="503" y="521" on="0"/>
        <pt x="535" y="443" on="1"/>
        <pt x="592" y="521" on="0"/>
        <pt x="692" y="521" on="1"/>
        <pt x="761" y="521" on="0"/>
        <pt x="835" y="449" on="0"/>
        <pt x="835" y="392" on="1"/>
        <pt x="835" y="370" on="0"/>
        <pt x="818" y="254" on="1"/>
        <pt x="808" y="184" on="1"/>
        <pt x="800" y="117" on="0"/>
        <pt x="782" y="0" on="1"/>
        <pt x="588" y="0" on="1"/>
        <pt x="634" y="329" on="0"/>
        <pt x="634" y="354" on="0"/>
        <pt x="611" y="379" on="0"/>
        <pt x="571" y="379" on="0"/>
        <pt x="540" y="349" on="0"/>
        <pt x="537" y="324" on="1"/>
        <pt x="492" y="0" on="1"/>
      </contour>
    </TTGlyph>
    <TTGlyph name="middot" xMin="35" yMin="197" xMax="251" yMax="380">
      <contour>
        <pt x="226" y="197" on="1"/>
        <pt x="35" y="197" on="1"/>
        <pt x="60" y="380" on="1"/>
        <pt x="251" y="380" on="1"/>
      </contour>
    </TTGlyph>
    <TTGlyph name="minus" xMin="40" yMin="213" xMax="573" yMax="363">
      <contour>
        <pt x="552" y="213" on="1"/>
        <pt x="40" y="213" on="1"/>
        <pt x="61" y="363" on="1"/>
        <pt x="573" y="363" on="1"/>
      </contour>
    </TTGlyph>
    <TTGlyph name="mu" xMin="-8" yMin="-161" xMax="600" yMax="511">
      <contour>
        <pt x="589" y="511" on="1"/>
        <pt x="537" y="152" on="0"/>
        <pt x="537" y="126" on="0"/>
        <pt x="553" y="111" on="0"/>
        <pt x="566" y="111" on="1"/>
        <pt x="578" y="111" on="0"/>
        <pt x="600" y="120" on="1"/>
        <pt x="585" y="13" on="1"/>
        <pt x="573" y="5" on="0"/>
        <pt x="557" y="1" on="1"/>
        <pt x="527" y="-10" on="0"/>
        <pt x="481" y="-10" on="1"/>
        <pt x="362" y="-10" on="0"/>
        <pt x="345" y="71" on="1"/>
        <pt x="292" y="1" on="0"/>
        <pt x="205" y="-8" on="1"/>
        <pt x="205" y="-18" on="1"/>
        <pt x="205" y="-56" on="0"/>
        <pt x="201" y="-83" on="1"/>
        <pt x="190" y="-161" on="1"/>
        <pt x="-8" y="-161" on="1"/>
        <pt x="87" y="511" on="1"/>
        <pt x="285" y="511" on="1"/>
        <pt x="262" y="352" on="1"/>
        <pt x="239" y="210" on="0"/>
        <pt x="239" y="159" on="0"/>
        <pt x="263" y="131" on="0"/>
        <pt x="310" y="131" on="0"/>
        <pt x="342" y="165" on="0"/>
        <pt x="346" y="191" on="1"/>
        <pt x="391" y="511" on="1"/>
      </contour>
    </TTGlyph>
    <TTGlyph name="multiply" xMin="56" yMin="30" xMax="547" yMax="482">
      <contour>
        <pt x="134" y="30" on="1"/>
        <pt x="56" y="120" on="1"/>
        <pt x="211" y="256" on="1"/>
        <pt x="95" y="392" on="1"/>
        <pt x="197" y="482" on="1"/>
        <pt x="314" y="347" on="1"/>
        <pt x="469" y="482" on="1"/>
        <pt x="547" y="392" on="1"/>
        <pt x="393" y="256" on="1"/>
        <pt x="508" y="120" on="1"/>
        <pt x="406" y="30" on="1"/>
        <pt x="289" y="165" on="1"/>
      </contour>
    </TTGlyph>
    <TTGlyph name="n" xMin="8" yMin="0" xMax="563" yMax="521">
      <contour>
        <pt x="312" y="0" on="1"/>
        <pt x="358" y="330" on="1"/>
        <pt x="358" y="352" on="0"/>
        <pt x="334" y="380" on="0"/>
        <pt x="287" y="380" on="0"/>
        <pt x="255" y="346" on="0"/>
        <pt x="251" y="320" on="1"/>
        <pt x="206" y="0" on="1"/>
        <pt x="8" y="0" on="1"/>
        <pt x="80" y="511" on="1"/>
        <pt x="229" y="511" on="1"/>
        <pt x="238" y="437" on="1"/>
        <pt x="302" y="521" on="0"/>
        <pt x="419" y="521" on="1"/>
        <pt x="488" y="521" on="0"/>
        <pt x="563" y="449" on="0"/>
        <pt x="563" y="392" on="1"/>
        <pt x="563" y="372" on="0"/>
        <pt x="546" y="255" on="1"/>
        <pt x="536" y="185" on="1"/>
        <pt x="528" y="124" on="0"/>
        <pt x="510" y="0" on="1"/>
      </contour>
    </TTGlyph>
    <TTGlyph name="nine" xMin="34" yMin="-10" xMax="600" yMax="696">
      <contour>
        <pt x="34" y="181" on="1"/>
        <pt x="34" y="199" on="0"/>
        <pt x="37" y="220" on="1"/>
        <pt x="215" y="220" on="1"/>
        <pt x="214" y="217" on="0"/>
        <pt x="214" y="212" on="1"/>
        <pt x="214" y="200" on="1"/>
        <pt x="214" y="176" on="0"/>
        <pt x="249" y="140" on="0"/>
        <pt x="275" y="140" on="1"/>
        <pt x="281" y="140" on="1"/>
        <pt x="318" y="140" on="0"/>
        <pt x="363" y="182" on="0"/>
        <pt x="369" y="215" on="1"/>
        <pt x="381" y="301" on="1"/>
        <pt x="323" y="249" on="0"/>
        <pt x="160" y="249" on="0"/>
        <pt x="50" y="338" on="0"/>
        <pt x="50" y="421" on="1"/>
        <pt x="50" y="540" on="0"/>
        <pt x="226" y="696" on="0"/>
        <pt x="345" y="696" on="1"/>
        <pt x="373" y="696" on="1"/>
        <pt x="472" y="696" on="0"/>
        <pt x="600" y="575" on="0"/>
        <pt x="600" y="482" on="1"/>
        <pt x="600" y="451" on="0"/>
        <pt x="569" y="240" on="1"/>
        <pt x="553" y="130" on="0"/>
        <pt x="391" y="-10" on="0"/>
        <pt x="274" y="-10" on="1"/>
        <pt x="246" y="-10" on="1"/>
        <pt x="153" y="-10" on="0"/>
        <pt x="34" y="89" on="0"/>
      </contour>
      <contour>
        <pt x="243" y="429" on="1"/>
        <pt x="243" y="402" on="0"/>
        <pt x="280" y="365" on="0"/>
        <pt x="309" y="365" on="1"/>
        <pt x="315" y="365" on="1"/>
        <pt x="345" y="365" on="0"/>
        <pt x="395" y="409" on="0"/>
        <pt x="400" y="440" on="1"/>
        <pt x="407" y="491" on="1"/>
        <pt x="407" y="519" on="0"/>
        <pt x="369" y="556" on="0"/>
        <pt x="341" y="556" on="1"/>
        <pt x="335" y="556" on="1"/>
        <pt x="305" y="556" on="0"/>
        <pt x="255" y="512" on="0"/>
        <pt x="250" y="481" on="1"/>
        <pt x="245" y="447" on="1"/>
        <pt x="243" y="432" on="0"/>
      </contour>
    </TTGlyph>
    <TTGlyph name="notequal" xMin="22" yMin="0" xMax="583" yMax="511">
      <contour>
        <pt x="105" y="81" on="1"/>
        <pt x="22" y="81" on="1"/>
        <pt x="40" y="209" on="1"/>
        <pt x="211" y="209" on="1"/>
        <pt x="287" y="301" on="1"/>
        <pt x="53" y="301" on="1"/>
        <pt x="71" y="429" on="1"/>
        <pt x="392" y="429" on="1"/>
        <pt x="459" y="511" on="1"/>
        <pt x="567" y="511" on="1"/>
        <pt x="500" y="429" on="1"/>
        <pt x="583" y="429" on="1"/>
        <pt x="565" y="301" on="1"/>
        <pt x="396" y="301" on="1"/>
        <pt x="320" y="209" on="1"/>
        <pt x="552" y="209" on="1"/>
        <pt x="534" y="81" on="1"/>
        <pt x="216" y="81" on="1"/>
        <pt x="150" y="0" on="1"/>
        <pt x="39" y="0" on="1"/>
      </contour>
    </TTGlyph>
    <TTGlyph name="ntilde" xMin="8" yMin="0" xMax="575" yMax="720">
      <contour>
        <pt x="312" y="0" on="1"/>
        <pt x="358" y="330" on="1"/>
        <pt x="358" y="352" on="0"/>
        <pt x="334" y="380" on="0"/>
        <pt x="287" y="380" on="0"/>
        <pt x="255" y="346" on="0"/>
        <pt x="251" y="320" on="1"/>
        <pt x="206" y="0" on="1"/>
        <pt x="8" y="0" on="1"/>
        <pt x="80" y="511" on="1"/>
        <pt x="229" y="511" on="1"/>
        <pt x="238" y="437" on="1"/>
        <pt x="302" y="521" on="0"/>
        <pt x="419" y="521" on="1"/>
        <pt x="488" y="521" on="0"/>
        <pt x="563" y="449" on="0"/>
        <pt x="563" y="392" on="1"/>
        <pt x="563" y="372" on="0"/>
        <pt x="546" y="255" on="1"/>
        <pt x="536" y="185" on="1"/>
        <pt x="528" y="124" on="0"/>
        <pt x="510" y="0" on="1"/>
      </contour>
      <contour>
        <pt x="191" y="577" on="1"/>
        <pt x="111" y="577" on="1"/>
        <pt x="120" y="634" on="0"/>
        <pt x="210" y="720" on="0"/>
        <pt x="271" y="720" on="1"/>
        <pt x="304" y="720" on="0"/>
        <pt x="412" y="680" on="0"/>
        <pt x="438" y="680" on="1"/>
        <pt x="475" y="680" on="0"/>
        <pt x="494" y="720" on="1"/>
        <pt x="575" y="720" on="1"/>
        <pt x="566" y="663" on="0"/>
        <pt x="476" y="577" on="0"/>
        <pt x="414" y="577" on="1"/>
        <pt x="381" y="577" on="0"/>
        <pt x="272" y="617" on="0"/>
        <pt x="247" y="617" on="1"/>
        <pt x="210" y="617" on="0"/>
      </contour>
    </TTGlyph>
    <TTGlyph name="numbersign" xMin="9" yMin="0" xMax="661" yMax="696">
      <contour>
        <pt x="106" y="166" on="1"/>
        <pt x="9" y="166" on="1"/>
        <pt x="24" y="273" on="1"/>
        <pt x="146" y="273" on="1"/>
        <pt x="191" y="394" on="1"/>
        <pt x="85" y="394" on="1"/>
        <pt x="100" y="502" on="1"/>
        <pt x="227" y="502" on="1"/>
        <pt x="297" y="696" on="1"/>
        <pt x="416" y="696" on="1"/>
        <pt x="345" y="502" on="1"/>
        <pt x="455" y="502" on="1"/>
        <pt x="525" y="696" on="1"/>
        <pt x="642" y="696" on="1"/>
        <pt x="570" y="502" on="1"/>
        <pt x="661" y="502" on="1"/>
        <pt x="646" y="394" on="1"/>
        <pt x="536" y="394" on="1"/>
        <pt x="493" y="273" on="1"/>
        <pt x="597" y="273" on="1"/>
        <pt x="582" y="166" on="1"/>
        <pt x="451" y="166" on="1"/>
        <pt x="392" y="0" on="1"/>
        <pt x="276" y="0" on="1"/>
        <pt x="335" y="166" on="1"/>
        <pt x="223" y="166" on="1"/>
        <pt x="165" y="0" on="1"/>
        <pt x="48" y="0" on="1"/>
      </contour>
      <contour>
        <pt x="306" y="393" on="1"/>
        <pt x="262" y="272" on="1"/>
        <pt x="375" y="272" on="1"/>
        <pt x="420" y="393" on="1"/>
      </contour>
    </TTGlyph>
    <TTGlyph name="o" xMin="16" yMin="-10" xMax="587" yMax="521">
      <contour>
        <pt x="16" y="205" on="1"/>
        <pt x="16" y="324" on="0"/>
        <pt x="89" y="418" on="1"/>
        <pt x="125" y="465" on="0"/>
        <pt x="247" y="521" on="0"/>
        <pt x="323" y="521" on="1"/>
        <pt x="340" y="521" on="1"/>
        <pt x="458" y="521" on="0"/>
        <pt x="587" y="404" on="0"/>
        <pt x="587" y="305" on="1"/>
        <pt x="587" y="168" on="0"/>
        <pt x="415" y="-10" on="0"/>
        <pt x="280" y="-10" on="1"/>
        <pt x="265" y="-10" on="1"/>
        <pt x="145" y="-10" on="0"/>
        <pt x="16" y="107" on="0"/>
      </contour>
      <contour>
        <pt x="232" y="253" on="1"/>
        <pt x="221" y="192" on="0"/>
        <pt x="221" y="145" on="0"/>
        <pt x="255" y="111" on="0"/>
        <pt x="313" y="111" on="0"/>
        <pt x="355" y="150" on="0"/>
        <pt x="360" y="181" on="1"/>
        <pt x="371" y="254" on="1"/>
        <pt x="382" y="335" on="0"/>
        <pt x="382" y="339" on="1"/>
        <pt x="382" y="363" on="0"/>
        <pt x="349" y="400" on="0"/>
        <pt x="292" y="400" on="0"/>
        <pt x="247" y="359" on="0"/>
        <pt x="239" y="307" on="0"/>
      </contour>
    </TTGlyph>
    <TTGlyph name="oacute" xMin="16" yMin="-10" xMax="587" yMax="720">
      <contour>
        <pt x="16" y="205" on="1"/>
        <pt x="16" y="324" on="0"/>
        <pt x="89" y="418" on="1"/>
        <pt x="125" y="465" on="0"/>
        <pt x="247" y="521" on="0"/>
        <pt x="323" y="521" on="1"/>
        <pt x="340" y="521" on="1"/>
        <pt x="458" y="521" on="0"/>
        <pt x="587" y="404" on="0"/>
        <pt x="587" y="305" on="1"/>
        <pt x="587" y="168" on="0"/>
        <pt x="415" y="-10" on="0"/>
        <pt x="280" y="-10" on="1"/>
        <pt x="265" y="-10" on="1"/>
        <pt x="145" y="-10" on="0"/>
        <pt x="16" y="107" on="0"/>
      </contour>
      <contour>
        <pt x="232" y="253" on="1"/>
        <pt x="221" y="192" on="0"/>
        <pt x="221" y="145" on="0"/>
        <pt x="255" y="111" on="0"/>
        <pt x="313" y="111" on="0"/>
        <pt x="355" y="150" on="0"/>
        <pt x="360" y="181" on="1"/>
        <pt x="371" y="254" on="1"/>
        <pt x="382" y="335" on="0"/>
        <pt x="382" y="339" on="1"/>
        <pt x="382" y="363" on="0"/>
        <pt x="349" y="400" on="0"/>
        <pt x="292" y="400" on="0"/>
        <pt x="247" y="359" on="0"/>
        <pt x="239" y="307" on="0"/>
      </contour>
      <contour>
        <pt x="405" y="575" on="1"/>
        <pt x="287" y="575" on="1"/>
        <pt x="399" y="720" on="1"/>
        <pt x="550" y="720" on="1"/>
        <pt x="551" y="717" on="1"/>
      </contour>
    </TTGlyph>
    <TTGlyph name="ocircumflex" xMin="16" yMin="-10" xMax="587" yMax="720">
      <contour>
        <pt x="16" y="205" on="1"/>
        <pt x="16" y="324" on="0"/>
        <pt x="89" y="418" on="1"/>
        <pt x="125" y="465" on="0"/>
        <pt x="247" y="521" on="0"/>
        <pt x="323" y="521" on="1"/>
        <pt x="340" y="521" on="1"/>
        <pt x="458" y="521" on="0"/>
        <pt x="587" y="404" on="0"/>
        <pt x="587" y="305" on="1"/>
        <pt x="587" y="168" on="0"/>
        <pt x="415" y="-10" on="0"/>
        <pt x="280" y="-10" on="1"/>
        <pt x="265" y="-10" on="1"/>
        <pt x="145" y="-10" on="0"/>
        <pt x="16" y="107" on="0"/>
      </contour>
      <contour>
        <pt x="276" y="575" on="1"/>
        <pt x="148" y="575" on="1"/>
        <pt x="308" y="720" on="1"/>
        <pt x="436" y="720" on="1"/>
        <pt x="554" y="575" on="1"/>
        <pt x="424" y="575" on="1"/>
        <pt x="361" y="652" on="1"/>
      </contour>
      <contour>
        <pt x="232" y="253" on="1"/>
        <pt x="221" y="192" on="0"/>
        <pt x="221" y="145" on="0"/>
        <pt x="255" y="111" on="0"/>
        <pt x="313" y="111" on="0"/>
        <pt x="355" y="150" on="0"/>
        <pt x="360" y="181" on="1"/>
        <pt x="371" y="254" on="1"/>
        <pt x="382" y="335" on="0"/>
        <pt x="382" y="339" on="1"/>
        <pt x="382" y="363" on="0"/>
        <pt x="349" y="400" on="0"/>
        <pt x="292" y="400" on="0"/>
        <pt x="247" y="359" on="0"/>
        <pt x="239" y="307" on="0"/>
      </contour>
    </TTGlyph>
    <TTGlyph name="odieresis" xMin="16" yMin="-10" xMax="587" yMax="720">
      <contour>
        <pt x="16" y="205" on="1"/>
        <pt x="16" y="324" on="0"/>
        <pt x="89" y="418" on="1"/>
        <pt x="125" y="465" on="0"/>
        <pt x="247" y="521" on="0"/>
        <pt x="323" y="521" on="1"/>
        <pt x="340" y="521" on="1"/>
        <pt x="458" y="521" on="0"/>
        <pt x="587" y="404" on="0"/>
        <pt x="587" y="305" on="1"/>
        <pt x="587" y="168" on="0"/>
        <pt x="415" y="-10" on="0"/>
        <pt x="280" y="-10" on="1"/>
        <pt x="265" y="-10" on="1"/>
        <pt x="145" y="-10" on="0"/>
        <pt x="16" y="107" on="0"/>
      </contour>
      <contour>
        <pt x="314" y="573" on="1"/>
        <pt x="162" y="573" on="1"/>
        <pt x="183" y="720" on="1"/>
        <pt x="335" y="720" on="1"/>
      </contour>
      <contour>
        <pt x="232" y="253" on="1"/>
        <pt x="221" y="192" on="0"/>
        <pt x="221" y="145" on="0"/>
        <pt x="255" y="111" on="0"/>
        <pt x="313" y="111" on="0"/>
        <pt x="355" y="150" on="0"/>
        <pt x="360" y="181" on="1"/>
        <pt x="371" y="254" on="1"/>
        <pt x="382" y="335" on="0"/>
        <pt x="382" y="339" on="1"/>
        <pt x="382" y="363" on="0"/>
        <pt x="349" y="400" on="0"/>
        <pt x="292" y="400" on="0"/>
        <pt x="247" y="359" on="0"/>
        <pt x="239" y="307" on="0"/>
      </contour>
      <contour>
        <pt x="534" y="573" on="1"/>
        <pt x="382" y="573" on="1"/>
        <pt x="403" y="720" on="1"/>
        <pt x="555" y="720" on="1"/>
      </contour>
    </TTGlyph>
    <TTGlyph name="oe" xMin="16" yMin="-10" xMax="917" yMax="521">
      <contour>
        <pt x="16" y="205" on="1"/>
        <pt x="16" y="324" on="0"/>
        <pt x="89" y="418" on="1"/>
        <pt x="125" y="465" on="0"/>
        <pt x="247" y="521" on="0"/>
        <pt x="323" y="521" on="1"/>
        <pt x="340" y="521" on="1"/>
        <pt x="437" y="521" on="0"/>
        <pt x="502" y="478" on="1"/>
        <pt x="575" y="521" on="0"/>
        <pt x="675" y="521" on="1"/>
        <pt x="700" y="521" on="1"/>
        <pt x="805" y="521" on="0"/>
        <pt x="917" y="417" on="0"/>
        <pt x="917" y="330" on="1"/>
        <pt x="917" y="323" on="0"/>
        <pt x="916" y="320" on="1"/>
        <pt x="915" y="303" on="1"/>
        <pt x="914" y="288" on="0"/>
        <pt x="906" y="229" on="1"/>
        <pt x="573" y="229" on="1"/>
        <pt x="569" y="204" on="1"/>
        <pt x="565" y="187" on="0"/>
        <pt x="565" y="142" on="0"/>
        <pt x="603" y="111" on="0"/>
        <pt x="668" y="111" on="0"/>
        <pt x="712" y="154" on="0"/>
        <pt x="717" y="192" on="1"/>
        <pt x="900" y="192" on="1"/>
        <pt x="888" y="105" on="0"/>
        <pt x="737" y="-10" on="0"/>
        <pt x="622" y="-10" on="1"/>
        <pt x="607" y="-10" on="1"/>
        <pt x="508" y="-10" on="0"/>
        <pt x="444" y="33" on="1"/>
        <pt x="369" y="-10" on="0"/>
        <pt x="280" y="-10" on="1"/>
        <pt x="265" y="-10" on="1"/>
        <pt x="145" y="-10" on="0"/>
        <pt x="16" y="107" on="0"/>
      </contour>
      <contour>
        <pt x="232" y="253" on="1"/>
        <pt x="221" y="192" on="0"/>
        <pt x="221" y="145" on="0"/>
        <pt x="255" y="111" on="0"/>
        <pt x="313" y="111" on="0"/>
        <pt x="355" y="150" on="0"/>
        <pt x="360" y="181" on="1"/>
        <pt x="371" y="254" on="1"/>
        <pt x="382" y="335" on="0"/>
        <pt x="382" y="339" on="1"/>
        <pt x="382" y="363" on="0"/>
        <pt x="349" y="400" on="0"/>
        <pt x="292" y="400" on="0"/>
        <pt x="247" y="359" on="0"/>
        <pt x="239" y="307" on="0"/>
      </contour>
      <contour>
        <pt x="724" y="323" on="1"/>
        <pt x="725" y="339" on="1"/>
        <pt x="725" y="365" on="0"/>
        <pt x="692" y="400" on="0"/>
        <pt x="637" y="400" on="0"/>
        <pt x="591" y="359" on="0"/>
        <pt x="587" y="330" on="1"/>
        <pt x="585" y="316" on="1"/>
        <pt x="723" y="316" on="1"/>
        <pt x="723" y="320" on="0"/>
      </contour>
    </TTGlyph>
    <TTGlyph name="ogonek" xMin="68" yMin="-143" xMax="263" yMax="0">
      <contour>
        <pt x="68" y="-83" on="1"/>
        <pt x="68" y="-39" on="0"/>
        <pt x="133" y="0" on="1"/>
        <pt x="203" y="0" on="1"/>
        <pt x="186" y="-10" on="0"/>
        <pt x="168" y="-21" on="0"/>
        <pt x="147" y="-48" on="0"/>
        <pt x="147" y="-62" on="1"/>
        <pt x="147" y="-90" on="0"/>
        <pt x="187" y="-90" on="1"/>
        <pt x="216" y="-90" on="0"/>
        <pt x="256" y="-76" on="1"/>
        <pt x="263" y="-119" on="1"/>
        <pt x="210" y="-143" on="0"/>
        <pt x="164" y="-143" on="1"/>
        <pt x="68" y="-143" on="0"/>
      </contour>
    </TTGlyph>
    <TTGlyph name="ograve" xMin="16" yMin="-10" xMax="587" yMax="720">
      <contour>
        <pt x="16" y="205" on="1"/>
        <pt x="16" y="324" on="0"/>
        <pt x="89" y="418" on="1"/>
        <pt x="125" y="465" on="0"/>
        <pt x="247" y="521" on="0"/>
        <pt x="323" y="521" on="1"/>
        <pt x="340" y="521" on="1"/>
        <pt x="458" y="521" on="0"/>
        <pt x="587" y="404" on="0"/>
        <pt x="587" y="305" on="1"/>
        <pt x="587" y="168" on="0"/>
        <pt x="415" y="-10" on="0"/>
        <pt x="280" y="-10" on="1"/>
        <pt x="265" y="-10" on="1"/>
        <pt x="145" y="-10" on="0"/>
        <pt x="16" y="107" on="0"/>
      </contour>
      <contour>
        <pt x="281" y="575" on="1"/>
        <pt x="175" y="717" on="1"/>
        <pt x="178" y="720" on="1"/>
        <pt x="329" y="720" on="1"/>
        <pt x="399" y="575" on="1"/>
      </contour>
      <contour>
        <pt x="232" y="253" on="1"/>
        <pt x="221" y="192" on="0"/>
        <pt x="221" y="145" on="0"/>
        <pt x="255" y="111" on="0"/>
        <pt x="313" y="111" on="0"/>
        <pt x="355" y="150" on="0"/>
        <pt x="360" y="181" on="1"/>
        <pt x="371" y="254" on="1"/>
        <pt x="382" y="335" on="0"/>
        <pt x="382" y="339" on="1"/>
        <pt x="382" y="363" on="0"/>
        <pt x="349" y="400" on="0"/>
        <pt x="292" y="400" on="0"/>
        <pt x="247" y="359" on="0"/>
        <pt x="239" y="307" on="0"/>
      </contour>
    </TTGlyph>
    <TTGlyph name="one" xMin="33" yMin="0" xMax="548" yMax="696">
      <contour>
        <pt x="527" y="0" on="1"/>
        <pt x="33" y="0" on="1"/>
        <pt x="54" y="153" on="1"/>
        <pt x="206" y="153" on="1"/>
        <pt x="251" y="473" on="1"/>
        <pt x="99" y="473" on="1"/>
        <pt x="115" y="588" on="1"/>
        <pt x="179" y="592" on="0"/>
        <pt x="347" y="655" on="0"/>
        <pt x="411" y="696" on="1"/>
        <pt x="478" y="696" on="1"/>
        <pt x="402" y="153" on="1"/>
        <pt x="548" y="153" on="1"/>
      </contour>
    </TTGlyph>
    <TTGlyph name="onehalf" xMin="36" yMin="0" xMax="734" yMax="686">
      <contour>
        <pt x="301" y="312" on="1"/>
        <pt x="36" y="312" on="1"/>
        <pt x="48" y="394" on="1"/>
        <pt x="130" y="394" on="1"/>
        <pt x="154" y="566" on="1"/>
        <pt x="72" y="566" on="1"/>
        <pt x="81" y="628" on="1"/>
        <pt x="150" y="632" on="0"/>
        <pt x="240" y="686" on="1"/>
        <pt x="276" y="686" on="1"/>
        <pt x="235" y="394" on="1"/>
        <pt x="313" y="394" on="1"/>
      </contour>
      <contour>
        <pt x="189" y="0" on="1"/>
        <pt x="100" y="0" on="1"/>
        <pt x="617" y="686" on="1"/>
        <pt x="703" y="686" on="1"/>
      </contour>
      <contour>
        <pt x="696" y="0" on="1"/>
        <pt x="409" y="0" on="1"/>
        <pt x="411" y="19" on="1"/>
        <pt x="416" y="73" on="0"/>
        <pt x="467" y="112" on="1"/>
        <pt x="586" y="204" on="1"/>
        <pt x="623" y="232" on="0"/>
        <pt x="623" y="298" on="0"/>
        <pt x="592" y="298" on="1"/>
        <pt x="585" y="298" on="1"/>
        <pt x="569" y="298" on="0"/>
        <pt x="543" y="277" on="0"/>
        <pt x="541" y="261" on="1"/>
        <pt x="539" y="246" on="1"/>
        <pt x="444" y="246" on="1"/>
        <pt x="444" y="289" on="0"/>
        <pt x="476" y="332" on="1"/>
        <pt x="493" y="354" on="0"/>
        <pt x="558" y="382" on="0"/>
        <pt x="600" y="382" on="1"/>
        <pt x="617" y="382" on="1"/>
        <pt x="671" y="382" on="0"/>
        <pt x="734" y="326" on="0"/>
        <pt x="734" y="280" on="1"/>
        <pt x="734" y="202" on="0"/>
        <pt x="644" y="140" on="1"/>
        <pt x="630" y="131" on="0"/>
        <pt x="579" y="98" on="0"/>
        <pt x="567" y="90" on="1"/>
        <pt x="708" y="90" on="1"/>
      </contour>
    </TTGlyph>
    <TTGlyph name="onequarter" xMin="39" yMin="0" xMax="720" yMax="686">
      <contour>
        <pt x="304" y="311" on="1"/>
        <pt x="39" y="311" on="1"/>
        <pt x="51" y="393" on="1"/>
        <pt x="133" y="393" on="1"/>
        <pt x="157" y="565" on="1"/>
        <pt x="75" y="565" on="1"/>
        <pt x="83" y="627" on="1"/>
        <pt x="153" y="631" on="0"/>
        <pt x="243" y="685" on="1"/>
        <pt x="279" y="685" on="1"/>
        <pt x="238" y="393" on="1"/>
        <pt x="316" y="393" on="1"/>
      </contour>
      <contour>
        <pt x="192" y="0" on="1"/>
        <pt x="103" y="0" on="1"/>
        <pt x="620" y="686" on="1"/>
        <pt x="706" y="686" on="1"/>
      </contour>
      <contour>
        <pt x="555" y="81" on="1"/>
        <pt x="404" y="81" on="1"/>
        <pt x="415" y="162" on="1"/>
        <pt x="441" y="198" on="0"/>
        <pt x="515" y="336" on="0"/>
        <pt x="529" y="375" on="1"/>
        <pt x="624" y="375" on="1"/>
        <pt x="613" y="335" on="0"/>
        <pt x="522" y="200" on="0"/>
        <pt x="485" y="161" on="1"/>
        <pt x="566" y="161" on="1"/>
        <pt x="574" y="216" on="1"/>
        <pt x="591" y="236" on="0"/>
        <pt x="639" y="317" on="0"/>
        <pt x="647" y="339" on="1"/>
        <pt x="692" y="339" on="1"/>
        <pt x="667" y="161" on="1"/>
        <pt x="720" y="161" on="1"/>
        <pt x="709" y="81" on="1"/>
        <pt x="656" y="81" on="1"/>
        <pt x="644" y="0" on="1"/>
        <pt x="543" y="0" on="1"/>
      </contour>
    </TTGlyph>
    <TTGlyph name="ordfeminine" xMin="63" yMin="376" xMax="409" yMax="696">
      <contour>
        <pt x="113" y="376" on="0"/>
        <pt x="63" y="443" on="0"/>
        <pt x="63" y="546" on="0"/>
        <pt x="91" y="632" on="0"/>
        <pt x="159" y="696" on="0"/>
        <pt x="260" y="696" on="0"/>
        <pt x="289" y="653" on="1"/>
        <pt x="293" y="653" on="1"/>
        <pt x="313" y="690" on="1"/>
        <pt x="403" y="690" on="1"/>
        <pt x="381" y="543" on="1"/>
        <pt x="371" y="478" on="0"/>
        <pt x="371" y="465" on="1"/>
        <pt x="371" y="448" on="0"/>
        <pt x="387" y="448" on="1"/>
        <pt x="395" y="448" on="0"/>
        <pt x="409" y="456" on="1"/>
        <pt x="400" y="390" on="1"/>
        <pt x="370" y="376" on="0"/>
        <pt x="305" y="376" on="0"/>
        <pt x="264" y="395" on="0"/>
        <pt x="256" y="423" on="1"/>
        <pt x="219" y="376" on="0"/>
      </contour>
      <contour>
        <pt x="181" y="488" on="1"/>
        <pt x="181" y="484" on="1"/>
        <pt x="181" y="469" on="0"/>
        <pt x="199" y="449" on="0"/>
        <pt x="213" y="449" on="1"/>
        <pt x="251" y="449" on="0"/>
        <pt x="256" y="491" on="1"/>
        <pt x="262" y="534" on="1"/>
        <pt x="263" y="543" on="0"/>
        <pt x="265" y="556" on="1"/>
        <pt x="269" y="580" on="0"/>
        <pt x="269" y="586" on="1"/>
        <pt x="269" y="621" on="0"/>
        <pt x="237" y="621" on="1"/>
        <pt x="220" y="621" on="0"/>
        <pt x="196" y="596" on="0"/>
        <pt x="194" y="578" on="1"/>
        <pt x="181" y="492" on="0"/>
      </contour>
    </TTGlyph>
    <TTGlyph name="ordmasculine" xMin="60" yMin="378" xMax="402" yMax="696">
      <contour>
        <pt x="138" y="378" on="0"/>
        <pt x="60" y="448" on="0"/>
        <pt x="60" y="582" on="0"/>
        <pt x="155" y="696" on="0"/>
        <pt x="244" y="696" on="1"/>
        <pt x="254" y="696" on="1"/>
        <pt x="325" y="696" on="0"/>
        <pt x="402" y="626" on="0"/>
        <pt x="402" y="567" on="1"/>
        <pt x="402" y="485" on="0"/>
        <pt x="299" y="378" on="0"/>
        <pt x="218" y="378" on="1"/>
        <pt x="209" y="378" on="1"/>
      </contour>
      <contour>
        <pt x="189" y="536" on="1"/>
        <pt x="183" y="490" on="0"/>
        <pt x="183" y="471" on="0"/>
        <pt x="203" y="450" on="0"/>
        <pt x="238" y="450" on="0"/>
        <pt x="263" y="474" on="0"/>
        <pt x="266" y="492" on="1"/>
        <pt x="272" y="536" on="1"/>
        <pt x="273" y="545" on="0"/>
        <pt x="275" y="558" on="1"/>
        <pt x="279" y="582" on="0"/>
        <pt x="279" y="602" on="0"/>
        <pt x="259" y="624" on="0"/>
        <pt x="225" y="624" on="0"/>
        <pt x="198" y="599" on="0"/>
        <pt x="196" y="582" on="1"/>
      </contour>
    </TTGlyph>
    <TTGlyph name="oslash" xMin="14" yMin="-55" xMax="590" yMax="569">
      <contour>
        <pt x="106" y="-55" on="1"/>
        <pt x="14" y="-55" on="1"/>
        <pt x="89" y="41" on="1"/>
        <pt x="16" y="99" on="0"/>
        <pt x="16" y="205" on="1"/>
        <pt x="16" y="324" on="0"/>
        <pt x="89" y="418" on="1"/>
        <pt x="125" y="465" on="0"/>
        <pt x="247" y="521" on="0"/>
        <pt x="323" y="521" on="1"/>
        <pt x="340" y="521" on="1"/>
        <pt x="399" y="521" on="0"/>
        <pt x="448" y="504" on="1"/>
        <pt x="498" y="569" on="1"/>
        <pt x="590" y="569" on="1"/>
        <pt x="513" y="470" on="1"/>
        <pt x="587" y="411" on="0"/>
        <pt x="587" y="305" on="1"/>
        <pt x="587" y="168" on="0"/>
        <pt x="415" y="-10" on="0"/>
        <pt x="280" y="-10" on="1"/>
        <pt x="265" y="-10" on="1"/>
        <pt x="205" y="-10" on="0"/>
        <pt x="154" y="7" on="1"/>
      </contour>
      <contour>
        <pt x="243" y="330" on="1"/>
        <pt x="227" y="219" on="1"/>
        <pt x="358" y="388" on="1"/>
        <pt x="343" y="400" on="0"/>
        <pt x="292" y="400" on="0"/>
        <pt x="247" y="359" on="0"/>
      </contour>
      <contour>
        <pt x="375" y="292" on="1"/>
        <pt x="244" y="123" on="1"/>
        <pt x="259" y="111" on="0"/>
        <pt x="313" y="111" on="0"/>
        <pt x="355" y="150" on="0"/>
        <pt x="361" y="192" on="0"/>
        <pt x="373" y="279" on="0"/>
      </contour>
    </TTGlyph>
    <TTGlyph name="otilde" xMin="16" yMin="-10" xMax="590" yMax="720">
      <contour>
        <pt x="16" y="205" on="1"/>
        <pt x="16" y="324" on="0"/>
        <pt x="89" y="418" on="1"/>
        <pt x="125" y="465" on="0"/>
        <pt x="247" y="521" on="0"/>
        <pt x="323" y="521" on="1"/>
        <pt x="340" y="521" on="1"/>
        <pt x="458" y="521" on="0"/>
        <pt x="587" y="404" on="0"/>
        <pt x="587" y="305" on="1"/>
        <pt x="587" y="168" on="0"/>
        <pt x="415" y="-10" on="0"/>
        <pt x="280" y="-10" on="1"/>
        <pt x="265" y="-10" on="1"/>
        <pt x="145" y="-10" on="0"/>
        <pt x="16" y="107" on="0"/>
      </contour>
      <contour>
        <pt x="206" y="577" on="1"/>
        <pt x="126" y="577" on="1"/>
        <pt x="135" y="634" on="0"/>
        <pt x="225" y="720" on="0"/>
        <pt x="286" y="720" on="1"/>
        <pt x="319" y="720" on="0"/>
        <pt x="427" y="680" on="0"/>
        <pt x="453" y="680" on="1"/>
        <pt x="490" y="680" on="0"/>
        <pt x="509" y="720" on="1"/>
        <pt x="590" y="720" on="1"/>
        <pt x="581" y="663" on="0"/>
        <pt x="491" y="577" on="0"/>
        <pt x="429" y="577" on="1"/>
        <pt x="396" y="577" on="0"/>
        <pt x="287" y="617" on="0"/>
        <pt x="262" y="617" on="1"/>
        <pt x="225" y="617" on="0"/>
      </contour>
      <contour>
        <pt x="232" y="253" on="1"/>
        <pt x="221" y="192" on="0"/>
        <pt x="221" y="145" on="0"/>
        <pt x="255" y="111" on="0"/>
        <pt x="313" y="111" on="0"/>
        <pt x="355" y="150" on="0"/>
        <pt x="360" y="181" on="1"/>
        <pt x="371" y="254" on="1"/>
        <pt x="382" y="335" on="0"/>
        <pt x="382" y="339" on="1"/>
        <pt x="382" y="363" on="0"/>
        <pt x="349" y="400" on="0"/>
        <pt x="292" y="400" on="0"/>
        <pt x="247" y="359" on="0"/>
        <pt x="239" y="307" on="0"/>
      </contour>
    </TTGlyph>
    <TTGlyph name="overscore" xMin="71" yMin="662" xMax="389" yMax="736">
      <contour>
        <pt x="389" y="662" on="1"/>
        <pt x="71" y="662" on="1"/>
        <pt x="71" y="736" on="1"/>
        <pt x="389" y="736" on="1"/>
      </contour>
    </TTGlyph>
    <TTGlyph name="p" xMin="-16" yMin="-181" xMax="572" yMax="521">
      <contour>
        <pt x="181" y="-181" on="1"/>
        <pt x="-16" y="-181" on="1"/>
        <pt x="80" y="511" on="1"/>
        <pt x="238" y="511" on="1"/>
        <pt x="248" y="452" on="1"/>
        <pt x="313" y="521" on="0"/>
        <pt x="471" y="521" on="0"/>
        <pt x="572" y="418" on="0"/>
        <pt x="572" y="319" on="1"/>
        <pt x="572" y="203" on="0"/>
        <pt x="518" y="102" on="1"/>
        <pt x="492" y="52" on="0"/>
        <pt x="398" y="-10" on="0"/>
        <pt x="293" y="-10" on="0"/>
        <pt x="226" y="26" on="0"/>
        <pt x="214" y="53" on="1"/>
      </contour>
      <contour>
        <pt x="232" y="174" on="1"/>
        <pt x="232" y="148" on="0"/>
        <pt x="262" y="115" on="0"/>
        <pt x="316" y="115" on="0"/>
        <pt x="353" y="154" on="0"/>
        <pt x="357" y="185" on="1"/>
        <pt x="367" y="257" on="1"/>
        <pt x="378" y="338" on="0"/>
        <pt x="378" y="342" on="1"/>
        <pt x="378" y="370" on="0"/>
        <pt x="349" y="400" on="0"/>
        <pt x="298" y="400" on="0"/>
        <pt x="257" y="360" on="0"/>
        <pt x="253" y="330" on="1"/>
        <pt x="232" y="182" on="0"/>
      </contour>
    </TTGlyph>
    <TTGlyph name="paragraph" xMin="46" yMin="-161" xMax="603" yMax="686">
      <contour>
        <pt x="46" y="437" on="1"/>
        <pt x="46" y="537" on="0"/>
        <pt x="195" y="686" on="0"/>
        <pt x="294" y="686" on="1"/>
        <pt x="603" y="686" on="1"/>
        <pt x="592" y="607" on="1"/>
        <pt x="526" y="607" on="1"/>
        <pt x="418" y="-161" on="1"/>
        <pt x="330" y="-161" on="1"/>
        <pt x="438" y="607" on="1"/>
        <pt x="362" y="607" on="1"/>
        <pt x="254" y="-161" on="1"/>
        <pt x="166" y="-161" on="1"/>
        <pt x="224" y="253" on="1"/>
        <pt x="146" y="255" on="0"/>
        <pt x="46" y="361" on="0"/>
      </contour>
    </TTGlyph>
    <TTGlyph name="parenleft" xMin="19" yMin="-158" xMax="352" yMax="686">
      <contour>
        <pt x="19" y="174" on="1"/>
        <pt x="19" y="312" on="0"/>
        <pt x="138" y="582" on="0"/>
        <pt x="244" y="686" on="1"/>
        <pt x="352" y="686" on="1"/>
        <pt x="268" y="565" on="0"/>
        <pt x="175" y="292" on="0"/>
        <pt x="175" y="158" on="1"/>
        <pt x="175" y="-27" on="0"/>
        <pt x="233" y="-158" on="1"/>
        <pt x="125" y="-158" on="1"/>
        <pt x="19" y="-15" on="0"/>
      </contour>
    </TTGlyph>
    <TTGlyph name="parenright" xMin="-48" yMin="-158" xMax="285" yMax="686">
      <contour>
        <pt x="60" y="-158" on="1"/>
        <pt x="-48" y="-158" on="1"/>
        <pt x="35" y="-41" on="0"/>
        <pt x="129" y="235" on="0"/>
        <pt x="129" y="368" on="1"/>
        <pt x="129" y="548" on="0"/>
        <pt x="71" y="686" on="1"/>
        <pt x="179" y="686" on="1"/>
        <pt x="285" y="544" on="0"/>
        <pt x="285" y="351" on="1"/>
        <pt x="285" y="308" on="0"/>
        <pt x="279" y="264" on="1"/>
        <pt x="243" y="22" on="0"/>
      </contour>
    </TTGlyph>
    <TTGlyph name="partialdiff" xMin="15" yMin="-10" xMax="596" yMax="696">
      <contour>
        <pt x="15" y="194" on="1"/>
        <pt x="15" y="308" on="0"/>
        <pt x="165" y="437" on="0"/>
        <pt x="271" y="437" on="1"/>
        <pt x="302" y="437" on="0"/>
        <pt x="368" y="411" on="0"/>
        <pt x="388" y="385" on="1"/>
        <pt x="401" y="481" on="1"/>
        <pt x="401" y="508" on="0"/>
        <pt x="362" y="546" on="0"/>
        <pt x="334" y="546" on="1"/>
        <pt x="192" y="546" on="1"/>
        <pt x="213" y="696" on="1"/>
        <pt x="369" y="696" on="1"/>
        <pt x="468" y="696" on="0"/>
        <pt x="596" y="575" on="0"/>
        <pt x="596" y="482" on="1"/>
        <pt x="596" y="464" on="1"/>
        <pt x="596" y="458" on="0"/>
        <pt x="594" y="446" on="1"/>
        <pt x="565" y="240" on="1"/>
        <pt x="549" y="129" on="0"/>
        <pt x="390" y="-10" on="0"/>
        <pt x="270" y="-10" on="1"/>
        <pt x="242" y="-10" on="1"/>
        <pt x="142" y="-10" on="0"/>
        <pt x="15" y="102" on="0"/>
      </contour>
      <contour>
        <pt x="206" y="194" on="1"/>
        <pt x="206" y="167" on="0"/>
        <pt x="243" y="130" on="0"/>
        <pt x="272" y="130" on="1"/>
        <pt x="278" y="130" on="1"/>
        <pt x="308" y="130" on="0"/>
        <pt x="358" y="174" on="0"/>
        <pt x="363" y="205" on="1"/>
        <pt x="370" y="256" on="1"/>
        <pt x="370" y="284" on="0"/>
        <pt x="332" y="321" on="0"/>
        <pt x="304" y="321" on="1"/>
        <pt x="298" y="321" on="1"/>
        <pt x="268" y="321" on="0"/>
        <pt x="218" y="277" on="0"/>
        <pt x="213" y="246" on="1"/>
        <pt x="207" y="205" on="1"/>
        <pt x="206" y="202" on="0"/>
      </contour>
    </TTGlyph>
    <TTGlyph name="percent" xMin="51" yMin="-1" xMax="679" yMax="686">
      <contour>
        <pt x="51" y="442" on="1"/>
        <pt x="51" y="451" on="1"/>
        <pt x="51" y="457" on="0"/>
        <pt x="52" y="460" on="1"/>
        <pt x="66" y="562" on="1"/>
        <pt x="72" y="614" on="0"/>
        <pt x="150" y="685" on="0"/>
        <pt x="207" y="685" on="1"/>
        <pt x="229" y="685" on="1"/>
        <pt x="276" y="685" on="0"/>
        <pt x="336" y="625" on="0"/>
        <pt x="336" y="580" on="1"/>
        <pt x="336" y="571" on="1"/>
        <pt x="336" y="565" on="0"/>
        <pt x="335" y="562" on="1"/>
        <pt x="321" y="460" on="1"/>
        <pt x="312" y="407" on="0"/>
        <pt x="238" y="337" on="0"/>
        <pt x="180" y="337" on="1"/>
        <pt x="158" y="337" on="1"/>
        <pt x="111" y="337" on="0"/>
        <pt x="51" y="397" on="0"/>
      </contour>
      <contour>
        <pt x="155" y="0" on="1"/>
        <pt x="60" y="0" on="1"/>
        <pt x="576" y="686" on="1"/>
        <pt x="669" y="686" on="1"/>
      </contour>
      <contour>
        <pt x="165" y="575" on="1"/>
        <pt x="146" y="447" on="0"/>
        <pt x="146" y="428" on="0"/>
        <pt x="165" y="409" on="0"/>
        <pt x="195" y="409" on="0"/>
        <pt x="219" y="431" on="0"/>
        <pt x="221" y="448" on="1"/>
        <pt x="230" y="510" on="1"/>
        <pt x="231" y="528" on="0"/>
        <pt x="239" y="578" on="0"/>
        <pt x="239" y="595" on="0"/>
        <pt x="222" y="614" on="0"/>
        <pt x="193" y="614" on="0"/>
        <pt x="167" y="592" on="0"/>
      </contour>
      <contour>
        <pt x="394" y="104" on="1"/>
        <pt x="394" y="113" on="1"/>
        <pt x="394" y="119" on="0"/>
        <pt x="395" y="122" on="1"/>
        <pt x="409" y="224" on="1"/>
        <pt x="415" y="276" on="0"/>
        <pt x="493" y="347" on="0"/>
        <pt x="550" y="347" on="1"/>
        <pt x="572" y="347" on="1"/>
        <pt x="619" y="347" on="0"/>
        <pt x="679" y="287" on="0"/>
        <pt x="679" y="242" on="1"/>
        <pt x="679" y="233" on="1"/>
        <pt x="679" y="227" on="0"/>
        <pt x="678" y="224" on="1"/>
        <pt x="664" y="122" on="1"/>
        <pt x="655" y="69" on="0"/>
        <pt x="581" y="-1" on="0"/>
        <pt x="523" y="-1" on="1"/>
        <pt x="501" y="-1" on="1"/>
        <pt x="454" y="-1" on="0"/>
        <pt x="394" y="59" on="0"/>
      </contour>
      <contour>
        <pt x="508" y="237" on="1"/>
        <pt x="489" y="109" on="0"/>
        <pt x="489" y="90" on="0"/>
        <pt x="508" y="71" on="0"/>
        <pt x="538" y="71" on="0"/>
        <pt x="562" y="93" on="0"/>
        <pt x="564" y="110" on="1"/>
        <pt x="573" y="172" on="1"/>
        <pt x="574" y="190" on="0"/>
        <pt x="582" y="240" on="0"/>
        <pt x="582" y="257" on="0"/>
        <pt x="565" y="276" on="0"/>
        <pt x="536" y="276" on="0"/>
        <pt x="510" y="254" on="0"/>
      </contour>
    </TTGlyph>
    <TTGlyph name="period" xMin="8" yMin="0" xMax="224" yMax="183">
      <contour>
        <pt x="199" y="0" on="1"/>
        <pt x="8" y="0" on="1"/>
        <pt x="33" y="183" on="1"/>
        <pt x="224" y="183" on="1"/>
      </contour>
    </TTGlyph>
</ttFont>
